<?xml version="1.0" standalone="no"?>
<!DOCTYPE svg PUBLIC "-//W3C//DTD SVG 1.1//EN" "http://www.w3.org/Graphics/SVG/1.1/DTD/svg11.dtd" >
<svg xmlns="http://www.w3.org/2000/svg" xmlns:xlink="http://www.w3.org/1999/xlink" version="1.1">
<metadata>
Created by FontForge 20201107 at Tue Dec  7 14:08:49 2021
 By 
Copyright 2020 The Bokor Project Authors (https://github.com/danhhong/Bokor)
</metadata>
<defs>
<font id="Bokor-Regular" horiz-adv-x="1200" >
  <font-face 
    font-family="Bokor"
    font-weight="400"
    font-stretch="normal"
    units-per-em="2048"
    panose-1="0 0 0 0 0 0 0 0 0 0"
    ascent="1638"
    descent="-410"
    x-height="1167"
    cap-height="1579"
    bbox="-2200 -1200 4200 2594"
    underline-thickness="50"
    underline-position="-125"
    unicode-range="U+0020-25CC"
  />
<missing-glyph horiz-adv-x="1024" 
d="M102 -1200v3700h820v-3700h-820zM204 -1098h616v3496h-616v-3496z" />
    <glyph glyph-name=".notdef" horiz-adv-x="1024" 
d="M102 -1200v3700h820v-3700h-820zM204 -1098h616v3496h-616v-3496z" />
    <glyph glyph-name=".null" horiz-adv-x="0" 
 />
    <glyph glyph-name="nonmarkingreturn" horiz-adv-x="682" 
 />
    <glyph glyph-name="space" unicode=" " horiz-adv-x="532" 
 />
    <glyph glyph-name="exclam" unicode="!" horiz-adv-x="450" 
d="M102 406v864q0 125 -84 141v45l207 117q45 -19 84 -61t39 -78v-865q0 -124 84 -141v-45l-207 -117q-45 19 -84 61t-39 79zM378 31v-125q0 -3 -25.5 -14t-59.5 -24t-63 -22.5t-35 -9.5q-13 0 -38.5 35t-25.5 72v149q0 3 24 14t57.5 24t62.5 22.5t38 9.5q23 0 44 -41
t21 -90z" />
    <glyph glyph-name="quotedbl" unicode="&#x22;" horiz-adv-x="628" 
d="M51 1507q0 3 19.5 14t46 24t49.5 22.5t29 9.5q12 0 37.5 -35t25.5 -72l-21 -233q0 -5 -20 -22.5t-44 -32.5t-36 -15q-22 0 -41 40.5t-25 90.5zM370 1507q0 3 19.5 14t46.5 24t49.5 22.5t28.5 9.5q12 0 37.5 -35t25.5 -72l-20 -233q0 -5 -20 -22.5t-44 -32.5t-36 -15
q-22 0 -41.5 40.5t-24.5 90.5z" />
    <glyph glyph-name="numbersign" unicode="#" horiz-adv-x="1169" 
d="M199 553l108 317h-268v45l123 117h201l112 330l150 80h51l-141 -410h334l112 330l150 80h51l-139 -410h272v-49l-123 -113h-205l-106 -317h256v-49l-123 -113h-188l-107 -313l-153 -78h-46l132 391h-336l-107 -313l-153 -78h-45l133 391h-283v45l123 117h215zM707 553
l106 317h-334l-108 -317h336z" />
    <glyph glyph-name="dollar" unicode="$" horiz-adv-x="870" 
d="M227 653q-52 0 -88.5 78t-36.5 191v426q0 34 182 118v199l115 61h49v-190q103 41 114 41q20 0 47 -41q7 -10 13 -20t11 -20q13 -24 31 -56.5t31 -57.5q27 -49 68 -49v-41q-16 -7 -38 -18l-50 -25q-130 -71 -139 -71q-31 0 -77 121q-46 120 -75 120q-37 0 -37 -61v-457
q0 -82 37 -82q9 0 127 54q120 53 144 53q50 0 87 -79q37 -78 37 -202v-436q0 -35 -196 -119v-205l-115 -61h-49v201q-129 -45 -143 -45q-15 0 -33 35q-19 35 -48 99q-30 65 -53.5 107.5t-64.5 42.5v41q17 7 38.5 18t47.5 25q131 72 141 72q31 0 88 -141q55 -142 84 -142
q21 0 39.5 16.5t18.5 45.5v460q0 93 -51 93q-18 0 -129 -49q-114 -50 -127 -50z" />
    <glyph glyph-name="percent" unicode="%" horiz-adv-x="1435" 
d="M1097 1454l52 -6l-668 -1442l-160 -63l-45 6l666 1440zM102 965v346q0 4 30 17.5t75 32t92 35.5t83 28.5t46 11.5q16 0 43.5 -26.5t50 -62.5t22.5 -65v-389q0 -5 -43.5 -24t-103 -42t-111 -40t-68.5 -17q-22 0 -49.5 26.5t-47 71t-19.5 97.5zM329 893q27 0 52 25v294
q0 99 -66 99q-28 0 -51 -23v-297q0 -98 65 -98zM890 197v346q0 4 30 17.5t75.5 32t92.5 35.5t83 28.5t46 11.5q16 0 43.5 -26.5t50 -62.5t22.5 -65v-389q0 -4 -29 -17.5t-73 -31.5t-90.5 -35t-83.5 -28t-51 -11q-22 0 -49.5 26.5t-47 71t-19.5 97.5zM1118 125q26 0 51 25
v294q0 99 -66 99q-31 0 -51 -23v-297q0 -98 66 -98z" />
    <glyph glyph-name="ampersand" unicode="&#x26;" horiz-adv-x="880" 
d="M385 1378q-20 0 -37 -20v-541h131q65 6 134 58.5t93 140.5h72v-199h104l-20 -100h-84v-414q0 -124 84 -141v-45l-207 -117q-73 33 -107 84q-208 -84 -261 -84q-36 0 -79 41.5t-74.5 110t-31.5 147.5v1090q0 6 42.5 26.5t106.5 47.5t131 53.5t118 43.5t65 17
q10 0 31.5 -38t46 -90.5t45.5 -98t31 -61.5q23 -38 88 -38v-41q-46 -19 -153 -72q-109 -53 -116 -53q-30 0 -77 147q-48 146 -76 146zM532 215v502h-184v-328q0 -99 10 -122q10 -25 22 -44q10 -19 29 -27q23 -10 51.5 -6.5t71.5 25.5z" />
    <glyph glyph-name="quotesingle" unicode="'" horiz-adv-x="309" 
d="M51 1507q0 3 19.5 14t46 24t49.5 22.5t29 9.5q12 0 37.5 -35t25.5 -72l-21 -233q0 -5 -20 -22.5t-44 -32.5t-36 -15q-22 0 -41 40.5t-25 90.5z" />
    <glyph glyph-name="parenleft" unicode="(" horiz-adv-x="651" 
d="M610 39v-59q-181 -93 -225 -93q-46 0 -106 38.5t-110.5 116.5t-68.5 194q-39 239 -39 494q0 256 39 497q20 119 70 196t109.5 114.5t105.5 37.5q26 0 82.5 -21.5t97.5 -44.5l43 -22v-64q-118 0 -194 -58q-51 -38 -83 -134.5t-46.5 -227t-14.5 -273.5q0 -214 33 -388
q22 -116 57 -182t95 -93.5t155 -27.5z" />
    <glyph glyph-name="parenright" unicode=")" horiz-adv-x="651" 
d="M61 39q142 0 209 65q44 43 73 136.5t43.5 220.5t14.5 269q0 217 -34 396q-22 121 -64 185t-102 88t-138 24v64q161 88 228 88q44 0 102 -37.5t108.5 -114.5t69.5 -196q39 -241 39 -497q0 -255 -39 -494q-18 -116 -68.5 -194t-110 -116.5t-106.5 -38.5q-40 0 -178 68
l-47 25v59z" />
    <glyph glyph-name="asterisk" unicode="*" horiz-adv-x="706" 
d="M294 1468l84 88h33v-186l69 27l121 4l23 -21l-146 -116l146 -117l-25 -25l-117 6l-71 29v-84l-82 -88h-35v170l-70 -29l-118 -6l-25 25l147 119l-145 116l21 23l122 -4l68 -29v98z" />
    <glyph glyph-name="plus" unicode="+" horiz-adv-x="862" 
d="M350 860l117 123h45v-287h288v-49l-123 -112h-165v-168l-113 -123h-49v291h-289v45l123 116h166v164z" />
    <glyph glyph-name="comma" unicode="," horiz-adv-x="454" 
d="M104 131v84q0 3 25.5 14t59.5 24t63 22.5t35 9.5q13 0 38.5 -35t25.5 -72v-108q0 -31 -12.5 -81t-36.5 -105t-57 -101t-74 -70l-92 86q25 10 40 42.5t22.5 74t7.5 76.5q0 9 -22 47q-23 40 -23 92z" />
    <glyph glyph-name="hyphen" unicode="-" horiz-adv-x="780" 
d="M61 580l123 116h534v-49l-122 -112h-535v45z" />
    <glyph glyph-name="period" unicode="." horiz-adv-x="452" 
d="M102 131v125q0 3 25.5 14t60 24t63 22.5t35.5 9.5q14 0 39 -35t25 -72v-149q0 -3 -24.5 -14.5t-57.5 -24t-62 -22t-38 -9.5q-24 0 -45 41t-21 90z" />
    <glyph glyph-name="slash" unicode="/" horiz-adv-x="368" 
d="M524 1493h52l-512 -1493l-154 -78h-45l510 1491z" />
    <glyph glyph-name="zero" unicode="0" horiz-adv-x="882" 
d="M102 299v1090q0 6 46.5 26.5t116.5 47.5t142.5 53.5t127.5 43.5t69 17q18 0 47 -23.5t58.5 -60.5t50 -77.5t20.5 -74.5v-1151q0 -6 -44.5 -27t-111.5 -48.5t-138.5 -53.5t-128 -43.5t-76.5 -17.5q-33 0 -75 40.5t-73 108.5t-31 150zM452 188q40 0 80 33v1014
q0 151 -104 151q-41 0 -80 -30v-1016q0 -152 104 -152zM395 674v166q0 18 22.5 22t45 -4.5t22.5 -30.5v-176q0 -19 -22.5 -22.5t-45 8t-22.5 37.5z" />
    <glyph glyph-name="one" unicode="1" horiz-adv-x="491" 
d="M369 1438v-1096q0 -55 18.5 -78.5t63.5 -23.5v-58q-417 -182 -418 -182l-32 66q16 0 39.5 14t39.5 33q43 49 43 149v1012q0 43 -28 71q-28 27 -53 34t-64 16v45l268 137q45 -18 84 -60t39 -79z" />
    <glyph glyph-name="two" unicode="2" horiz-adv-x="792" 
d="M465 1241q0 89 -17 126q-19 38 -59 36t-72 -41v-188q0 -34 -9 -58t-50 -39l-213 -82l-29 29q55 61 55 131v234q0 5 43 25.5t107.5 47.5t132.5 53.5t120 44t67 17.5q19 0 47.5 -26.5t56 -65t46.5 -77t19 -62.5v-281q0 -54 -33 -140t-86.5 -186t-116 -199t-122.5 -180
l-119 -163q113 2 179 3t85 1q113 0 137 67q11 -1 19.5 -1.5t13.5 -0.5h13l114 -166q-3 -5 -7.5 -12t-9.5 -15q-11 -18 -51 -45.5t-87 -27.5h-576q-43 110 -43 190q0 28 111 194q55 84 113.5 175t108.5 175.5t81 150t31 98.5v258z" />
    <glyph glyph-name="three" unicode="3" horiz-adv-x="839" 
d="M493 252v43l-2 143v86q0 152 -22 183q-25 34 -66 34q-69 0 -141 -30l-23 -11l-20 74q83 44 151 78t121 57v344q0 168 -88 168q-35 0 -60.5 -28.5t-25.5 -69.5v-113q0 -26 -17 -43q-19 -19 -79 -41l-186 -71l-29 28q53 56 53 136v155q0 6 46.5 28t117 51t143.5 57
t128 46.5t69 18.5q18 0 47 -23.5t58.5 -60.5t50 -77.5t20.5 -74.5v-397q0 -30 -108 -86q106 -122 106 -258v-410q0 -18 -48 -44t-122 -54t-153.5 -52.5t-144.5 -40t-93 -15.5q-25 0 -38 43q-7 26 -15 63t-15.5 70.5t-15.5 46.5q-18 31 -86 39v39q245 120 295 120
q11 0 12.5 -32t1.5 -78q0 -67 26.5 -117.5t70.5 -50.5q81 0 81 127z" />
    <glyph glyph-name="four" unicode="4" horiz-adv-x="821" 
d="M471 262v307h-422q-5 0 -16.5 18t-21 41t-9.5 37q0 5 11 31t44.5 96.5t101 205.5t180.5 358q125 221 161 221q137 -34 196 -94q23 -23 23 -45v-748h82v-69l-82 -52v-227q0 -55 18.5 -78.5t63.5 -23.5v-58q-417 -182 -418 -182l-33 66q14 0 39 14t41 33q41 52 41 149z
M473 690v549l-276 -553q273 1 276 4z" />
    <glyph glyph-name="five" unicode="5" horiz-adv-x="882" 
d="M632 1356h-285v-377q0 -82 37 -82q9 0 127 54q120 53 144 53q50 0 87 -88q37 -87 37 -214v-493q0 -16 -46.5 -43.5t-117 -59.5t-143.5 -60.5t-127.5 -47t-68.5 -18.5q-22 0 -43 28.5t-40.5 71t-38.5 85t-38 71t-39 28.5v41q17 7 38.5 18t47.5 25q131 72 141 72
q31 0 88 -121q55 -121 84 -121q21 0 39.5 16.5t18.5 45.5v436q0 92 -51 92q-18 0 -129 -49t-127 -49q-52 0 -88.5 77.5t-36.5 190.5v580q0 38 55 38h311q129 0 150 66l47 2l112 -168q-14 -39 -57 -69.5t-88 -30.5z" />
    <glyph glyph-name="six" unicode="6" horiz-adv-x="882" 
d="M102 299v641q0 85 33.5 185t84 194t99.5 160q74 98 98 98q35 0 83.5 -12t98.5 -30t87 -36l55 -24v-62h-59q-70 0 -141.5 -61.5t-124 -159t-66.5 -207.5q224 100 257 100q16 0 44.5 -26.5t58 -67.5t50 -84.5t20.5 -77.5v-639q0 -6 -44.5 -27t-111.5 -48.5t-138.5 -53.5
t-128 -43.5t-76.5 -17.5q-33 0 -75 40.5t-73 108.5t-31 150zM452 188q40 0 80 33v516q0 66 -38 109t-146 43v-549q0 -152 104 -152z" />
    <glyph glyph-name="seven" unicode="7" horiz-adv-x="757" 
d="M92 174l450 1182h-219q-124 0 -141 -68h-45l-117 168q25 39 63.5 69.5t75.5 30.5h275q124 0 141 68h45q15 -19 34.5 -58.5t38.5 -83.5t31.5 -79t12.5 -45l-445 -1358h-98q-102 104 -102 174z" />
    <glyph glyph-name="eight" unicode="8" horiz-adv-x="882" 
d="M102 952v434q0 6 46.5 27t116.5 48t142.5 53t127.5 43.5t69 17.5q18 0 47 -23.5t58.5 -60.5t50 -77.5t20.5 -74.5v-383q0 -37 -123 -75q47 -21 85 -73t38 -91v-527q0 -6 -44.5 -27t-111.5 -48.5t-138.5 -53.5t-128 -43.5t-76.5 -17.5q-33 0 -75 40.5t-73 108.5t-31 150
v338q0 37 119 84q-119 47 -119 231zM452 903q40 0 80 33v297q0 151 -104 151q-36 0 -80 -30v-299q0 -152 104 -152zM452 188q40 0 80 33v369q0 151 -104 151q-36 0 -80 -30v-371q0 -152 104 -152z" />
    <glyph glyph-name="nine" unicode="9" horiz-adv-x="882" 
d="M780 1278v-580q0 -103 -33.5 -217t-83.5 -215t-100 -167q-73 -99 -99 -99q-34 0 -82.5 12t-98 30t-87.5 36l-55 24v62h59q53 0 110.5 45.5t108 118.5t82 158.5t31.5 166.5q-224 -100 -257 -100q-16 0 -44.5 26.5t-58 67.5t-50 84.5t-20.5 77.5v577q0 7 44.5 28.5
t111.5 48.5t138.5 53.5t128 43.5t76.5 17q34 0 75.5 -40.5t72.5 -108.5t31 -150zM430 1389q-39 0 -80 -33v-455q0 -65 38 -108t146 -43v487q0 152 -104 152z" />
    <glyph glyph-name="colon" unicode=":" horiz-adv-x="452" 
d="M102 700v125q0 3 25.5 14t60 24t63 22.5t35.5 9.5q14 0 39 -35t25 -72v-149q0 -3 -24.5 -14t-57.5 -24t-62 -22.5t-38 -9.5q-24 0 -45 41t-21 90zM102 131v125q0 3 25.5 14t60 24t63 22.5t35.5 9.5q14 0 39 -35t25 -72v-149q0 -3 -24.5 -14.5t-57.5 -24t-62 -22t-38 -9.5
q-24 0 -45 41t-21 90z" />
    <glyph glyph-name="semicolon" unicode=";" horiz-adv-x="450" 
d="M99 700v125q0 3 25.5 14t60 24t63 22.5t35.5 9.5q14 0 39 -35t25 -72v-149q0 -3 -24.5 -14t-57.5 -24t-62 -22.5t-38 -9.5q-23 0 -44.5 41t-21.5 90zM104 131v84q0 3 25.5 14t59.5 24t63 22.5t35 9.5q13 0 38.5 -35t25.5 -72v-108q0 -31 -12.5 -81t-36.5 -105t-57 -101
t-74 -70l-92 86q25 10 40 42.5t22.5 74t7.5 76.5q0 9 -22 47q-23 40 -23 92z" />
    <glyph glyph-name="less" unicode="&#x3c;" horiz-adv-x="739" 
d="M669 344l28 -145l-24 -43l-633 350l16 61l-16 62l633 350l24 -43l-28 -139l-465 -230z" />
    <glyph glyph-name="equal" unicode="=" horiz-adv-x="780" 
d="M61 739l123 117h534v-49l-122 -113h-535v45zM61 420l123 117h534v-50l-122 -112h-535v45z" />
    <glyph glyph-name="greater" unicode="&#x3e;" horiz-adv-x="739" 
d="M697 629l-16 -62l16 -61l-632 -350l-25 43l29 145l465 223l-465 230l-29 139l25 43z" />
    <glyph glyph-name="question" unicode="?" horiz-adv-x="841" 
d="M494 1241q0 89 -17 126q-19 38 -59 36t-72 -41v-168q0 -47 -16.5 -65.5t-42.5 -30.5l-213 -103l-29 29q55 61 55 131v234q0 5 43 25.5t107.5 47.5t132.5 53.5t120 44t67 17.5q19 0 47.5 -26.5t56 -65t46.5 -77t19 -62.5v-355q0 -35 -46.5 -89t-115.5 -109.5t-135 -98.5
l-98 -63v-58q0 -63 21.5 -99t44.5 -40l20 -4v-45q-199 -117 -213 -117q-9 0 -37 21.5t-53 52.5t-25 59v277q0 10 42.5 40.5t102 69.5t112.5 74t74 53q61 52 61 89v237zM100 -33v125q0 3 25.5 14t60 24t63 22.5t35.5 9.5q14 0 39 -35t25 -72v-149q0 -3 -24.5 -14t-57.5 -24
t-62 -22.5t-38 -9.5q-24 0 -45 41t-21 90z" />
    <glyph glyph-name="at" unicode="@" horiz-adv-x="1105" 
d="M383 -6q-14 -30 -33.5 -63t-42.5 -70q-42 0 -90 44.5t-81.5 120t-33.5 167.5v862q0 5 45.5 22.5t118.5 41t157.5 49t164 47.5t138 35.5t78.5 13.5q21 0 54 -26.5t66 -67.5t56 -86t23 -83v-763l-309 -62q-79 39 -80 88q-133 -88 -167 -88q-22 0 -50 26.5t-48 71.5t-20 99
v448q0 3 30.5 16.5t77 31.5t94.5 35t84 28.5t45 11.5q15 0 42 -26.5t48.5 -62.5t21.5 -67v-401q0 -85 69 -96h45v594q0 166 -25 212t-113 46q-58 0 -139 -18t-162.5 -44.5t-141.5 -52.5l-90 -37v-753q0 -105 14.5 -157.5t51 -69.5t102.5 -17zM559 303q27 0 55 23v395
q0 96 -72 96q-26 0 -51 -16v-400q0 -98 68 -98z" />
    <glyph glyph-name="A" unicode="A" horiz-adv-x="882" 
d="M103 209v1175q0 6 46.5 27t116.5 48t143 53t127.5 43.5t68.5 17.5q17 0 46 -23.5t59 -60.5t50.5 -77.5t20.5 -74.5v-536h100v-49l-100 -52v-397q0 -113 98 -133v-45l-223 -125q-45 18 -84 60t-39 79v561h-184v-385q0 -75 16 -108t68 -33v-63l-420 -177l-33 66q45 0 86 53
q37 50 37 156zM429 1382q-41 0 -80 -30v-604l120 53h64v430q0 151 -104 151z" />
    <glyph glyph-name="B" unicode="B" horiz-adv-x="862" 
d="M348 1434q232 137 249 137t58 -32t82 -88t41 -110v-344q0 -47 -168 -118q29 -8 69 -48.5t70.5 -91.5t30.5 -94v-455q0 -6 -44.5 -27t-111.5 -48.5t-138.5 -53.5t-128 -43.5t-76.5 -17.5q-33 0 -75 40.5t-73 108.5t-31 150v983q0 111 -84 129v45l207 117q45 -19 84 -61
t39 -78zM532 1229q0 54 -23 95q-27 46 -72 39.5t-89 -60.5v-424q184 51 184 221v129zM452 188q40 0 80 33v318q0 151 -104 151q-42 0 -80 -31v-319q0 -152 104 -152z" />
    <glyph glyph-name="C" unicode="C" horiz-adv-x="827" 
d="M385 1378q-20 0 -37 -20v-846q0 -86 10 -138t45 -104q68 -98 309 -98v-59q-9 0 -151 -56q-142 -57 -172 -57q-51 0 -102 32t-93 85.5t-67 118.5t-25 131v1022q0 6 46.5 26.5t117 47.5t143.5 53.5t128 43.5t69 17q9 0 20.5 -33t23.5 -80.5t23 -89.5q21 -84 44.5 -124
t89.5 -40v-41q-46 -19 -153 -72q-109 -53 -116 -53q-30 0 -77 167q-48 167 -76 167z" />
    <glyph glyph-name="D" unicode="D" horiz-adv-x="882" 
d="M780 1341v-1151q0 -6 -44.5 -27t-111.5 -48.5t-138.5 -53.5t-128 -43.5t-76.5 -17.5q-33 0 -75 40.5t-73 108.5t-31 150v983q0 111 -84 129v45l207 117q45 -19 84 -61t39 -78l254 143q18 0 48 -23.5t59.5 -60.5t50 -77.5t20.5 -74.5zM452 188q40 0 80 33v967
q0 145 -104 145q-41 0 -80 -30v-963q0 -152 104 -152z" />
    <glyph glyph-name="E" unicode="E" horiz-adv-x="827" 
d="M385 1378q-20 0 -37 -20v-541h289v-49l-103 -51h-186v-205q0 -227 45 -266q67 -58 147 -66t172 -8v-59q-9 0 -151 -56q-142 -57 -172 -57q-32 0 -80 27t-95.5 71.5t-79.5 100t-32 112.5v1078q0 6 46.5 26.5t117 47.5t143.5 53.5t128 43.5t69 17q9 0 20.5 -33t23.5 -80.5
t23 -89.5q21 -84 44.5 -124t89.5 -40v-41q-46 -19 -153 -72q-109 -53 -116 -53q-30 0 -77 167q-48 167 -76 167z" />
    <glyph glyph-name="F" unicode="F" horiz-adv-x="718" 
d="M386 1378q-20 0 -37 -20v-557h268v-49l-102 -52h-166v-385q0 -75 16 -108t68 -33v-63l-420 -177l-33 66q45 0 86 53q37 50 37 156v1180q0 6 46.5 26.5t117 47.5t143.5 53.5t128 43.5t69 17q9 0 20.5 -33t23.5 -80.5t23 -89.5q21 -84 44.5 -124t88.5 -40v-41
q-22 -10 -60.5 -28t-91.5 -44q-109 -53 -116 -53q-31 0 -78 167t-75 167z" />
    <glyph glyph-name="G" unicode="G" horiz-adv-x="862" 
d="M452 188q40 0 80 33v264q0 126 -84 142v45l207 116q43 -18 84 -60t41 -79v-459q0 -6 -44.5 -27t-111.5 -48.5t-138.5 -53.5t-128 -43.5t-76.5 -17.5q-33 0 -75 40.5t-73 108.5t-31 150v1090q0 6 46.5 26.5t117 47.5t143.5 53.5t128 43.5t69 17q9 0 20.5 -33t23.5 -80.5
t23 -89.5q21 -84 44.5 -124t89.5 -40v-41q-46 -19 -153 -72q-109 -53 -116 -53q-30 0 -77 167q-48 167 -76 167q-20 0 -37 -20v-1018q0 -152 104 -152z" />
    <glyph glyph-name="H" unicode="H" horiz-adv-x="880" 
d="M349 782l102 56h82v360q0 76 -16.5 108.5t-67.5 32.5v64l420 176l33 -66q-45 0 -86 -53q-37 -50 -37 -155v-467h102v-50l-102 -51v-434q0 -124 84 -141v-45l-207 -117q-45 18 -84 60t-39 79v598h-184v-422q0 -75 16 -108t68 -33v-63l-420 -177l-33 66q45 0 86 53
q37 50 37 156v1065q0 125 -84 141v45l207 117q45 -18 84 -60t39 -79v-656z" />
    <glyph glyph-name="I" unicode="I" horiz-adv-x="450" 
d="M103 262v936q0 76 -16.5 108.5t-67.5 32.5v64l420 176l33 -66q-45 0 -86 -53q-37 -50 -37 -155v-963q0 -55 18.5 -78.5t63.5 -23.5v-58q-417 -182 -418 -182l-33 66q16 0 39.5 14t40.5 33q43 49 43 149z" />
    <glyph glyph-name="J" unicode="J" horiz-adv-x="450" 
d="M103 231v945q0 81 -181 81v58q134 70 253 135.5t223 126.5l32 -66q-4 -2 -9.5 -6t-12.5 -9q-21 -16 -40.5 -77t-19.5 -129v-1073q0 -160 -18 -298q-9 -72 -24.5 -138t-34.5 -108t-41 -42q-34 0 -83 14.5t-98.5 36.5t-87.5 42l-55 30v62h70q71 0 99 94q28 93 28 321z" />
    <glyph glyph-name="K" unicode="K" horiz-adv-x="872" 
d="M779 1305v-396q5 -14 -221 -104q0 -43 28.5 -142.5t74.5 -207.5q31 -72 72.5 -134.5t89 -100.5t93.5 -38v-61q-190 -121 -242 -121q-24 0 -56 43.5t-67.5 114.5t-69.5 155.5t-61.5 167.5t-44 150.5t-16.5 103.5l-10 -4v-416q0 -75 16 -108t68 -33v-63l-420 -177l-33 66
q45 0 86 53q37 50 37 156v1061q0 125 -84 141v45l207 117q45 -19 84 -61t39 -76v-609q36 0 79 16t74 40.5t31 48.5v266q0 76 -16.5 108.5t-67.5 32.5v64l420 176l33 -66q-45 0 -86 -53q-37 -50 -37 -155z" />
    <glyph glyph-name="L" unicode="L" horiz-adv-x="753" 
d="M102 309v889q0 76 -16.5 108.5t-67.5 32.5v64l420 176l33 -66q-45 0 -86 -53q-37 -50 -37 -155v-838q0 -165 28 -197q49 -61 97 -73q106 -25 239 -25v-57q-270 -115 -310 -115q-39 0 -103 34q-44 23 -89.5 64.5t-76.5 96t-31 114.5z" />
    <glyph glyph-name="M" unicode="M" horiz-adv-x="1310" 
d="M103 209v1034q0 68 -28.5 117t-71.5 49v45q14 2 223 125q7 -2 16 -4.5t19 -6.5q20 -7 54 -40t34 -76q12 6 69 39q152 86 188 86t80 -37t66 -88q2 1 23 12t61 31q160 82 193 82q44 0 85 -41t68 -98t27 -105v-1030q0 -114 100 -133v-45l-223 -125q-45 18 -84 60t-39 79
v1004q0 123 -40 171t-144 52v-1063q0 -114 100 -133v-45l-223 -125q-45 18 -84 60t-39 79v1004q0 129 -38 176t-146 47v-1051q0 -75 16 -108t68 -33v-63l-420 -177l-33 66q45 0 86 53q37 50 37 156z" />
    <glyph glyph-name="N" unicode="N" horiz-adv-x="880" 
d="M103 233v1010q0 68 -28.5 117t-71.5 49v45q14 2 223 125q7 -2 16 -4.5t19 -6.5q20 -7 54 -40t34 -76q12 6 69 39q152 86 180 86q44 0 85.5 -41t68.5 -98t27 -105v-1030q0 -114 100 -133v-45l-223 -125q-45 18 -84 60t-39 79v1004q0 129 -38 176t-146 47v-1051
q0 -82 20.5 -111.5t63.5 -29.5v-63l-420 -177l-33 66q41 0 80 49q43 56 43 184z" />
    <glyph glyph-name="O" unicode="O" horiz-adv-x="882" 
d="M102 299v1090q0 6 46.5 26.5t116.5 47.5t142.5 53.5t127.5 43.5t69 17q18 0 47 -23.5t58.5 -60.5t50 -77.5t20.5 -74.5v-1151q0 -6 -44.5 -27t-111.5 -48.5t-138.5 -53.5t-128 -43.5t-76.5 -17.5q-33 0 -75 40.5t-73 108.5t-31 150zM452 188q40 0 80 33v1014
q0 151 -104 151q-41 0 -80 -30v-1016q0 -152 104 -152z" />
    <glyph glyph-name="P" unicode="P" horiz-adv-x="862" 
d="M349 1436q226 137 258 137q16 0 44.5 -23.5t58.5 -60.5t50.5 -77.5t20.5 -74.5v-637q0 -7 -46.5 -29t-116.5 -50.5t-143 -55t-126 -43.5v-207q0 -75 16 -108t68 -33v-63l-420 -177l-33 66q45 0 86 53q37 50 37 156v1061q0 125 -84 141v45l207 117q41 -17 82 -60t41 -77z
M429 1376q-36 0 -80 -30v-728q36 0 79 16t74 40.5t31 48.5v502q0 151 -104 151z" />
    <glyph glyph-name="Q" unicode="Q" horiz-adv-x="882" 
d="M102 299v1090q0 6 46.5 26.5t116.5 47.5t142.5 53.5t127.5 43.5t69 17q18 0 47 -23.5t58.5 -60.5t50 -77.5t20.5 -74.5v-1151q0 -17 -166 -81q129 -275 281 -275v-59q-183 -123 -242 -123q-82 0 -246 381q-91 -33 -121 -33q-36 0 -79 40.5t-74 108.5t-31 150zM452 188
q40 0 80 33v1014q0 151 -104 151q-41 0 -80 -30v-1016q0 -152 104 -152z" />
    <glyph glyph-name="R" unicode="R" horiz-adv-x="884" 
d="M103 209v1061q0 125 -84 141v45l207 117q41 -17 82 -60t41 -77q226 137 258 137q16 0 44.5 -23.5t58.5 -60.5t50.5 -77.5t20.5 -74.5v-575q0 -17 -223 -105q95 -318 221 -428q58 -47 116 -47v-61q-190 -121 -241 -121q-27 0 -63 49.5t-73 126t-69 160t-53.5 152.5
t-24.5 102l-22 -6v-269q0 -75 16 -108t68 -33v-63l-420 -177l-33 66q45 0 86 53q37 50 37 156zM429 1376q-36 0 -80 -30v-666q36 0 79 16t74 40t31 48v441q0 151 -104 151z" />
    <glyph glyph-name="S" unicode="S" horiz-adv-x="870" 
d="M227 653q-52 0 -88.5 78t-36.5 191v426q0 15 42.5 43t107 59.5t131.5 60.5t117.5 47.5t63.5 18.5q25 0 70 -82q5 -10 12.5 -24t17.5 -31t17.5 -32t13.5 -26q27 -49 68 -49v-41q-16 -7 -38 -18l-50 -25q-130 -71 -139 -71q-31 0 -77 121q-46 120 -75 120q-37 0 -37 -61
v-457q0 -82 37 -82q9 0 127 54q120 53 144 53q50 0 87 -79q37 -78 37 -202v-436q0 -16 -46.5 -43.5t-117 -59.5t-143.5 -60.5t-127.5 -47t-68.5 -18.5q-22 0 -43 28.5t-40.5 71t-38.5 85t-38 71t-39 28.5v41q17 7 38.5 18t47.5 25q131 72 141 72q31 0 88 -141
q55 -142 84 -142q21 0 39.5 16.5t18.5 45.5v460q0 93 -51 93q-18 0 -129 -49q-114 -50 -127 -50z" />
    <glyph glyph-name="T" unicode="T" horiz-adv-x="747" 
d="M251 209v1085l63 62h-129q-124 0 -141 -68h-45l-117 168q25 39 63.5 69.5t75.5 30.5h541q124 0 141 68h45l117 -168q-25 -39 -63.5 -69.5t-75.5 -30.5h-230v-1041q0 -75 16.5 -108t67.5 -33v-63l-419 -177l-33 66q45 0 86 53q37 50 37 156z" />
    <glyph glyph-name="U" unicode="U" horiz-adv-x="880" 
d="M532 213v985q0 76 -16 108.5t-68 32.5v64l420 176l33 -66q-45 0 -86 -53q-37 -50 -37 -155v-969q0 -68 29 -117t72 -49v-45q-15 -1 -224 -125q-7 2 -15.5 4.5t-18.5 6.5q-21 7 -55 40t-34 76q-12 -6 -69 -39q-152 -86 -180 -86q-44 0 -85.5 40.5t-68.5 97.5t-27 106v1030
q0 114 -100 133v45l223 125q45 -18 84 -60t39 -79v-1004q0 -129 38 -176t146 -47z" />
    <glyph glyph-name="V" unicode="V" horiz-adv-x="882" 
d="M348 274q0 -50 29 -85q30 -37 64.5 -35t90.5 30v1014q0 76 -15 108.5t-66 32.5v64l419 176l33 -66q-45 0 -84 -53q-39 -51 -39 -155v-1115q0 -7 -43 -28.5t-109 -48.5t-137 -53t-129 -43t-83 -17q-42 0 -83 46.5t-67.5 109t-26.5 110.5v1010q0 114 -100 133v45l223 125
q45 -18 84 -60t39 -79v-1166z" />
    <glyph glyph-name="W" unicode="W" horiz-adv-x="1312" 
d="M532 217v1059q0 114 -100 133v45q221 123 223 123q13 0 40 -19t52 -47.5t31 -58.5q2 2 39.5 21t85.5 43.5t85 42.5t38 18q41 0 90 -49q94 -94 94 -252v-1086q0 -7 -43 -28.5t-109 -48.5t-136 -53t-126 -43t-77 -17q-96 0 -160 127q-224 -127 -284 -127q-40 0 -80 41.5
t-66.5 99.5t-26.5 107v1028q0 114 -100 133v45l223 125q45 -18 84 -60t39 -77v-1043q0 -194 121 -194q32 0 63 12zM780 379q0 -65 26 -122q23 -51 65.5 -55.5t91.5 17.5v983q0 107 -43.5 142.5t-139.5 37.5v-1003z" />
    <glyph glyph-name="X" unicode="X" horiz-adv-x="933" 
d="M45 1409v43l213 125h80l223 -664l45 21v346q0 59 -20.5 93t-40.5 40l-23 4v45l197 117q11 0 40.5 -22t56 -52.5t26.5 -58.5v-504q0 -35 -250 -125l201 -604q10 -29 39.5 -36t89.5 -7v-45l-224 -125h-90l-237 717l-43 -21v-397q0 -59 20.5 -93t40.5 -38l23 -6v-45
l-197 -117q-10 0 -40 22t-56.5 53t-26.5 58v555q0 17 84 57q42 20 82.5 37t79.5 31l-176 530q-16 47 -45.5 56.5t-71.5 9.5z" />
    <glyph glyph-name="Y" unicode="Y" horiz-adv-x="811" 
d="M-77 1409v43l213 125h80l235 -739l33 14v428q0 59 -20.5 93t-40.5 40l-23 4v45l197 117q11 0 40.5 -22t56 -52.5t26.5 -58.5v-586q0 -34 -230 -117v-385q0 -67 15.5 -92.5t66.5 -25.5v-58l-418 -182l-32 66q88 19 108 98q15 56 15 133v432l-205 614q-16 47 -45.5 56.5
t-71.5 9.5z" />
    <glyph glyph-name="Z" unicode="Z" horiz-adv-x="757" 
d="M737 1358l-465 -1157h162q125 0 141 67h45l117 -168q-25 -39 -64 -69.5t-75 -30.5h-537q-41 126 -41 195l492 1161h-189q-124 0 -141 -68h-45l-117 168q25 39 63.5 69.5t75.5 30.5h275q124 0 141 68h45q15 -19 34.5 -58.5t38.5 -83.5t31.5 -79t12.5 -45z" />
    <glyph glyph-name="bracketleft" unicode="[" horiz-adv-x="452" 
d="M102 43v1395q0 37 30.5 71.5t61.5 51.5l31 16l227 -96v-45q-47 -11 -96 -56t-49 -106v-1067q0 -62 49 -107t96 -55v-45l-227 -96q-45 18 -84 60t-39 79z" />
    <glyph glyph-name="backslash" unicode="\" horiz-adv-x="368" 
d="M-3 1413l510 -1491h-45l-154 78l-512 1493h51z" />
    <glyph glyph-name="bracketright" unicode="]" horiz-adv-x="452" 
d="M352 1438v-1395q0 -37 -30.5 -71.5t-61.5 -51.5l-31 -16l-227 96v45q47 10 96 55t49 107v1067q0 61 -49 106t-96 56v45l227 96q45 -18 84 -60t39 -79z" />
    <glyph glyph-name="asciicircum" unicode="^" horiz-adv-x="770" 
d="M497 1620q32 -27 71 -63t76 -73t60.5 -65t23.5 -39q0 -22 -6 -45q-12 -43 -27 -43q-24 0 -119 63q-93 60 -192 140q-97 -79 -191 -140q-96 -63 -120 -63q-15 0 -24 33t-9 49q0 15 18 36q17 20 45.5 49.5t57.5 56.5q43 40 71.5 66.5t42.5 40.5q19 20 62 26t88.5 -1.5
t71.5 -27.5z" />
    <glyph glyph-name="underscore" unicode="_" horiz-adv-x="798" 
d="M61 -115l123 117h553v-49l-123 -113h-553v45z" />
    <glyph glyph-name="grave" unicode="`" horiz-adv-x="370" 
d="M228 1630q17 -28 34.5 -61t33.5 -72q26 -61 31 -94t-4 -68q-13 -43 -27 -43q-51 0 -72 25q-184 236 -184 295q0 39 88 39t100 -21z" />
    <glyph glyph-name="a" unicode="a" horiz-adv-x="839" 
d="M737 897v-580q0 -75 24.5 -105t75.5 -42v-45l-223 -125q-45 18 -84 60t-39 77l-256 -137q-3 2 -7.5 4.5t-10.5 6.5q-13 7 -42.5 31t-52.5 50q-61 67 -61 154v336q0 22 50.5 53t124.5 62t144 53l109 34q0 78 -26 123.5t-90.5 65.5t-182.5 20v62q315 112 356 112
q46 0 89.5 -41.5t72.5 -103.5t29 -125zM307 319q0 -52 32 -86t71 -33.5t81 29.5v463q-51 -18 -76.5 -30.5t-54.5 -38.5q-53 -50 -53 -170v-134z" />
    <glyph glyph-name="b" unicode="b" horiz-adv-x="880" 
d="M780 190q0 -8 -44.5 -29.5t-112.5 -49t-140.5 -53t-129.5 -42t-77 -16.5q-34 0 -74.5 43.5t-70 112t-29.5 143.5v854q0 55 -18.5 78.5t-63.5 23.5v58q133 70 252 135.5t223 126.5l33 -66q-21 -10 -57.5 -39.5t-61.5 -60.5q-61 -77 -61 -176v-174q212 108 245 108
q36 0 80 -39.5t75.5 -99.5t31.5 -123v-715zM348 973v-604q0 -181 94 -181q50 0 90 33v512q0 201 -74 228q-34 12 -110 12z" />
    <glyph glyph-name="c" unicode="c" horiz-adv-x="827" 
d="M385 969q-20 0 -37 -21v-565q0 -157 135 -195q68 -16 166 -16v-59q-337 -113 -359 -113q-40 0 -84 40.5t-74 106.5t-30 144v688q0 6 46.5 26.5t117 47.5t143.5 53.5t128 43.5t69 17q9 0 20.5 -33t23.5 -80t23 -89q21 -84 44.5 -124t89.5 -40v-41q-23 -10 -61.5 -28.5
t-91.5 -44.5q-107 -52 -116 -52q-30 0 -77 167q-48 167 -76 167z" />
    <glyph glyph-name="d" unicode="d" horiz-adv-x="880" 
d="M487 1577q22 0 58 -52t76.5 -133t76.5 -170.5t59 -166t23 -117.5v-625q0 -47 25.5 -92t72.5 -51v-45q-14 -2 -223 -125q-47 20 -85 60t-38 75q-219 -135 -256 -135q-13 0 -54 32q-40 32 -80 92t-40 124v731q0 20 346 141q-73 160 -119 228q-45 65 -88 65h-67v62
q227 102 313 102zM452 188q40 0 80 33v713q0 8 -8.5 30.5t-18.5 42t-16 19.5q-60 0 -121 -37l-20 -12v-637q0 -152 104 -152z" />
    <glyph glyph-name="e" unicode="e" horiz-adv-x="870" 
d="M604 1167q11 0 51 -31q41 -31 82 -88t41 -110v-344q0 -37 -108 -90q-55 -27 -125 -55t-126 -47t-69 -19q0 -157 137 -195q65 -16 162 -16v-59q-337 -113 -359 -113q-40 0 -84 40.5t-74 106.5t-30 144v688q0 6 46.5 26.5t116.5 47.5t142.5 53.5t127.5 43.5t69 17zM532 842
q0 56 -26 97q-27 40 -68.5 40t-89.5 -31v-473q184 51 184 221v146z" />
    <glyph glyph-name="f" unicode="f" horiz-adv-x="655" 
d="M-22 999l125 56v291q0 15 41.5 43t104 59.5t129 60.5t118.5 47.5t70 18.5q16 0 26.5 -15.5t16.5 -27.5l18 -39l29 -51q27 -49 67 -49v-41q-16 -7 -38 -18.5t-50 -26.5q-128 -70 -139 -70q-30 0 -56 90q-25 90 -54 90q-37 0 -37 -61v-301h209v-49l-103 -52h-106v-651
q0 -124 84 -141v-45l-207 -117q-45 18 -84 60t-39 79v815h-125v45z" />
    <glyph glyph-name="g" unicode="g" horiz-adv-x="882" 
d="M102 977q0 8 44.5 29.5t112.5 49t140.5 53t129.5 42t77 16.5q34 0 74.5 -43.5t70 -111.5t29.5 -144v-651q0 -77 -69 -223q-27 -56 -63 -119t-73.5 -118.5t-69 -90.5t-49.5 -35q-34 0 -85.5 14.5t-104.5 36.5t-94 42l-60 30v62h70q54 0 119 41t127 116.5t106 176.5
q-230 -109 -266 -109q-42 0 -80 38t-62 98t-24 126v674zM534 236v563q0 180 -94 180q-49 0 -90 -33v-471q0 -143 45 -191t139 -48z" />
    <glyph glyph-name="h" unicode="h" horiz-adv-x="880" 
d="M102 139v1014q0 55 -18.5 78.5t-63.5 23.5v58q133 70 252 135.5t223 126.5l33 -66q-21 -10 -57.5 -39.5t-61.5 -60.5q-61 -77 -61 -176v-174q212 108 245 108q44 0 86.5 -38t70.5 -98t28 -126v-602q0 -114 100 -133v-45l-223 -125q-45 18 -84 60t-39 79v594
q0 201 -74 228q-34 12 -110 12v-670q0 -124 84 -141v-45l-207 -117q-45 18 -84 60t-39 79z" />
    <glyph glyph-name="i" unicode="i" horiz-adv-x="450" 
d="M71 1423v125q0 3 25.5 14t60 24t63 22.5t35.5 9.5q14 0 39 -35t25 -72v-149q0 -3 -24.5 -14t-57.5 -24t-62 -22.5t-38 -9.5q-24 0 -45 41t-21 90zM348 1028v-725q0 -124 84 -141v-45l-207 -117q-45 18 -84 60t-39 79v725q0 126 -84 142v45l207 116q45 -18 84 -60t39 -79z
" />
    <glyph glyph-name="j" unicode="j" horiz-adv-x="450" 
d="M72 1378v125q0 3 25.5 14t59.5 24t63 22.5t35 9.5q13 0 39 -35t26 -72v-149q0 -3 -24.5 -14t-57.5 -24t-62 -22.5t-38 -9.5q-24 0 -45 41t-21 90zM103 231v633q0 126 -84 142v45l206 116q46 -18 84.5 -60t38.5 -79v-811q0 -160 -18 -298q-9 -72 -24.5 -138t-34.5 -108
t-41 -42q-34 0 -83 14.5t-98.5 36.5t-87.5 42l-55 30v62h70q71 0 99 94q28 93 28 321z" />
    <glyph glyph-name="k" unicode="k" horiz-adv-x="880" 
d="M348 532v-229q0 -124 84 -141v-45l-207 -117q-45 18 -84 60t-39 79v1014q0 55 -18.5 78.5t-63.5 23.5v58q133 70 252 135.5t223 126.5l33 -66q-21 -10 -57.5 -39.5t-61.5 -60.5q-61 -77 -61 -176v-189q191 123 225 123q38 0 84 -34.5t79.5 -89.5t33.5 -117v-224
q0 -21 -213 -104q129 -342 251 -393q36 -18 86 -23v-59q-190 -123 -239 -123q-26 0 -60 37.5t-71 98.5t-71 132.5t-61.5 141t-43.5 122.5zM413 969l-65 -11v-325q41 0 147 51l37 18v93q0 174 -119 174z" />
    <glyph glyph-name="l" unicode="l" horiz-adv-x="450" 
d="M348 1436v-1133q0 -124 84 -141v-45l-207 -117q-45 18 -84 60t-39 79v1133q0 125 -84 141v45l207 117q45 -19 84 -60.5t39 -78.5z" />
    <glyph glyph-name="m" unicode="m" horiz-adv-x="1310" 
d="M102 139v695q0 67 -28.5 116t-71.5 49v45q14 3 223 125q8 -2 17 -4.5t19 -6.5q20 -7 53.5 -40t33.5 -76q15 9 70 39q152 86 187 86q36 0 80 -36.5t67 -88.5q2 1 23 12t61 31q158 82 192 82q44 0 85.5 -41t68 -97.5t26.5 -104.5v-621q0 -113 101 -133v-45l-224 -125
q-45 18 -83.5 60t-38.5 79v604q0 134 -35 178t-90 44l-60 -13v-649q0 -113 101 -133v-45l-224 -125q-45 18 -84 60t-39 79v594q0 236 -112 236l-72 -13v-653q0 -124 84 -141v-45l-207 -117q-45 18 -84 60t-39 79z" />
    <glyph glyph-name="n" unicode="n" horiz-adv-x="880" 
d="M102 139v695q0 67 -28.5 116t-71.5 49v45q14 3 223 125q8 -2 17 -4.5t19 -6.5q20 -7 53.5 -40t33.5 -76q15 9 70 39q152 86 180 86q44 0 85.5 -41t68 -97.5t26.5 -104.5v-621q0 -113 101 -133v-45l-224 -125q-45 18 -84 60t-39 79v594q0 115 -25.5 175.5t-90.5 60.5
l-68 -13v-653q0 -124 84 -141v-45l-207 -117q-45 18 -84 60t-39 79z" />
    <glyph glyph-name="o" unicode="o" horiz-adv-x="882" 
d="M102 299v680q0 6 46.5 26.5t116.5 47.5t142.5 53.5t127.5 43.5t69 17q18 0 47 -23.5t58.5 -60.5t50 -77.5t20.5 -73.5v-742q0 -6 -44.5 -27t-111.5 -48.5t-138.5 -53.5t-128 -43.5t-76.5 -17.5q-33 0 -75 40.5t-73 108.5t-31 150zM452 188q40 0 80 33v604q0 152 -104 152
q-42 0 -80 -31v-606q0 -152 104 -152z" />
    <glyph glyph-name="p" unicode="p" horiz-adv-x="880" 
d="M102 -225v1077q0 47 -25.5 92t-72.5 51v45q14 2 223 125q47 -20 85 -60t38 -75q219 135 256 135q14 0 54 -31t80 -92t40 -124v-730q0 -6 -35 -23t-90 -39.5t-115 -45t-112 -40.5t-80 -26v-75q0 -125 84 -142v-45l-207 -117q-45 19 -84 61t-39 79zM430 977q-39 0 -80 -33
v-813q36 0 79 16.5t74 41.5t31 51v585q0 152 -104 152z" />
    <glyph glyph-name="q" unicode="q" horiz-adv-x="882" 
d="M102 977q0 8 44.5 29.5t112.5 49t140.5 53t129.5 42t77 16.5q34 0 74.5 -43.5t70 -111.5t29.5 -144v-895q0 -55 18.5 -78.5t63.5 -23.5v-57q-415 -183 -418 -183l-33 66q17 0 40.5 14.5t39.5 32.5q43 49 43 150v256q-230 -109 -266 -109q-42 0 -80 38t-62 98t-24 126v674
zM534 236v563q0 180 -94 180q-49 0 -90 -33v-471q0 -143 45 -191t139 -48z" />
    <glyph glyph-name="r" unicode="r" horiz-adv-x="778" 
d="M2 999v45l225 123q8 -2 16.5 -4.5t18.5 -6.5q20 -7 53 -40t33 -74q7 3 97 65q87 60 112 60q44 0 85.5 -41t68 -97.5t26.5 -104.5v-101l-211 -118l-35 28q0 171 -32 197q-38 26 -111 26v-653q0 -124 84 -141v-45l-207 -117q-45 18 -84 60t-39 79v680q0 90 -31.5 135
t-68.5 45z" />
    <glyph glyph-name="s" unicode="s" horiz-adv-x="829" 
d="M196 449q-51 0 -88 77.5t-37 190.5v221q0 16 42.5 43.5t107 59.5t131.5 60.5t118 47t64 18.5q18 0 32.5 -21.5t22.5 -34.5q11 -18 26 -46t30 -51q25 -49 67 -49v-41q-16 -7 -38 -18t-48 -25q-130 -72 -141 -72q-31 0 -67 101q-36 100 -64 100q-37 0 -37 -62v-252
q0 -82 37 -82q9 0 127 54q120 53 143 53q50 0 87 -79q38 -81 38 -202v-231q0 -16 -46.5 -43.5t-117 -59.5t-143.5 -60.5t-128 -47t-69 -18.5t-27 26q-16 31 -38 80t-45 88q-27 49 -68 49v41q17 8 38.5 18.5t49.5 24.5q129 72 139 72q31 0 77 -121t75 -121q20 0 38.5 16.5
t18.5 45.5v256q0 92 -51 92q-18 0 -129 -49t-127 -49z" />
    <glyph glyph-name="t" unicode="t" horiz-adv-x="450" 
d="M290 1380h58v-243h104l-20 -101h-84v-733q0 -124 84 -141v-45l-207 -117q-45 18 -84 60t-39 79v895h-84l20 86q42 0 97 39t100 99t55 122z" />
    <glyph glyph-name="u" unicode="u" horiz-adv-x="880" 
d="M348 319q0 -52 32 -86q63 -66 152 -4v637q0 126 -84 142v45l207 116q45 -18 84 -60t39 -79v-694q0 -68 29 -117t72 -49v-45q-15 -1 -224 -125q-47 20 -85 60t-38 77l-256 -137q-3 2 -7.5 4.5t-10.5 6.5q-12 7 -42 31t-52 50q-62 68 -62 154v620q0 114 -100 133v45
l223 125q45 -18 84 -60t39 -79v-711z" />
    <glyph glyph-name="v" unicode="v" horiz-adv-x="880" 
d="M780 887v-697q0 -7 -43 -28.5t-109 -48.5t-137 -53t-129 -43t-83 -17q-42 0 -83 46.5t-67.5 109t-26.5 110.5v600q0 114 -100 133v45l223 125q45 -18 81 -57t42 -70l250 125q41 0 83 -41t70.5 -105t28.5 -134zM348 274q0 -50 29 -85q30 -37 64.5 -35t90.5 30v580
q0 88 -16 132.5t-56 60.5t-112 16v-699z" />
    <glyph glyph-name="w" unicode="w" horiz-adv-x="1312" 
d="M532 217v649q0 114 -100 133v45q221 123 223 123q13 0 40 -19t52 -47.5t31 -58.5q2 3 39.5 22t85.5 43t85 42t38 18q41 0 90 -49q94 -94 94 -252v-676q0 -7 -43 -28.5t-109 -48.5t-136 -53t-126 -43t-77 -17q-96 0 -160 127q-224 -127 -284 -127q-40 0 -80 41.5
t-66.5 99.5t-26.5 107v618q0 114 -100 133v45l223 125q45 -18 84 -60t39 -77v-633q0 -194 121 -194q32 0 63 12zM780 379q0 -65 26 -122q23 -51 65.5 -55.5t91.5 17.5v574q0 106 -43.5 142t-139.5 38v-594z" />
    <glyph glyph-name="x" unicode="x" horiz-adv-x="892" 
d="M24 999v43l213 125h57l240 -483l51 25v161q0 60 -20.5 93.5t-40.5 40.5l-23 4v45l197 116q11 0 40.5 -22t56 -52.5t26.5 -58.5v-319q0 -34 -238 -119l207 -385q27 -43 111 -43v-45l-224 -125h-57l-258 518l-55 -26v-193q0 -59 20.5 -93t40.5 -38l23 -6v-45l-197 -117
q-10 0 -40 22t-56.5 53t-26.5 58v350q0 33 244 123l-160 326q-21 47 -54.5 57t-76.5 10z" />
    <glyph glyph-name="y" unicode="y" horiz-adv-x="882" 
d="M780 1030v-813q0 -77 -69 -223q-27 -56 -63 -119t-73 -118.5t-68.5 -90.5t-49.5 -35q-34 0 -85.5 14.5t-105 36.5t-94.5 42l-59 30v62h69q54 0 119 41t127 116.5t106 176.5q-230 -109 -266 -109q-42 0 -79.5 38t-61 98t-23.5 126v563q0 114 -100 133v45l223 125
q45 -18 84 -60t39 -79v-555q0 -143 45 -191t139 -48v630q0 126 -84 142v45l207 116q45 -18 84 -60t39 -79z" />
    <glyph glyph-name="z" unicode="z" horiz-adv-x="757" 
d="M737 950l-465 -749h162q125 0 141 67h45l117 -168q-25 -39 -64 -69.5t-75 -30.5h-537q-41 126 -41 195l481 753h-178q-125 0 -141 -67h-45l-117 168q25 38 63.5 69t75.5 31h275q124 0 141 68h45q15 -19 34.5 -58.5t38.5 -84t31.5 -79t12.5 -45.5z" />
    <glyph glyph-name="braceleft" unicode="{" horiz-adv-x="452" 
d="M307 614v-403q0 -40 23.5 -74.5t57.5 -57.5t65 -30v-45l-228 -96q-45 18 -84 60t-39 79v498q0 61 -49 106t-96 56v45q47 10 96 55t49 106v525q0 37 31 71.5t62 51.5l30 16l228 -96v-45q-47 -11 -96.5 -56t-49.5 -106v-428q0 -60 -82 -117q82 -57 82 -115z" />
    <glyph glyph-name="bar" unicode="|" horiz-adv-x="368" 
d="M266 -223l-119 -123h-45v1778l115 122h49v-1777z" />
    <glyph glyph-name="braceright" unicode="}" horiz-adv-x="452" 
d="M143 211v403q0 58 82 115q-82 57 -82 117v428q0 61 -49 106t-96 56v45l227 96q45 -18 84 -60t39 -79v-525q0 -61 49.5 -106t96.5 -55v-45q-47 -11 -96.5 -56t-49.5 -106v-498q0 -37 -30.5 -71.5t-61.5 -51.5l-31 -16l-227 96v45q47 10 96 55.5t49 106.5z" />
    <glyph glyph-name="asciitilde" unicode="~" horiz-adv-x="757" 
d="M577 1290q-44 0 -94.5 15t-100 30t-92.5 15q-49 0 -84 -16.5t-45 -39.5h-43l-78 150q63 82 129 82q46 0 105 -14t113.5 -28t84.5 -14q104 0 123 52h41l80 -150q-64 -82 -139 -82z" />
    <glyph glyph-name="uni00A0" unicode="&#xa0;" horiz-adv-x="532" 
 />
    <glyph glyph-name="guillemotleft" unicode="&#xab;" horiz-adv-x="1230" 
d="M546 385l29 -145l-25 -43l-510 309l16 61l-16 62l510 309l25 -43l-29 -139l-342 -189zM1119 385l29 -145l-25 -43l-510 309l17 61l-17 62l510 309l25 -43l-29 -139l-342 -189z" />
    <glyph glyph-name="guillemotright" unicode="&#xbb;" horiz-adv-x="1230" 
d="M616 629l-17 -62l17 -61l-510 -309l-25 43l29 145l342 182l-342 189l-29 139l25 43zM1189 629l-16 -62l16 -61l-510 -309l-25 43l29 145l342 182l-342 189l-29 139l25 43z" />
    <glyph glyph-name="uni1780" unicode="&#x1780;" 
d="M294 1000q-30 53 -79 78q-43 22 -101 22h-14l200 400h310q40 0 40 -100q64 100 110 100h290q0 -120 -26 -207q-27 -86 -110 -142q22 82 26 115v5q0 29 -38 29h-182q-59 0 -130 -120q10 39 10 67q0 53 -40 53h-262l-24 -50q66 -27 120 -75q29 -26 29 -54q0 -24 -21 -50
q-47 -56 -108 -71zM400 800v-650l-200 -200v850q0 100 175 200t225 100t159 -63q241 -136 241 -237v-650l-200 -200v800q0 35 -138 114q-139 79 -176 79t-61 -15q-25 -13 -25 -128z" />
    <glyph glyph-name="uni1781" unicode="&#x1781;" 
d="M800 300v250l200 200v-450q0 -100 -175 -200t-225 -100q-49 0 -159 63q-241 136 -241 237v330q200 0 400 140t200 230v150q0 35 -138 114q-139 79 -176 79t-61 -15q-25 -13 -25 -128h40q160 0 160 -105t-150 -200q-151 -95 -205 -95q-45 0 -45 80v320q0 100 175 200
t225 100t159 -63q241 -136 241 -237v-200q0 -90 -300 -290l-300 -200v-160q0 -34 138 -114q139 -79 176 -79t61 15q25 13 25 128zM434 1090h-34v-85q68 38 68 57q0 28 -34 28z" />
    <glyph glyph-name="uni1782" unicode="&#x1782;" 
d="M294 1000q-30 53 -79 78q-43 22 -101 22h-14l200 400h310q40 0 40 -100q64 100 110 100h290q0 -120 -26 -207q-27 -86 -110 -142q22 82 26 115v5q0 29 -38 29h-182q-59 0 -130 -120q10 39 10 67q0 53 -40 53h-262l-24 -50q66 -27 120 -75q29 -26 29 -54q0 -24 -21 -50
q-47 -56 -108 -71zM281 38q-32 -38 -56 -38q-25 0 -25 40v760q0 100 175 200t225 100t159 -63q241 -136 241 -237v-650l-200 -200v800q0 35 -138 114q-139 79 -176 79t-61 -15q-25 -13 -25 -128v-451q64 151 162 151q42 0 91 -35q47 -36 47 -100q0 -65 -100 -110
q-18 45 -75 45q-28 0 -59 -37z" />
    <glyph glyph-name="uni1783" unicode="&#x1783;" horiz-adv-x="1800" 
d="M400 900v-490q0 -39 -20 -61q0 -32 144 -112q151 -80 188 -80q38 0 62 15q26 14 26 128v560q0 61 -142 80q-48 6 -48 46q0 41 25 100l165 414h300q0 -120 -26 -207q-27 -85 -90 -123q16 60 16 96q0 34 -50 34h-133l-69 -173q125 -22 189 -74q63 -49 63 -129v-606
q35 -32 124 -81q151 -80 188 -80q38 0 62 15q26 14 26 128v560q0 61 -142 80q-48 6 -48 46q0 41 25 100l165 414h300q0 -120 -26 -207q-27 -85 -90 -123q16 60 16 96q0 34 -50 34h-133l-69 -173q125 -22 189 -74q63 -49 63 -129v-624q0 -99 -179 -200q-179 -100 -231 -100
q-50 0 -163 63q-78 44 -132 84q-33 -25 -74 -47q-179 -100 -231 -100q-50 0 -163 63q-123 69 -185 128t-94 154q32 14 42 34.5t10 50.5v640q146 14 193 71q47 56 47 113q0 43 -27.5 64.5t-62.5 21.5q-50 0 -50 -45q0 -44 60 -49v-1q0 -78 -120 -78h-9q-131 3 -131 133
q0 101 60 150q61 50 140 50q121 0 185 -70q65 -71 65 -170q0 -111 -40 -200q-41 -91 -110 -160z" />
    <glyph glyph-name="uni1784" unicode="&#x1784;" 
d="M872 1188q128 -104 128 -188v-850l-75 -75q-75 -75 -100 -75q-26 0 -93 82l-206 245l-241 -286q-35 -41 -60 -41t-25 40v470l-127 98q-43 31 -43 82q0 101 48 153l95 105q46 52 107 52q59 0 120 -60v-631l200 239l200 -239v691q0 75 -59 152q-10 -1 -20 -1.5t-21 -0.5
h-200q-159 0 -200 -50q-100 30 -100 100v470q0 40 -24 40q-23 0 -76 -30q100 220 180 220q120 0 120 -230v-370h216q-16 28 -16 49q0 71 50 121t150 50q101 0 150 -60q49 -59 49 -122v-1q0 -62 -86 -124q-10 -7 -20 -13.5t-21 -11.5zM729 1300q62 1 75 13q5 5 5 12
q0 12 -13 29q-39 51 -67 51q-21 0 -34 -25q-6 -7 -6 -16q0 -24 40 -64zM200 711l-40 -42l40 -31v73z" />
    <glyph glyph-name="uni1785" unicode="&#x1785;" 
d="M519 1300h-302l-49 -133q104 -22 169 -73q63 -51 63 -130v-554q0 -39 -20 -61q0 -32 144 -112q151 -80 188 -80q38 0 62 15q26 14 26 128v300h-30q-95 0 -132.5 39.5t-37.5 110.5q0 101 131 232q118 118 164 118q105 0 105 -100v-700q0 -99 -179 -200
q-179 -100 -231 -100q-50 0 -163 63q-123 69 -185 128t-94 154q32 14 42 34.5t10 50.5v470q0 60 -122 80q-48 6 -48 46q0 41 25 100l145 374h369q40 0 40 -100q64 100 110 100h320q0 -120 -26 -207q-27 -86 -110 -142q22 82 26 115v5q0 29 -38 29h-212q-59 0 -130 -120
q10 39 10 67q0 53 -40 53zM770 751h30v141q-70 -69 -70 -105t40 -36z" />
    <glyph glyph-name="uni1786" unicode="&#x1786;" 
d="M60 483l140 97v320q0 60 -122 80q-48 6 -48 46q0 41 25 100l145 374h369q40 0 40 -100q64 100 110 100h320q0 -120 -26 -207q-27 -86 -110 -142q22 82 26 115v5q0 29 -38 29h-212q-59 0 -130 -120q10 39 10 67q0 53 -40 53h-302l-49 -133q104 -22 169 -73q63 -51 63 -130
v-364q138 0 206 -62q69 -63 69 -188q0 -150 70 -150q55 0 55 100v300h-30q-48 0 -81 10q-33 11 -51 30q-38 40 -38 110q0 101 131 232q118 118 164 118q105 0 105 -100v-700q0 -151 -64 -225q-63 -75 -191 -75q-107 0 -161 88q-54 87 -54 262q0 75 -32 113q-33 37 -98 37
v-350l-112 -112q-38 -38 -63 -38t-25 35q0 82 -95 174t-95 191q0 50 50 83zM770 751h30v141q-70 -69 -70 -105t40 -36zM150 441l53 -62v105z" />
    <glyph glyph-name="uni1787" unicode="&#x1787;" 
d="M956 1279q-71 -83 -130 -83q-13 0 -25 4q14 32 18 66v5q0 29 -38 29h-564l-49 -133q104 -22 169 -73q63 -51 63 -130v-655l200 239l200 -239v591l200 200v-950l-75 -75q-75 -75 -100 -75q-26 0 -93 82l-206 245l-241 -286q-35 -41 -60 -41t-25 40v860q0 60 -122 80
q-48 6 -48 46q0 41 25 100l145 374h620q46 0 68 -30q22 -31 22 -92q30 22 41 52q3 11 3 21q0 18 -9 31q-24 39 -93 114q-112 121 -112 205q0 59 56 113q56 55 188 86q-79 -78 -79 -142q2 -46 68 -118q67 -73 67 -167q0 -34 -5 -71q-15 -147 -79 -223z" />
    <glyph glyph-name="uni1788" unicode="&#x1788;" horiz-adv-x="2400" 
d="M1495 147q-33 -25 -74 -47q-179 -100 -231 -100q-50 0 -163 63q-123 69 -185 128t-94 154q32 14 42 34.5t10 50.5v870h-583l-49 -133q104 -22 169 -73q63 -51 63 -130v-314h50q150 0 150 -150t-131 -281l-175 -175q-44 -44 -69 -44t-25 40v860q0 60 -122 80q-48 6 -48 46
q0 41 25 100l145 374h800v-1090q0 -39 -20 -61q0 -32 144 -112q151 -80 188 -80q38 0 62 15q26 14 26 128v560q0 61 -142 80q-48 6 -48 46q0 41 25 100l165 414h300q0 -120 -26 -207q-27 -85 -90 -123q16 60 16 96q0 34 -50 34h-133l-69 -173q125 -22 189 -74
q63 -49 63 -129v-606q35 -32 124 -81q151 -80 188 -80q38 0 62 15q26 14 26 128v560q0 61 -142 80q-48 6 -48 46q0 41 25 100l165 414h300q0 -120 -26 -207q-27 -85 -90 -123q16 60 16 96q0 34 -50 34h-133l-69 -173q125 -22 189 -74q63 -49 63 -129v-624q0 -99 -179 -200
q-179 -100 -231 -100q-50 0 -163 63q-78 44 -132 84zM450 500h-50v-191q90 89 90 150q0 41 -40 41z" />
    <glyph glyph-name="uni1789" unicode="&#x1789;" horiz-adv-x="1800" 
d="M1600 1500v-1350l-200 -200v1350h-120q-163 0 -280 -151v-999l-200 -200v1350h-100q-89 0 -208 -162l7 41q5 35 5 55q0 66 -44 66h-243l-49 -133q104 -22 169 -73q63 -51 63 -130v-314h50q150 0 150 -150t-131 -281l-175 -175q-44 -44 -69 -44t-25 40v860q0 60 -122 80
q-48 6 -48 46q0 41 25 100l145 374h300q70 0 70 -130q75 130 160 130h270v-200q146 200 310 200h290zM450 500h-50v-191q90 89 90 150q0 41 -40 41zM271 -379l-80 -90q-11 14 -11 32q0 50 77 142q107 125 283 125q177 0 438 -150t367 -150q105 0 105 45t-40 85
q-40 38 -140 40l150 150q180 -60 180 -180t-63 -180q-64 -60 -191 -60q-333 0 -551 123q-278 157 -342 157q-102 0 -182 -89z" />
    <glyph glyph-name="uni178A" unicode="&#x178a;" 
d="M799 1128q-142 -112 -302 -112q-67 0 -133 19q-234 63 -234 146q0 40 94 188q62 83 138 114q45 17 92 17q36 0 73 -9q90 -23 113 -65q8 -14 8 -31q0 -32 -28 -70q-46 -66 -140 -66q-38 0 -85 12q7 11 7 22q0 23 -36 32q-13 3 -25 3q-32 0 -52 -26q-3 -4 -3 -8
q0 -35 184 -81q83 -21 147 -21q100 0 161 49q61 48 61 114q0 44 -29 99q-70 131 -70 262q0 68 49 127q48 60 162 96q-68 -89 -68 -159q2 -39 59 -141q58 -103 58 -207q0 -146 -201 -304zM200 40v860h200v-591l200 239l200 -239v591l200 200v-950l-75 -75q-75 -75 -100 -75
q-26 0 -93 82l-206 245l-241 -286q-35 -41 -60 -41t-25 40z" />
    <glyph glyph-name="uni178B" unicode="&#x178b;" 
d="M1076 1279q-71 -83 -130 -83q-13 0 -25 4q14 32 18 66v5q0 29 -38 29h-84l-69 -173q125 -22 189 -74q63 -49 63 -129v-624q0 -99 -179 -200q-179 -100 -231 -100q-50 0 -163 63q-123 69 -185 128t-94 154q32 14 42 34.5t10 50.5v640q146 14 193 71q47 56 47 113
q0 43 -27.5 64.5t-62.5 21.5q-50 0 -50 -45q0 -44 60 -49v-1q0 -78 -120 -78h-9q-131 3 -131 133q0 101 60 150q61 50 140 50q121 0 185 -70q65 -71 65 -170q0 -111 -40 -200q-41 -91 -110 -160v-490q0 -39 -20 -61q0 -32 144 -112q151 -80 188 -80q38 0 62 15q26 14 26 128
v560q0 61 -142 80q-48 6 -48 46q0 41 25 100l165 414h140q46 0 68 -30q22 -31 22 -92q30 22 41 52q3 11 3 21q0 18 -9 31q-24 39 -93 114q-112 121 -112 205q0 59 56 113q56 55 188 86q-79 -78 -79 -142q2 -46 68 -118q67 -73 67 -167q0 -34 -5 -71q-15 -147 -79 -223z" />
    <glyph glyph-name="uni178C" unicode="&#x178c;" 
d="M1000 100l-199 -200v188l-42 -25q-109 -63 -159 -63t-225 100t-175 200v330q200 0 400 140t200 230v300h-60q-89 0 -208 -162l7 41q5 35 5 55q0 66 -44 66h-182q-18 -42 -18 -74q0 -27 15 -47q30 -41 213 -101q-40 -106 -130 -169q-112 24 -155 55t-43 174q0 141 50 252
l50 110h240q70 0 70 -130q75 130 160 130h230v-500q0 -90 -300 -290l-300 -200v-190q168 -188 262 -188q25 0 44 13l94 57v348l200 200v-650z" />
    <glyph glyph-name="uni178D" unicode="&#x178d;" horiz-adv-x="1800" 
d="M1400 300v560q0 61 -142 80q-48 6 -48 46q0 41 25 100l165 414h300q0 -120 -26 -207q-27 -85 -90 -123q16 60 16 96q0 34 -50 34h-133l-69 -173q125 -22 189 -74q63 -49 63 -129v-624q0 -151 -64 -225q-63 -75 -191 -75q-107 0 -161 88q-54 87 -54 262q0 75 -32 113
q-33 37 -98 37v-350l-112 -112q-38 -38 -63 -38t-25 35q0 82 -95 174t-95 191q0 50 50 83l140 97v720h-100q-89 0 -208 -162l7 41q5 35 5 55q0 66 -44 66h-243l-49 -133q104 -22 169 -73q63 -51 63 -130v-314h40q75 0 113 -32q37 -33 37 -98q0 -121 -127 -270l-170 -200
q-44 -50 -68 -50q-25 0 -25 40v860q0 60 -122 80q-48 6 -48 46q0 41 25 100l145 374h300q70 0 70 -130q75 130 160 130h270v-900q138 0 206 -62q69 -63 69 -188q0 -150 70 -150q55 0 55 100zM440 500h-40v-171q77 89 77 140q0 31 -37 31zM750 441l53 -62v105z" />
    <glyph glyph-name="uni178E" unicode="&#x178e;" horiz-adv-x="2400" 
d="M800 40v1260h-583l-49 -133q104 -22 169 -73q63 -51 63 -130v-314h50q150 0 150 -150t-131 -281l-175 -175q-44 -44 -69 -44t-25 40v860q0 60 -122 80q-48 6 -48 46q0 41 25 100l145 374h800v-1191l200 239l200 -239v591q0 60 -122 80q-48 6 -48 46q0 41 25 100l145 374
h800v-1350l-200 -200v1350h-583l-49 -133q104 -22 169 -73q63 -51 63 -130v-814l-75 -75q-75 -75 -100 -75q-26 0 -93 82l-206 245l-241 -286q-35 -41 -60 -41t-25 40zM450 500h-50v-191q90 89 90 150q0 41 -40 41z" />
    <glyph glyph-name="uni178F" unicode="&#x178f;" 
d="M294 1000q-30 53 -79 78q-43 22 -101 22h-14l200 400h310q40 0 40 -100q64 100 110 100h290q0 -120 -26 -207q-27 -86 -110 -142q22 82 26 115v5q0 29 -38 29h-182q-59 0 -130 -120q10 39 10 67q0 53 -40 53h-262l-24 -50q66 -27 120 -75q29 -26 29 -54q0 -24 -21 -50
q-47 -56 -108 -71zM225 0q-25 0 -25 40v760q0 100 175 200t225 100t159 -63q241 -136 241 -237v-650l-200 -200v800q0 35 -138 114q-139 79 -176 79t-61 -15q-25 -13 -25 -128v-250h50q76 0 113 -25q37 -24 37 -74q0 -101 -131 -232l-175 -175q-44 -44 -69 -44zM450 450h-50
v-141q90 89 90 115t-40 26z" />
    <glyph glyph-name="uni1790" unicode="&#x1790;" 
d="M956 1279q-71 -83 -130 -83q-13 0 -25 4q14 32 18 66v5q0 29 -38 29h-564l-49 -133q104 -22 169 -73q63 -51 63 -130v-554q0 -39 -20 -61q0 -32 144 -112q151 -80 188 -80q38 0 62 15q26 14 26 128v300h-30q-95 0 -132.5 39.5t-37.5 110.5q0 101 131 232q118 118 164 118
q105 0 105 -100v-700q0 -99 -179 -200q-179 -100 -231 -100q-50 0 -163 63q-123 69 -185 128t-94 154q32 14 42 34.5t10 50.5v470q0 60 -122 80q-48 6 -48 46q0 41 25 100l145 374h620q46 0 68 -30q22 -31 22 -92q30 22 41 52q3 11 3 21q0 18 -9 31q-24 39 -93 114
q-112 121 -112 205q0 59 56 113q56 55 188 86q-79 -78 -79 -142q2 -46 68 -118q67 -73 67 -167q0 -34 -5 -71q-15 -147 -79 -223zM770 751h30v141q-70 -69 -70 -105t40 -36z" />
    <glyph glyph-name="uni1791" unicode="&#x1791;" 
d="M179 930l-49 46q0 125 43 224l127 300h730q0 -121 -33 -216l-50 -142q-49 -142 -171 -142q-120 0 -329 126l172 129q92 -55 177 -55q83 0 106 50q6 14 6 25q0 25 -38 25h-553l-66 -163l87 -83q86 -85 251 -128l274 -75q23 -6 43 -6q73 0 124 73q0 -153 -77 -216
q-59 -49 -115 -49q-17 0 -32 4l-68 20l-207 57q-208 59 -352 196zM375 730q25 0 25 -50v-330q0 -34 138 -114q139 -79 176 -79t61 15q25 13 25 128v314q7 -1 13 -1h12q54 0 98 23q51 26 77 75v-411q0 -100 -175 -200t-225 -100q-49 0 -159 63q-241 136 -241 237v280l113 113
q37 37 62 37z" />
    <glyph glyph-name="uni1792" unicode="&#x1792;" 
d="M600 548l200 -239v291h-30q-95 0 -132.5 39.5t-37.5 110.5q0 101 131 232q118 118 164 118q105 0 105 -100v-850l-75 -75q-75 -75 -100 -75q-26 0 -93 82l-206 245l-241 -286q-35 -41 -60 -41t-25 40v860q0 60 -122 80q-48 6 -48 46q0 41 25 100l145 374h369
q40 0 40 -100q64 100 110 100h320q0 -120 -26 -207q-27 -86 -110 -142q22 82 26 115v5q0 29 -38 29h-212q-59 0 -130 -120q10 39 10 67q0 53 -40 53h-302l-49 -133q104 -22 169 -73q63 -51 63 -130v-655zM770 751h30v141q-70 -69 -70 -105t40 -36z" />
    <glyph glyph-name="uni1793" unicode="&#x1793;" 
d="M179 930l-49 46q0 125 43 224l127 300h730q0 -121 -33 -216l-50 -142q-49 -142 -171 -142q-120 0 -329 126l172 129q92 -55 177 -55q83 0 106 50q6 14 6 25q0 25 -38 25h-553l-66 -163l87 -83q86 -85 251 -128l274 -75q23 -6 43 -6q73 0 124 73q0 -153 -77 -216
q-59 -49 -115 -49q-17 0 -32 4l-68 20l-207 57q-208 59 -352 196zM200 40v540l113 113q37 37 62 37t25 -50v-371l200 239l200 -239v305q7 -1 13 -1h12q54 0 98 23q51 26 77 75v-561l-75 -75q-75 -75 -100 -75q-26 0 -93 82l-206 245l-241 -286q-35 -41 -60 -41t-25 40z" />
    <glyph glyph-name="uni1794" unicode="&#x1794;" 
d="M1000 924v-624q0 -99 -179 -200q-179 -100 -231 -100q-50 0 -163 63q-123 69 -185 128t-94 154q32 14 42 34.5t10 50.5v430q0 61 -142 80q-48 6 -48 46q0 41 25 100l165 414h300q0 -120 -26 -207q-27 -85 -90 -123q16 60 16 96q0 34 -50 34h-133l-69 -173
q125 -22 189 -74q63 -49 63 -129v-514q0 -39 -20 -61q0 -32 144 -112q151 -80 188 -80q38 0 62 15q26 14 26 128v560q0 61 -142 80q-48 6 -48 46q0 41 25 100l165 414h300q0 -120 -26 -207q-27 -85 -90 -123q16 60 16 96q0 34 -50 34h-133l-69 -173q125 -22 189 -74
q63 -49 63 -129z" />
    <glyph glyph-name="uni1795" unicode="&#x1795;" 
d="M956 1279q-71 -83 -130 -83q-13 0 -25 4q14 32 18 66v5q0 29 -38 29h-564l-49 -133q104 -22 169 -73q63 -51 63 -130v-655l200 239l200 -239v291h-30q-95 0 -132.5 39.5t-37.5 110.5q0 101 131 232q118 118 164 118q105 0 105 -100v-850l-75 -75q-75 -75 -100 -75
q-26 0 -93 82l-206 245l-241 -286q-35 -41 -60 -41t-25 40v860q0 60 -122 80q-48 6 -48 46q0 41 25 100l145 374h620q46 0 68 -30q22 -31 22 -92q30 22 41 52q3 11 3 21q0 18 -9 31q-24 39 -93 114q-112 121 -112 205q0 59 56 113q56 55 188 86q-79 -78 -79 -142
q2 -46 68 -118q67 -73 67 -167q0 -34 -5 -71q-15 -147 -79 -223zM770 751h30v141q-70 -69 -70 -105t40 -36z" />
    <glyph glyph-name="uni1796" unicode="&#x1796;" 
d="M460 1300h-243l-49 -133q104 -22 169 -73q63 -51 63 -130v-314h50q150 0 150 -150t-131 -281l-175 -175q-44 -44 -69 -44t-25 40v860q0 60 -122 80q-48 6 -48 46q0 41 25 100l145 374h300q70 0 70 -130q75 130 160 130h270v-1350l-200 -200v1350h-100q-89 0 -208 -162
l7 41q5 35 5 55q0 66 -44 66zM450 500h-50v-191q90 89 90 150q0 41 -40 41z" />
    <glyph glyph-name="uni1797" unicode="&#x1797;" 
d="M294 1000q-30 53 -79 78q-43 22 -101 22h-14l200 400h310q40 0 40 -100q64 100 110 100h290q0 -120 -26 -207q-27 -86 -110 -142q22 82 26 115v5q0 29 -38 29h-182q-59 0 -130 -120q10 39 10 67q0 53 -40 53h-262l-24 -50q66 -27 120 -75q29 -26 29 -54q0 -24 -21 -50
q-47 -56 -108 -71zM462 0q-60 0 -160 58q-102 59 -102 200q0 142 100 182q0 -152 100 -209q59 -33 92 -33q16 0 27 8q31 24 31 74q0 75 -44 140t-131 114q-88 52 -131 130q-44 80 -44 186q0 50 175 150t225 100t159 -63q241 -136 241 -237v-650l-200 -200v800q0 35 -138 114
q-139 79 -176 79t-61 -15q-25 -13 -25 -78q0 -100 63 -136q93 -52 140 -139q47 -86 47 -205v-90q0 -109 -65 -195q-64 -85 -123 -85z" />
    <glyph glyph-name="uni1798" unicode="&#x1798;" 
d="M800 632v228q0 61 -142 80q-48 6 -48 46q0 41 25 100l165 414h300q0 -120 -26 -207q-27 -85 -90 -123q16 60 16 96q0 34 -50 34h-133l-69 -173q125 -22 189 -74q63 -49 63 -129v-624q0 -99 -179 -200q-179 -100 -231 -100q-50 0 -163 63q-123 69 -185 128t-94 154
q32 14 42 34.5t10 50.5v430q0 61 -142 80q-48 6 -48 46q0 41 25 100l165 414h300q0 -120 -26 -207q-27 -85 -90 -123q16 60 16 96q0 34 -50 34h-133l-69 -173q125 -22 189 -74q63 -49 63 -129v-251l102 127q54 -105 125 -137q63 -28 173 -31zM400 604v-194q0 -39 -20 -61
q0 -32 144 -112q151 -80 188 -80q38 0 62 15q26 14 26 128v312q-110 -73 -195 -73h-9q-82 3 -196 65z" />
    <glyph glyph-name="uni1799" unicode="&#x1799;" horiz-adv-x="1800" 
d="M895 147q-33 -25 -74 -47q-179 -100 -231 -100q-50 0 -163 63q-123 69 -185 128t-94 154q32 14 42 34.5t10 50.5v470q-89 19 -130 100q-40 79 -40 180q0 119 65 220q64 100 205 100q100 0 150 -50t50 -150q0 -101 -130 -138q-40 -12 -72 -12q-64 0 -78 56q80 65 80 99
q0 35 -50 35q-55 0 -82 -42q-28 -40 -28 -124q0 -47 57 -68q32 -13 96 -13q50 0 107 7v-690q0 -39 -20 -61q0 -32 144 -112q151 -80 188 -80q38 0 62 15q26 14 26 128v560q0 61 -142 80q-48 6 -48 46q0 41 25 100l165 414h300q0 -120 -26 -207q-27 -85 -90 -123q16 60 16 96
q0 34 -50 34h-133l-69 -173q125 -22 189 -74q63 -49 63 -129v-606q35 -32 124 -81q151 -80 188 -80q38 0 62 15q26 14 26 128v560q0 61 -142 80q-48 6 -48 46q0 41 25 100l165 414h300q0 -120 -26 -207q-27 -85 -90 -123q16 60 16 96q0 34 -50 34h-133l-69 -173
q125 -22 189 -74q63 -49 63 -129v-624q0 -99 -179 -200q-179 -100 -231 -100q-50 0 -163 63q-78 44 -132 84z" />
    <glyph glyph-name="uni179A" unicode="&#x179a;" horiz-adv-x="600" 
d="M400 924v-774l-112 -112q-38 -38 -63 -38t-25 35q0 82 -95 174t-95 191q0 50 50 83l140 97v280q0 61 -142 80q-48 6 -48 46q0 41 25 100l165 414h300q0 -120 -26 -207q-27 -85 -90 -123q16 60 16 96q0 34 -50 34h-133l-69 -173q125 -22 189 -74q63 -49 63 -129zM150 441
l53 -62v105z" />
    <glyph glyph-name="uni179B" unicode="&#x179b;" horiz-adv-x="1800" 
d="M200 1500h800v-1090q0 -39 -20 -61q0 -32 144 -112q151 -80 188 -80q38 0 62 15q26 14 26 128v560q0 61 -142 80q-48 6 -48 46q0 41 25 100l165 414h300q0 -120 -26 -207q-27 -85 -90 -123q16 60 16 96q0 34 -50 34h-133l-69 -173q125 -22 189 -74q63 -49 63 -129v-624
q0 -99 -179 -200q-179 -100 -231 -100q-50 0 -163 63q-123 69 -185 128t-94 154q32 14 42 34.5t10 50.5v870h-583l-49 -133q104 -22 169 -73q63 -51 63 -130v-314h50q150 0 150 -150t-131 -281l-175 -175q-44 -44 -69 -44t-25 40v860q0 60 -122 80q-48 6 -48 46q0 41 25 100
zM450 500h-50v-191q90 89 90 150q0 41 -40 41z" />
    <glyph glyph-name="uni179C" unicode="&#x179c;" horiz-adv-x="600" 
d="M475 1482q-24 39 -93 114q-112 121 -112 205q0 59 56 113q56 55 188 86q-79 -78 -79 -142q2 -46 68 -118q67 -73 67 -167q0 -34 -5 -71q-15 -147 -79 -223q-71 -83 -130 -83q-13 0 -25 4q14 32 18 66v5q0 29 -38 29h-94l-69 -173q125 -22 189 -74q63 -49 63 -129v-774
l-112 -112q-38 -38 -63 -38t-25 35q0 82 -95 174t-95 191q0 50 50 83l140 97v280q0 61 -142 80q-48 6 -48 46q0 41 25 100l165 414h150q46 0 68 -30q22 -31 22 -92q30 22 41 52q3 11 3 21q0 18 -9 31zM150 441l53 -62v105z" />
    <glyph glyph-name="uni179D" unicode="&#x179d;" 
d="M294 1000q-30 53 -79 78q-43 22 -101 22h-14l200 400h310q40 0 40 -100q64 100 110 100h290q0 -120 -26 -207q-27 -86 -110 -142q22 82 26 115v5q0 29 -38 29h-182q-59 0 -130 -120q10 39 10 67q0 53 -40 53h-262l-24 -50q66 -27 120 -75q29 -26 29 -54q0 -24 -21 -50
q-47 -56 -108 -71zM692 456l108 134v160q0 35 -138 114q-139 79 -176 79t-61 -15q-25 -13 -25 -128v-451q64 151 162 151q42 0 91 -35q47 -36 47 -100q0 -65 -100 -110q-18 45 -75 45q-28 0 -59 -37l-185 -225q-32 -38 -56 -38q-25 0 -25 40v760q0 100 175 200t225 100
t159 -63q241 -136 241 -237v-322q58 -16 149 -16h11q-90 -64 -160 -83v-229l-200 -200v450q-48 20 -108 56z" />
    <glyph glyph-name="uni179E" unicode="&#x179e;" 
d="M1000 549v-249q0 -99 -179 -200q-179 -100 -231 -100q-50 0 -163 63q-123 69 -185 128t-94 154q32 14 42 34.5t10 50.5v430q0 61 -142 80q-48 6 -48 46q0 41 25 100l165 414h300q0 -120 -26 -207q-27 -85 -90 -123q16 60 16 96q0 34 -50 34h-133l-69 -173
q125 -22 189 -74q63 -49 63 -129v-514q0 -39 -20 -61q0 -32 144 -112q151 -80 188 -80q38 0 62 15q26 14 26 128v270q-48 20 -108 56l108 134v100q0 61 -142 80q-48 6 -48 46q0 41 25 100l165 414h300q0 -120 -26 -207q-27 -85 -90 -123q16 60 16 96q0 34 -50 34h-133
l-69 -173q125 -22 189 -74q63 -49 63 -129v-276q58 -16 149 -16h11q-90 -64 -160 -83z" />
    <glyph glyph-name="uni179F" unicode="&#x179f;" horiz-adv-x="1800" 
d="M341 979q-39 55 -70 83q-44 38 -160 38l200 400h670q0 -120 -26 -207q-27 -86 -110 -142q22 82 26 115v5q0 29 -38 29h-524l-24 -50q92 -40 149 -100q19 -19 34 -41t28 -45q75 36 105 36q50 0 159 -63q241 -136 241 -237v-390q0 -39 -20 -61q0 -32 144 -112
q151 -80 188 -80q38 0 62 15q26 14 26 128v560q0 61 -142 80q-48 6 -48 46q0 41 25 100l165 414h300q0 -120 -26 -207q-27 -85 -90 -123q16 60 16 96q0 34 -50 34h-133l-69 -173q125 -22 189 -74q63 -49 63 -129v-624q0 -99 -179 -200q-179 -100 -231 -100q-50 0 -163 63
q-123 69 -185 128t-94 154q32 14 42 34.5t10 50.5v320q0 35 -138 114q-139 79 -176 79t-61 -15q-25 -13 -25 -128v-250h50q76 0 113 -25q37 -24 37 -74q0 -101 -131 -232l-175 -175q-44 -44 -69 -44t-25 40v760q0 89 140 179zM451 450h-50v-141q90 89 90 115t-40 26z" />
    <glyph glyph-name="uni17A0" unicode="&#x17a0;" horiz-adv-x="1800" 
d="M1000 964v-664q0 -99 -179 -200q-179 -100 -231 -100q-50 0 -163 63q-123 69 -185 128t-94 154q32 14 42 34.5t10 50.5v430q0 61 -142 80q-48 6 -48 46q0 41 25 100l165 414h300q0 -120 -26 -207q-27 -85 -90 -123q16 60 16 96q0 34 -50 34h-133l-69 -173
q125 -22 189 -74q63 -49 63 -129v-514q0 -39 -20 -61q0 -32 144 -112q151 -80 188 -80q38 0 62 15q26 14 26 128v600q0 60 -122 80q-48 6 -48 46q0 41 25 100l145 374h800v-1350l-200 -200v1350h-583l-49 -133q104 -22 169 -73q63 -51 63 -130z" />
    <glyph glyph-name="uni17A1" unicode="&#x17a1;" horiz-adv-x="1800" 
d="M179 930l-49 46q0 125 43 224l127 300h730q0 -121 -33 -216l-50 -142q-49 -142 -171 -142q-120 0 -329 126l172 129q92 -55 177 -55q83 0 106 50q6 14 6 25q0 25 -38 25h-553l-66 -163l87 -83q86 -85 251 -128l274 -75q23 -6 43 -6q73 0 124 73q0 -153 -77 -216
q-59 -49 -115 -49q-17 0 -32 4l-68 20l-207 57q-208 59 -352 196zM1200 -180l200 -205v1245q0 61 -142 80q-48 6 -48 46q0 41 25 100l165 414h300q0 -120 -26 -207q-27 -85 -90 -123q16 60 16 96q0 34 -50 34h-133l-69 -173q125 -22 189 -74q63 -49 63 -129v-1445l-75 -64
q-76 -65 -100 -65q-25 0 -93 71l-206 210l-241 -245q-34 -36 -60 -36q-25 0 -25 35v205l-127 84q-43 28 -43 62t48 80l95 90q47 44 107 44q59 0 120 -51v-284zM400 680v-330q0 -34 138 -114q139 -79 176 -79t61 15q25 13 25 128v314q7 -1 13 -1h12q54 0 98 23q51 26 77 75
v-411q0 -100 -175 -200t-225 -100q-49 0 -159 63q-241 136 -241 237v280l113 113q37 37 62 37t25 -50zM800 -229l-40 -36l40 -26v62z" />
    <glyph glyph-name="uni17A2" unicode="&#x17a2;" 
d="M400 674v-524l-112 -112q-38 -38 -63 -38t-25 35q0 82 -95 174t-95 191q0 50 50 83l140 97v280q0 61 -142 80q-48 6 -48 46q0 41 25 100l165 414h300q0 -120 -26 -207q-27 -85 -90 -123q16 60 16 96q0 34 -50 34h-133l-69 -173q125 -22 189 -74q63 -49 63 -129v-181
l102 127q54 -105 125 -137q63 -28 173 -31v158q0 61 -142 80q-48 6 -48 46q0 41 25 100l165 414h300q0 -120 -26 -207q-27 -85 -90 -123q16 60 16 96q0 34 -50 34h-133l-69 -173q125 -22 189 -74q63 -49 63 -129v-774l-112 -112q-38 -38 -63 -38t-25 35q0 82 -95 174
t-95 191q0 50 50 83l140 97v102q-110 -73 -195 -73h-9q-82 3 -196 65zM150 441l53 -62v105zM750 441l53 -62v105z" />
    <glyph glyph-name="uni17A3" unicode="&#x17a3;" 
d="M400 674v-524l-112 -112q-38 -38 -63 -38t-25 35q0 82 -95 174t-95 191q0 50 50 83l140 97v280q0 61 -142 80q-48 6 -48 46q0 41 25 100l165 414h300q0 -120 -26 -207q-27 -85 -90 -123q16 60 16 96q0 34 -50 34h-133l-69 -173q125 -22 189 -74q63 -49 63 -129v-181
l102 127q54 -105 125 -137q63 -28 173 -31v158q0 61 -142 80q-48 6 -48 46q0 41 25 100l165 414h300q0 -120 -26 -207q-27 -85 -90 -123q16 60 16 96q0 34 -50 34h-133l-69 -173q125 -22 189 -74q63 -49 63 -129v-774l-112 -112q-38 -38 -63 -38t-25 35q0 82 -95 174
t-95 191q0 50 50 83l140 97v102q-110 -73 -195 -73h-9q-82 3 -196 65zM150 441l53 -62v105zM750 441l53 -62v105z" />
    <glyph glyph-name="uni17A4" unicode="&#x17a4;" horiz-adv-x="1800" 
d="M400 674v-524l-112 -112q-38 -38 -63 -38t-25 35q0 82 -95 174t-95 191q0 50 50 83l140 97v280q0 61 -142 80q-48 6 -48 46q0 41 25 100l165 414h300q0 -120 -26 -207q-27 -85 -90 -123q16 60 16 96q0 34 -50 34h-133l-69 -173q125 -22 189 -74q63 -49 63 -129v-181
l102 127q54 -105 125 -137q63 -28 173 -31v158q0 61 -142 80q-48 6 -48 46q0 41 25 100l165 414h800v-1350l-200 -200v1350h-583l-69 -173q125 -22 189 -74q63 -49 63 -129v-774l-112 -112q-38 -38 -63 -38t-25 35q0 82 -95 174t-95 191q0 50 50 83l140 97v102
q-110 -73 -195 -73h-9q-82 3 -196 65zM150 441l53 -62v105zM750 441l53 -62v105z" />
    <glyph glyph-name="uni17A5" unicode="&#x17a5;" 
d="M781 1300h-483l-24 -50q66 -27 120 -75q29 -26 29 -54q0 -24 -21 -50q-47 -56 -108 -71q-30 53 -79 78q-43 22 -101 22h-14l200 400h520q46 0 68 -30q22 -31 22 -92q41 43 47 77v5q0 41 -105 200q-112 169 -112 257q0 83 56 157q55 75 188 120q-79 -109 -79 -198
q2 -61 68 -163q67 -103 67 -233q0 -220 -84 -321q-71 -83 -130 -83q-13 0 -25 4q14 32 18 66v5q0 29 -38 29zM200 40v760q0 100 175 200t225 100t159 -63q241 -136 241 -237v-650l-200 -200v800q0 35 -138 114q-139 79 -176 79t-61 -15q-25 -13 -25 -128v-250h50
q76 0 113 -25q37 -24 37 -74q0 -101 -131 -232l-175 -175q-44 -44 -69 -44t-25 40zM450 450h-50v-141q90 89 90 115t-40 26z" />
    <glyph glyph-name="uni17A6" unicode="&#x17a6;" horiz-adv-x="1800" 
d="M956 -726l-156 -94v370q0 35 -138 114q-139 79 -176 79t-61 -15q-25 -13 -25 -78v-50h50q76 0 113 -25q37 -24 37 -74q0 -101 -131 -232q-69 -69 -169 -69t-100 100v350q0 50 175 150t225 100t159 -63q241 -136 241 -237v-100q71 -200 235 -200q165 0 165 200v1360
q0 61 -142 80q-48 6 -48 46q0 41 25 100l165 414h150q46 0 68 -30q22 -31 22 -92q41 43 47 77v5q0 41 -105 200q-112 169 -112 257q0 83 56 157q55 75 188 120q-79 -109 -79 -198q2 -61 68 -163q67 -103 67 -233q0 -220 -84 -321q-71 -83 -130 -83q-13 0 -25 4q14 32 18 66
v5q0 29 -38 29h-94l-69 -173q125 -22 189 -74q63 -49 63 -129v-1424q0 -300 -400 -300q-134 0 -244 74zM200 40v1160q0 100 175 200t225 100t159 -63q241 -136 241 -237v-1050l-200 -200v1200q0 35 -138 114q-139 79 -176 79t-61 -15q-25 -13 -25 -128v-550h50
q150 0 150 -150t-131 -281l-175 -175q-44 -44 -69 -44t-25 40zM450 500h-50v-191q90 89 90 150q0 41 -40 41zM450 -500h-50v-141q90 89 90 115t-40 26z" />
    <glyph glyph-name="uni17A7" unicode="&#x17a7;" 
d="M200 300v330q200 0 400 140t200 230v150q0 35 -138 114q-139 79 -176 79t-61 -15q-25 -13 -25 -128h40q160 0 160 -105t-150 -200q-151 -95 -205 -95q-45 0 -45 80v320q0 100 175 200t225 100t159 -63q241 -136 241 -237v-200q0 -90 -300 -290l-300 -200v-190
q168 -188 262 -188q25 0 44 13l94 57v348l200 200v-810q0 -105 -201 -221q-100 -58 -185 -67q-8 -1 -15.5 -1.5t-15.5 -0.5q-66 0 -122 32q-68 38 -136 43h-7q-65 0 -138 -88q-1 8 -1.5 16t-0.5 15q0 31 8 58q12 38 66 94q55 57 135 73q25 5 45 5q59 0 118 -35
q128 -75 183 -75q15 0 24 6q44 26 44 96v198l-42 -25q-109 -63 -159 -63t-225 100t-175 200zM434 1090h-34v-85q68 38 68 57q0 28 -34 28z" />
    <glyph glyph-name="uni17A8" unicode="&#x17a8;" 
d="M294 1390q-30 53 -79 78q-43 22 -101 22h-14l200 400h310q40 0 40 -100q64 100 110 100h290q0 -120 -26 -207q-27 -86 -110 -142q22 82 26 115v5q0 29 -38 29h-182q-59 0 -130 -120q10 39 10 67q0 53 -40 53h-262l-24 -50q66 -27 120 -75q29 -26 29 -54q0 -24 -21 -50
q-47 -56 -108 -71zM200 300v330q200 0 400 140t200 230v150q0 35 -138 114q-139 79 -176 79t-61 -15q-25 -13 -25 -128h40q160 0 160 -105t-150 -200q-151 -95 -205 -95q-45 0 -45 80v320q0 100 175 200t225 100t159 -63q241 -136 241 -237v-200q0 -90 -300 -290l-300 -200
v-190q168 -188 262 -188q25 0 44 13l94 57v348l200 200v-810q0 -105 -201 -221q-100 -58 -185 -67q-8 -1 -15.5 -1.5t-15.5 -0.5q-66 0 -122 32q-68 38 -136 43h-7q-65 0 -138 -88q-1 8 -1.5 15.5t-0.5 14.5q0 30 8 59q12 38 66 94q55 57 135 73q25 5 45 5q59 0 118 -35
q128 -75 183 -75q15 0 24 6q44 26 44 96v198l-42 -25q-109 -63 -159 -63t-225 100t-175 200zM434 1090h-34v-85q68 38 68 57q0 28 -34 28z" />
    <glyph glyph-name="uni17A9" unicode="&#x17a9;" horiz-adv-x="1347" 
d="M200 300v330q200 0 400 140t200 230v150q0 35 -138 114q-139 79 -176 79t-61 -15q-25 -13 -25 -128h40q160 0 160 -105t-150 -200q-151 -95 -205 -95q-45 0 -45 80v320q0 100 175 200t225 100t159 -63q241 -136 241 -237v-200q0 -90 -300 -290l-300 -200v-190
q168 -188 262 -188q25 0 44 13l94 57v348l200 200v-810q0 -105 -201 -221q-100 -58 -185 -67q-8 -1 -15.5 -1.5t-15.5 -0.5q-66 0 -122 32q-68 38 -136 43h-7q-65 0 -138 -88q-1 8 -1.5 16t-0.5 15q0 31 8 58q12 38 66 94q55 57 135 73q25 5 45 5q59 0 118 -35
q128 -75 183 -75q15 0 24 6q44 26 44 96v198l-42 -25q-109 -63 -159 -63t-225 100t-175 200zM434 1090h-34v-85q68 38 68 57q0 28 -34 28zM1300 -100l-200 -200v900l200 200v-900z" />
    <glyph glyph-name="uni17AA" unicode="&#x17aa;" 
d="M781 1700h-483l-24 -50q66 -27 120 -75q29 -26 29 -54q0 -24 -21 -50q-47 -56 -108 -71q-30 53 -79 78q-43 22 -101 22h-14l200 400h520q46 0 68 -30q22 -31 22 -92q41 43 47 77v5q0 41 -105 200q-112 169 -112 257q0 83 56 157q55 75 188 120q-79 -109 -79 -198
q2 -61 68 -163q67 -103 67 -233q0 -220 -84 -321q-71 -83 -130 -83q-13 0 -25 4q14 32 18 66v5q0 29 -38 29zM200 300v330q200 0 400 140t200 230v150q0 35 -138 114q-139 79 -176 79t-61 -15q-25 -13 -25 -128h40q160 0 160 -105t-150 -200q-151 -95 -205 -95q-45 0 -45 80
v320q0 100 175 200t225 100t159 -63q241 -136 241 -237v-200q0 -90 -300 -290l-300 -200v-190q168 -188 262 -188q25 0 44 13l94 57v348l200 200v-810q0 -105 -201 -221q-100 -58 -185 -67q-8 -1 -15.5 -1.5t-15.5 -0.5q-66 0 -122 32q-68 38 -136 43h-7q-65 0 -138 -88
q-1 8 -1.5 15.5t-0.5 14.5q0 30 8 59q12 38 66 94q55 57 135 73q25 5 45 5q59 0 118 -35q128 -75 183 -75q15 0 24 6q44 26 44 96v198l-42 -25q-109 -63 -159 -63t-225 100t-175 200zM434 1090h-34v-85q68 38 68 57q0 28 -34 28z" />
    <glyph glyph-name="uni17AB" unicode="&#x17ab;" 
d="M1000 924v-624q0 -99 -179 -200q-179 -100 -231 -100q-50 0 -163 63q-123 69 -185 128t-94 154q32 14 42 34.5t10 50.5v430q0 61 -142 80q-48 6 -48 46q0 41 25 100l165 414h300q0 -120 -26 -207q-27 -85 -90 -123q16 60 16 96q0 34 -50 34h-133l-69 -173
q125 -22 189 -74q63 -49 63 -129v-514q0 -39 -20 -61q0 -32 144 -112q151 -80 188 -80q38 0 62 15q26 14 26 128v560q0 61 -142 80q-48 6 -48 46q0 41 25 100l165 414h300q0 -120 -26 -207q-27 -85 -90 -123q16 60 16 96q0 34 -50 34h-133l-69 -173q125 -22 189 -74
q63 -49 63 -129zM136 -485q-36 35 -36 116q-1 0 -1 1q0 80 137 148q80 40 175 40q66 0 135 -19q230 -63 307 -63q39 0 39 16q0 46 -45 68q-16 8 -40 8q-50 0 -137 -30l160 200q85 0 127 -43q43 -42 43 -126q0 -167 -158 -223q-78 -28 -168 -28q-86 0 -179 27
q-190 55 -261 55q-19 0 -28 -4q-48 -20 -70 -143z" />
    <glyph glyph-name="uni17AC" unicode="&#x17ac;" 
d="M1000 924v-624q0 -99 -179 -200q-179 -100 -231 -100q-50 0 -163 63q-123 69 -185 128t-94 154q32 14 42 34.5t10 50.5v430q0 61 -142 80q-48 6 -48 46q0 41 25 100l165 414h300q0 -120 -26 -207q-27 -85 -90 -123q16 60 16 96q0 34 -50 34h-133l-69 -173
q125 -22 189 -74q63 -49 63 -129v-514q0 -39 -20 -61q0 -32 144 -112q151 -80 188 -80q38 0 62 15q26 14 26 128v560q0 61 -142 80q-48 6 -48 46q0 41 25 100l165 414h300q0 -120 -26 -207q-27 -85 -90 -123q16 60 16 96q0 34 -50 34h-133l-69 -173q125 -22 189 -74
q63 -49 63 -129zM825 -397q-75 -23 -152 -23q-85 0 -178 27q-190 55 -261 55q-19 0 -28 -4q-48 -20 -70 -143q-36 35 -36 116q-1 0 -1 1q0 80 137 148q80 40 175 40q66 0 135 -19q230 -63 307 -63q39 0 39 16q0 46 -45 68q-16 8 -40 8q-50 0 -137 -30l160 200q85 0 127 -43
q43 -42 43 -126q0 -63 -22 -110q27 -70 72 -106q62 -47 190 -77q-109 -44 -187 -44q-32 0 -62 8q-80 23 -166 101z" />
    <glyph glyph-name="uni17AD" unicode="&#x17ad;" 
d="M670 -200l130 163v1337h-100q-89 0 -208 -162l7 41q5 35 5 55q0 66 -44 66h-243l-49 -133q104 -22 169 -73q63 -51 63 -130v-314h50q150 0 150 -150t-131 -281l-175 -175q-44 -44 -69 -44t-25 40v860q0 60 -122 80q-48 6 -48 46q0 41 25 100l145 374h300q70 0 70 -130
q75 130 160 130h270v-1350l-151 -150q69 -4 108 -43q43 -42 43 -126q0 -167 -158 -223q-78 -28 -168 -28q-86 0 -179 27q-190 55 -261 55q-19 0 -28 -4q-48 -20 -70 -143q-36 35 -36 116q-1 0 -1 1q0 80 137 148q80 40 175 40q66 0 135 -19q230 -63 307 -63q39 0 39 16
q0 46 -45 68q-16 8 -40 8q-50 0 -137 -30zM450 500h-50v-191q90 89 90 150q0 41 -40 41z" />
    <glyph glyph-name="uni17AE" unicode="&#x17ae;" 
d="M670 -200l130 163v1337h-100q-89 0 -208 -162l7 41q5 35 5 55q0 66 -44 66h-243l-49 -133q104 -22 169 -73q63 -51 63 -130v-314h50q150 0 150 -150t-131 -281l-175 -175q-44 -44 -69 -44t-25 40v860q0 60 -122 80q-48 6 -48 46q0 41 25 100l145 374h300q70 0 70 -130
q75 130 160 130h270v-1350l-151 -150q69 -4 108 -43q43 -42 43 -126q0 -63 -22 -110q27 -70 72 -106q62 -47 190 -77q-109 -44 -187 -44q-32 0 -62 8q-80 23 -166 101q-75 -23 -152 -23q-85 0 -178 27q-190 55 -261 55q-19 0 -28 -4q-48 -20 -70 -143q-36 35 -36 116
q-1 0 -1 1q0 80 137 148q80 40 175 40q66 0 135 -19q230 -63 307 -63q39 0 39 16q0 46 -45 68q-16 8 -40 8q-50 0 -137 -30zM450 500h-50v-191q90 89 90 150q0 41 -40 41z" />
    <glyph glyph-name="uni17AF" unicode="&#x17af;" 
d="M200 1250v420q0 40 -24 40q-23 0 -76 -30q100 220 180 220q120 0 120 -230v-256q155 86 200 86q50 0 159 -63q241 -136 241 -237v-1050l-75 -75q-75 -75 -100 -75q-26 0 -93 82l-206 245l-241 -286q-35 -41 -60 -41t-25 40v470l-127 98q-43 31 -43 82q0 101 48 153
l95 105q46 52 107 52q59 0 120 -60v-631l200 239l200 -239v841q0 35 -138 114q-139 79 -176 79t-61 -15q-25 -13 -25 -78q0 -106 -100 -106t-100 106zM200 711l-40 -42l40 -31v73z" />
    <glyph glyph-name="uni17B0" unicode="&#x17b0;" 
d="M460 1300h-243l-49 -133q104 -22 169 -73q63 -51 63 -130v-314h50q150 0 150 -150t-131 -281l-175 -175q-44 -44 -69 -44t-25 40v860q0 60 -122 80q-48 6 -48 46q0 41 25 100l145 374h300q70 0 70 -130q75 130 160 130h270v-1350l-200 -200v1350h-100q-89 0 -208 -162
l7 41q5 35 5 55q0 66 -44 66zM450 500h-50v-191q90 89 90 150q0 41 -40 41zM900 -100l100 100v-300q0 -88 -32 -154q-31 -64 -96 -102q-52 -31 -90 -31q-8 0 -18 2q-45 9 -70 64q-2 -72 -38 -123q-38 -53 -109 -84q-35 -16 -73 -19h-17q-30 0 -57 7q-74 21 -150 94
q-50 50 -50 160q0 112 150 155l338 99q111 31 212 132zM821 -401l-70 -32q19 -49 45 -49q6 0 13 3q20 11 20 37q0 15 -8 41zM543 -493l-217 -58q101 -87 157 -87q11 0 23 5q41 18 41 90q0 25 -4 50z" />
    <glyph glyph-name="uni17B1" unicode="&#x17b1;" 
d="M294 1390q-30 53 -79 78q-43 22 -101 22h-14l200 400h750q0 -120 -26 -207q-27 -86 -110 -142q22 82 26 115v5q0 29 -38 29h-604l-24 -50q66 -27 120 -75q29 -26 29 -54q0 -24 -21 -50q-47 -56 -108 -71zM200 300v330q200 0 400 140t200 230v150q0 35 -138 114
q-139 79 -176 79t-61 -15q-25 -13 -25 -128h40q160 0 160 -105t-150 -200q-151 -95 -205 -95q-45 0 -45 80v320q0 100 175 200t225 100t159 -63q241 -136 241 -237v-200q0 -90 -300 -290l-300 -200v-190q168 -188 262 -188q25 0 44 13l94 57v348l200 200v-810
q0 -105 -201 -221q-100 -58 -185 -67q-8 -1 -15.5 -1.5t-15.5 -0.5q-66 0 -122 32q-68 38 -136 43h-7q-65 0 -138 -88q-1 8 -1.5 15.5t-0.5 14.5q0 30 8 59q12 38 66 94q55 57 135 73q25 5 45 5q59 0 118 -35q128 -75 183 -75q15 0 24 6q44 26 44 96v198l-42 -25
q-109 -63 -159 -63t-225 100t-175 200zM434 1090h-34v-85q68 38 68 57q0 28 -34 28z" />
    <glyph glyph-name="uni17B2" unicode="&#x17b2;" 
d="M800 530q200 -30 200 -230q0 -100 -175 -200t-225 -100q-49 0 -159 63q-241 136 -241 237v900q0 100 175 200t225 100t159 -63l241 -137l-200 -116l-138 80q-139 79 -176 79t-61 -15q-25 -13 -25 -128v-850q0 -34 138 -114q139 -79 176 -79t61 15q25 13 25 128
q0 112 -75 157t-75 119v74q147 35 193 91q47 56 47 113q0 43 -27.5 64.5t-62.5 21.5q-50 0 -50 -45q0 -44 60 -49v-1q0 -78 -120 -78h-9q-131 3 -131 133q0 101 60 150q61 50 140 50q121 0 185 -70q65 -71 65 -170q0 -111 -40 -200q-40 -90 -160 -130z" />
    <glyph glyph-name="uni17B3" unicode="&#x17b3;" 
d="M781 1700h-483l-24 -50q66 -27 120 -75q29 -26 29 -54q0 -24 -21 -50q-47 -56 -108 -71q-30 53 -79 78q-43 22 -101 22h-14l200 400h520q46 0 68 -30q22 -31 22 -92q41 43 47 77v5q0 41 -105 200q-112 169 -112 257q0 83 56 157q55 75 188 120q-79 -109 -79 -198
q2 -61 68 -163q67 -103 67 -233q0 -220 -84 -321q-71 -83 -130 -83q-13 0 -25 4q14 32 18 66v5q0 29 -38 29zM200 300v330q200 0 400 140t200 230v150q0 35 -138 114q-139 79 -176 79t-61 -15q-25 -13 -25 -128h40q160 0 160 -105t-150 -200q-151 -95 -205 -95q-45 0 -45 80
v320q0 100 175 200t225 100t159 -63q241 -136 241 -237v-200q0 -90 -300 -290l-300 -200v-190q168 -188 262 -188q25 0 44 13l94 57v348l200 200v-810q0 -105 -201 -221q-100 -58 -185 -67q-8 -1 -15.5 -1.5t-15.5 -0.5q-66 0 -122 32q-68 38 -136 43h-7q-65 0 -138 -88
q-1 8 -1.5 15.5t-0.5 14.5q0 30 8 59q12 38 66 94q55 57 135 73q25 5 45 5q59 0 118 -35q128 -75 183 -75q15 0 24 6q44 26 44 96v198l-42 -25q-109 -63 -159 -63t-225 100t-175 200zM434 1090h-34v-85q68 38 68 57q0 28 -34 28z" />
    <glyph glyph-name="uni17B4" unicode="&#x17b4;" horiz-adv-x="1204" 
 />
    <glyph glyph-name="uni17B5" unicode="&#x17b5;" horiz-adv-x="1204" 
 />
    <glyph glyph-name="uni17B6" unicode="&#x17b6;" horiz-adv-x="600" 
d="M200 -50v1350h-350q0 101 25 150q26 50 75 50h450v-1350z" />
    <glyph glyph-name="uni17B7" unicode="&#x17b7;" horiz-adv-x="0" 
d="M-999 1745l36 113q54 168 126 261q71 93 161 110q53 9 102 9q19 0 37.5 -1.5t37.5 -3.5q89 -12 215 -76q127 -69 147 -149q5 -22 5 -39q0 -57 -45 -107l-121 -162l-125 34q-188 51 -331 54h-17q-135 0 -228 -43zM-855 1872q99 84 213 94q7 1 21 1q121 0 398 -96l15 22
l-216 110q-111 47 -206 47h-18q-105 -5 -207 -178z" />
    <glyph glyph-name="uni17B8" unicode="&#x17b8;" horiz-adv-x="0" 
d="M-149 1898l-149 -198l-125 34q-188 51 -331 54h-17q-135 0 -228 -43l36 113q54 168 126 261q71 93 161 110q51 9 102 9q19 0 37.5 -1.5t37.5 -3.5q89 -12 215 -76q127 -69 147 -149q37 64 37 96q0 36 -42 88l94 138l24 -41q24 -42 24 -117t-149 -274zM-855 1872
q99 84 213 94q7 1 21 1q121 0 398 -96l15 22l-216 110q-111 47 -206 47h-18q-105 -5 -207 -178z" />
    <glyph glyph-name="uni17B9" unicode="&#x17b9;" horiz-adv-x="0" 
d="M-134 1998q3 -15 3 -29q0 -58 -46 -107l-121 -162l-125 34q-188 51 -331 54h-17q-135 0 -228 -43l36 113q54 168 126 261q71 93 161 110q51 9 102 9q19 0 37.5 -1.5t37.5 -3.5q3 -1 9 -1q4 51 33 101q33 58 91.5 89t120.5 31q61 0 119 -31q59 -31 92.5 -89t33.5 -121
q0 -62 -32.5 -119t-90.5 -88q-3 -3 -11 -7zM-192 2267q-64 54 -112 68q-18 5 -30 5q-24 0 -43 -17q-15 -16 -15 -35q0 -13 8 -31q19 -40 85 -94q67 -53 112 -67q18 -5 30 -5q24 0 43 17q15 15 15 35q0 13 -8 31q-20 40 -85 93zM-855 1872q99 84 213 94q7 1 21 1
q121 0 398 -96l15 22l-216 110q-111 47 -206 47h-18q-105 -5 -207 -178z" />
    <glyph glyph-name="uni17BA" unicode="&#x17ba;" horiz-adv-x="0" 
d="M-270 2150q115 -66 133 -142q37 64 37 96q0 36 -42 88l94 138l24 -41q24 -42 24 -117t-149 -274l-149 -198l-125 34q-188 51 -331 54h-17q-135 0 -228 -43l36 113q54 168 126 261q71 93 161 110q51 9 102 9q19 0 37.5 -1.5t37.5 -3.5q75 -11 177 -58q22 44 22 69
q0 36 -42 88l94 138l24 -41q24 -42 24 -117q0 -53 -70 -162zM-855 1872q99 84 213 94q7 1 21 1q121 0 398 -96l15 22l-216 110q-111 47 -206 47h-18q-105 -5 -207 -178z" />
    <glyph glyph-name="uni17BB" unicode="&#x17bb;" horiz-adv-x="0" 
d="M-400 -250l200 200v-450l-200 -200v450z" />
    <glyph glyph-name="uni17BC" unicode="&#x17bc;" horiz-adv-x="0" 
d="M-529 -660q-51 0 -101 41t-50 81v170q-28 -12 -55 -12q-31 0 -56 16q-49 28 -49 69t90 122t150 81q59 0 120 -49v-414q80 17 110 45q30 29 30 94q0 41 -30 81q-30 41 -30 117q0 45 50 86q50 39 148 72q-68 -73 -68 -117q0 -53 65 -101q65 -50 65 -138q0 -57 -159 -150
q-158 -94 -230 -94zM-680 -291v38q-42 -24 -42 -37q0 -3 2 -5q5 -6 12 -6q12 0 28 10z" />
    <glyph glyph-name="uni17BD" unicode="&#x17bd;" horiz-adv-x="0" 
d="M-624 -660q-17 0 -45 19.5t-49.5 48t-21.5 54.5v170q-28 -12 -55 -12q-31 0 -56 16q-49 28 -49 69t90 122t150 81q39 0 100 -49v-349l99 95l167 -135q22 16 22 69t-55 101q-55 49 -55 142q0 45 50 86q50 39 148 72q-68 -73 -68 -117q0 -53 65 -101q65 -50 65 -146
q0 -98 -81 -167t-124 -69q-44 0 -105 52l-63 52l-85 -78q-29 -26 -44 -26zM-740 -291v38q-42 -24 -42 -37q0 -3 2 -5q5 -6 12 -6q12 0 28 10z" />
    <glyph glyph-name="uni17BE" unicode="&#x17be;" horiz-adv-x="0" 
d="M-149 1898l-149 -198l-125 34q-188 51 -331 54h-17q-135 0 -228 -43l36 113q54 168 126 261q71 93 161 110q51 9 102 9q19 0 37.5 -1.5t37.5 -3.5q89 -12 215 -76q127 -69 147 -149q37 64 37 96q0 36 -42 88l94 138l24 -41q24 -42 24 -117t-149 -274zM-855 1872
q99 84 213 94q7 1 21 1q121 0 398 -96l15 22l-216 110q-111 47 -206 47h-18q-105 -5 -207 -178z" />
    <glyph glyph-name="uni17BF" unicode="&#x17bf;" horiz-adv-x="600" 
d="M400 1877v-2377q0 -100 -175 -200t-225 -100q-49 0 -159 63q-241 136 -241 237v150l113 113q37 37 62 37t25 -50v-200q0 -34 138 -114q139 -79 176 -79t61 15q25 13 25 128v2377q0 72 -125 95q-188 38 -331 39h-24q-128 0 -221 -30l36 80q54 121 126 187q70 67 161 79
q48 7 102 7q19 0 37.5 -1t37.5 -3q74 -7 177 -42q22 31 22 50q0 26 -42 63l94 99l24 -29q24 -31 24 -85q0 -36 -70 -115q115 -46 133 -102q37 46 37 69q0 26 -42 63l94 99l24 -30q24 -30 24 -83q0 -56 -74 -127l-102 -105q78 -36 78 -178zM-144 2138q7 1 24 1q118 0 395 -68
l15 16l-216 78q-108 34 -204 34h-20q-105 -3 -207 -128q97 59 213 67z" />
    <glyph glyph-name="uni17C0" unicode="&#x17c0;" horiz-adv-x="600" 
d="M400 924v-1424q0 -100 -175 -200t-225 -100q-49 0 -159 63q-241 136 -241 237v150l113 113q37 37 62 37t25 -50v-200q0 -34 138 -114q139 -79 176 -79t61 15q25 13 25 128v1360q0 61 -142 80q-48 6 -48 46q0 41 25 100l165 414h150q46 0 68 -30q22 -31 22 -92
q41 43 47 77v5q0 41 -105 200q-112 169 -112 257q0 83 56 157q55 75 188 120q-79 -109 -79 -198q2 -61 68 -163q67 -103 67 -233q0 -220 -84 -321q-71 -83 -130 -83q-13 0 -25 4q14 32 18 66v5q0 29 -38 29h-94l-69 -173q125 -22 189 -74q63 -49 63 -129z" />
    <glyph glyph-name="uni17C1" unicode="&#x17c1;" horiz-adv-x="600" 
d="M200 40v820q0 61 -142 80q-48 6 -48 46q0 41 25 100l165 414h300q0 -120 -26 -207q-27 -85 -90 -123q16 60 16 96q0 34 -50 34h-133l-69 -173q125 -22 189 -74q63 -49 63 -129v-274h40q75 0 113 -32q37 -33 37 -98q0 -121 -127 -270l-170 -200q-44 -50 -68 -50
q-25 0 -25 40zM440 500h-40v-171q77 89 77 140q0 31 -37 31z" />
    <glyph glyph-name="uni17C2" unicode="&#x17c2;" horiz-adv-x="600" 
d="M695 2213q1 -7 1.5 -15.5t0.5 -16.5q0 -138 -139 -356q-77 -123 -168 -179q-73 -45 -154 -45q-9 0 -18 0.5t-18 1.5q-225 33 -236 114v7q0 44 63 186q46 88 114 127q53 29 115 29q9 0 18 -0.5t19 -1.5q87 -12 114 -50q12 -16 12 -39q0 -25 -17 -61q-43 -82 -156 -82
q-21 0 -47 3q4 9 4 18q0 26 -38 31q-5 1 -13 1q-39 0 -56 -32q-2 -4 -2 -7q0 -32 182 -58q8 -1 16 -1.5t15 -0.5q142 0 213 146q50 105 50 168q0 37 -16 62q-44 69 -194 116q146 122 217 122q29 0 45 -19q60 -69 73 -168zM200 40v820q0 61 -142 80q-48 6 -48 46q0 41 25 100
l165 414h300q0 -120 -26 -207q-27 -85 -90 -123q16 60 16 96q0 34 -50 34h-133l-69 -173q125 -22 189 -74q63 -49 63 -129v-274h40q75 0 113 -32q37 -33 37 -98q0 -121 -127 -270l-170 -200q-44 -50 -68 -50q-25 0 -25 40zM440 500h-40v-171q77 89 77 140q0 31 -37 31z" />
    <glyph glyph-name="uni17C3" unicode="&#x17c3;" horiz-adv-x="600" 
d="M224 1899q-15 -28 -15 -49q0 -50 91 -50q175 0 211 85q7 15 7 30q0 55 -118 55q-304 0 -366 -74q95 249 95 331q0 26 -10 36q-37 37 -184 37h-15q78 200 163 200t164 -61q31 -24 31 -83q0 -91 -77 -274q79 88 199 88q169 0 226 -74q25 -31 25 -81q0 -9 -1 -14
q-3 -56 -38 -137q-58 -131 -137 -198q-78 -66 -175 -66q-256 0 -256 110q2 110 180 189zM200 40v820q0 61 -142 80q-48 6 -48 46q0 41 25 100l165 414h300q0 -120 -26 -207q-27 -85 -90 -123q16 60 16 96q0 34 -50 34h-133l-69 -173q125 -22 189 -74q63 -49 63 -129v-274h40
q75 0 113 -32q37 -33 37 -98q0 -121 -127 -270l-170 -200q-44 -50 -68 -50q-25 0 -25 40zM440 500h-40v-171q77 89 77 140q0 31 -37 31z" />
    <glyph glyph-name="uni17C4" unicode="&#x17c4;" horiz-adv-x="600" 
d="M200 -50v1350h-350q0 101 25 150q26 50 75 50h450v-1350z" />
    <glyph glyph-name="uni17C5" unicode="&#x17c5;" horiz-adv-x="600" 
d="M200 1242v58h-350q0 101 25 150q26 50 75 50h337q-17 72 -75 160q-112 169 -112 257q0 83 56 157q55 75 188 120q-79 -109 -79 -198q2 -61 68 -163q67 -103 67 -233q0 -27 -1.5 -52t-3.5 -48h5v-1350l-200 -200v1247q-5 -1 -13 -1q-14 0 -26 4q21 20 39 42z" />
    <glyph glyph-name="uni17C6" unicode="&#x17c6;" horiz-adv-x="0" 
d="M-601 2198q70 0 134 -39q66 -39 103.5 -111t37.5 -151q0 -78 -37 -148q-36 -71 -101 -110.5t-137 -39.5t-137 40q-65 39 -101 110t-36 148q0 80 37 151q37 72 102.5 111t134.5 39zM-541 1966q-75 69 -125 85q-16 6 -32 6q-30 0 -49 -22q-17 -19 -17 -43q0 -18 9 -39
q20 -47 95 -116t125 -85q17 -6 32 -6q30 0 49 22q17 19 17 43q0 18 -9 39q-20 47 -95 116z" />
    <glyph glyph-name="uni17C7" unicode="&#x17c7;" horiz-adv-x="950" 
d="M474 1499q69 0 135 -39q65 -39 102.5 -111t37.5 -151q0 -77 -36 -148q-37 -71 -102 -110.5t-137 -39.5t-136 40q-66 39 -102 110t-36 148q0 80 37 151q37 72 102.5 111t134.5 39zM534 1267q-75 69 -125 85q-16 6 -32 6q-30 0 -49 -22q-17 -19 -17 -43q0 -18 9 -39
q20 -47 95 -116t125 -85q17 -6 32 -6q30 0 49 22q17 19 17 43q0 18 -9 39q-20 47 -95 116zM474 599q69 0 135 -39q66 -40 103 -111t37 -151q0 -77 -36 -148q-38 -71 -102 -110q-64 -40 -137 -40q-72 0 -136 40q-66 39 -102 110t-36 148q0 80 37 151q38 72 103 111t134 39z
M534 367q-75 69 -125 85q-16 6 -32 6q-30 0 -49 -22q-17 -19 -17 -43q0 -18 9 -39q20 -47 95 -116t125 -85q17 -6 32 -6q30 0 49 22q17 19 17 43q0 18 -9 39q-20 47 -95 116z" />
    <glyph glyph-name="uni17C8" unicode="&#x17c8;" horiz-adv-x="700" 
d="M500 1300v-300h-300v300h300zM500 300v-300h-300v300h300z" />
    <glyph glyph-name="uni17C9" unicode="&#x17c9;" horiz-adv-x="0" 
d="M-700 2350v-550l-200 -200v550zM-300 2350v-550l-200 -200v550z" />
    <glyph glyph-name="uni17CA" unicode="&#x17ca;" horiz-adv-x="0" 
d="M-1065 1584q-15 8 -15 28q0 27 24 75l106 213h310q40 0 40 -100q64 100 110 100h290q0 -120 -26 -207q-27 -86 -110 -142q22 82 26 115v5q0 29 -38 29h-182q-59 0 -130 -120q10 39 10 67q0 53 -40 53h-262l-22 -46q-4 -7 -4 -15q0 -30 81 -32q-42 -39 -87 -39
q-48 0 -81 16z" />
    <glyph glyph-name="uni17CB" unicode="&#x17cb;" horiz-adv-x="0" 
d="M-500 2350v-550l-200 -200v550z" />
    <glyph glyph-name="uni17CC" unicode="&#x17cc;" horiz-adv-x="0" 
d="M-200 1869q-135 0 -240 41q-102 40 -160 40q-153 0 -255 -173q99 84 213 94q7 1 14 1h14q113 0 308 -67q62 -21 78 -51q6 -10 6 -23q0 -22 -19 -47l-57 -79l-125 34q-188 51 -331 54h-17q-135 0 -228 -43l36 113q54 168 136 277q80 108 227 110q139 0 281 -75
q143 -75 181 -75t38 29q0 37 -42 68l94 138l24 -41q24 -42 24 -117q0 -76 -51 -142t-149 -66z" />
    <glyph glyph-name="uni17CD" unicode="&#x17cd;" horiz-adv-x="0" 
d="M-500 1700l-64 -101l-89 1q-159 0 -252 57t-93 123v1q0 66 123 220q83 99 176 119q17 4 41 4q74 0 151 -49q126 -82 160 -208q26 2 98 267q36 134 100 199q64 67 157 67h91l-91 -200q-137 0 -175 -125l-37 -125q-73 -250 -148 -250q-89 104 -242 200q-101 62 -163 62
q-39 0 -63 -25q-27 -30 -27 -55q0 -32 41 -59q201 -123 306 -123z" />
    <glyph glyph-name="uni17CE" unicode="&#x17ce;" horiz-adv-x="0" 
d="M-344 2040l120 -99h-275v-141l-200 -200v341h-165l-110 99h275v110l200 200v-310h155z" />
    <glyph glyph-name="uni17CF" unicode="&#x17cf;" horiz-adv-x="0" 
d="M-528 1853q63 28 109 28q43 0 65 -27q15 -19 15 -43q0 -45 -56 -112q-85 -99 -154 -99q-68 0 -157 81l-102 -81q-192 116 -192 181t107 243q107 176 193 176q138 0 224 -164q37 2 56 172q19 169 83 231q61 61 155 61h91l-91 -200q-118 0 -148 -175q-15 -88 -64 -131
q-50 -44 -92 -44q-43 0 -92 25t-122 25q-91 0 -136 -64q-10 -13 -10 -31q0 -58 123 -144l101 86q122 -134 151 -134q6 0 7 3q3 5 3 11q0 32 -67 126z" />
    <glyph glyph-name="uni17D0" unicode="&#x17d0;" horiz-adv-x="0" 
d="M-377 1606q-42 -9 -86 -9q-57 0 -122 17q-215 59 -215 135q0 38 87 174q58 78 127 106q39 16 85 16q29 0 66 -8q83 -23 104 -61q7 -13 7 -29q0 -29 -25 -64q-32 -42 -83 -54q-22 -6 -49 -6q-36 0 -75 10q6 11 6 20q0 23 -33 30q-12 3 -22 3q-32 0 -48 -25q-3 -4 -3 -8
q0 -31 169 -74q78 -20 137 -20h14t14 1q72 8 118 45q47 38 54 87q2 14 2 20q0 41 -27 90q-64 122 -64 243q0 63 45 118q44 56 148 89q-62 -83 -62 -147q2 -37 54 -131q53 -97 53 -192q0 -69 -46 -139q-45 -68 -138 -143q-91 -73 -192 -94z" />
    <glyph glyph-name="uni17D1" unicode="&#x17d1;" horiz-adv-x="0" 
d="M-1100 1600l200 200h800l-200 -200h-800z" />
    <glyph glyph-name="uni17D2" unicode="&#x17d2;" horiz-adv-x="0" 
d="M-550 -350h150v-100h-150v-150h-100v150h-150v100h150v150h100v-150z" />
    <glyph glyph-name="uni17D3" unicode="&#x17d3;" horiz-adv-x="0" 
d="M-249 1798q0 -101 -88 -150q-88 -50 -262 -50t-262 50q-89 50 -89 150t89 150q88 50 262 50t262 -50q88 -49 88 -150zM-752 1798q0 -50 37 -75q38 -25 115 -25t115 25q37 25 37 75t-37 75q-38 25 -115 25t-115 -25q-37 -25 -37 -75z" />
    <glyph glyph-name="uni17D4" unicode="&#x17d4;" horiz-adv-x="1400" 
d="M948 1081l52 45v174l200 200v-1340q0 -105 -201 -221q-100 -58 -185 -67q-8 -1 -15.5 -1.5t-15.5 -0.5q-66 0 -122 32q-68 38 -136 43h-7q-65 0 -138 -88q-1 10 -1.5 18.5t-0.5 16.5v10q1 10 2 19t3 16q15 47 69 103q55 57 135 73q25 5 45 5q59 0 118 -35
q128 -75 183 -75q15 0 24 6q43 25 43 106v899q-202 -161 -305 -161h-6q-129 0 -218 45q-271 139 -271 268q0 30 133 179q134 150 217 150q143 0 246 -148q22 -28 22 -61q0 -71 -108 -157l-62 83q-62 83 -98 83q-105 0 -128 -27q-22 -25 -22 -87q0 -22 177 -111
q176 -90 218 -90t153 96z" />
    <glyph glyph-name="uni17D5" unicode="&#x17d5;" horiz-adv-x="1800" 
d="M948 1081l52 45v174l200 200v-1560q0 -105 -201 -221q-100 -58 -185 -67q-8 -1 -15.5 -1.5t-15.5 -0.5q-66 0 -122 32q-68 38 -136 43h-7q-65 0 -138 -88q-1 10 -1.5 18.5t-0.5 16.5v10q1 10 2 19t3 16q15 47 69 103q55 57 135 73q25 5 45 5q59 0 118 -35
q128 -75 183 -75q15 0 24 6q43 25 43 106v1119q-202 -161 -305 -161h-6q-129 0 -218 45q-271 139 -271 268q0 30 133 179q134 150 217 150q143 0 246 -148q22 -28 22 -61q0 -71 -108 -157l-62 83q-62 83 -98 83q-105 0 -128 -27q-22 -25 -22 -87q0 -22 177 -111
q176 -90 218 -90t153 96zM1600 -150l-200 -200v1650l200 200v-1650z" />
    <glyph glyph-name="uni17D6" unicode="&#x17d6;" horiz-adv-x="950" 
d="M474 1499q69 0 135 -39q65 -39 102.5 -111t37.5 -151q0 -77 -36 -148q-37 -71 -102 -110.5t-137 -39.5t-136 40q-66 39 -102 110t-36 148q0 80 37 151q37 72 102.5 111t134.5 39zM534 1267q-75 69 -125 85q-16 6 -32 6q-30 0 -49 -22q-17 -19 -17 -43q0 -18 9 -39
q20 -47 95 -116t125 -85q17 -6 32 -6q30 0 49 22q17 19 17 43q0 18 -9 39q-20 47 -95 116zM850 800l-100 -100h-650l100 100h650zM474 599q69 0 135 -39q66 -40 103 -111t37 -151q0 -77 -36 -148q-38 -71 -102 -110q-64 -40 -137 -40q-72 0 -136 40q-66 39 -102 110t-36 148
q0 80 37 151q38 72 103 111t134 39zM534 367q-75 69 -125 85q-16 6 -32 6q-30 0 -49 -22q-17 -19 -17 -43q0 -18 9 -39q20 -47 95 -116t125 -85q17 -6 32 -6q30 0 49 22q17 19 17 43q0 18 -9 39q-20 47 -95 116z" />
    <glyph glyph-name="uni17D7" unicode="&#x17d7;" horiz-adv-x="1400" 
d="M1000 -100v1389l-83 -94q-83 -95 -147 -95q-63 0 -113 59l-49 58q-62 83 -108 83q-55 0 -78 -27q-42 -36 -42 -137q0 -30 59 -53q20 -7 46 -7q48 0 109 24l-4 -32q-60 -82 -124 -106q-25 -9 -52 -9q-37 0 -79 20q-135 69 -135 158q0 70 133 219q134 150 187 150
q123 0 226 -148l80 -94l224 242l150 -150v-1410q0 -105 -201 -221q-100 -58 -185 -67q-8 -1 -15.5 -1.5t-15.5 -0.5q-66 0 -122 32q-68 38 -136 43h-7q-65 0 -138 -88q-1 10 -1.5 18.5t-0.5 16.5v10q1 10 2 19t3 16q15 47 69 103q55 57 135 73q25 5 45 5q59 0 118 -35
q128 -75 183 -75q15 0 24 6q43 25 43 106z" />
    <glyph glyph-name="uni17D8" unicode="&#x17d8;" horiz-adv-x="4400" 
d="M948 1081l52 45v174l200 200v-1350q0 -105 -201 -221q-100 -58 -185 -67q-8 -1 -15.5 -1.5t-15.5 -0.5q-66 0 -122 32q-68 38 -136 43h-7q-65 0 -138 -88q-1 10 -1.5 18.5t-0.5 16.5v10q1 10 2 19t3 16q15 47 69 103q55 57 135 73q25 5 45 5q59 0 118 -35
q128 -75 183 -75q15 0 24 6q43 25 43 106v909q-202 -161 -305 -161h-6q-129 0 -218 45q-271 139 -271 268q0 30 133 179q134 150 217 150q143 0 246 -148q22 -28 22 -61q0 -71 -108 -157l-62 83q-62 83 -98 83q-105 0 -128 -27q-22 -25 -22 -87q0 -22 177 -111
q176 -90 218 -90t153 96zM1600 1500h800v-1090q0 -39 -20 -61q0 -32 144 -112q151 -80 188 -80q38 0 62 15q26 14 26 128v560q0 61 -142 80q-48 6 -48 46q0 41 25 100l165 414h300q0 -120 -26 -207q-27 -85 -90 -123q16 60 16 96q0 34 -50 34h-133l-69 -173q125 -22 189 -74
q63 -49 63 -129v-624q0 -99 -179 -200q-179 -100 -231 -100q-50 0 -163 63q-123 69 -185 128t-94 154q32 14 42 34.5t10 50.5v870h-583l-49 -133q104 -22 169 -73q63 -51 63 -130v-314h50q150 0 150 -150t-131 -281l-175 -175q-44 -44 -69 -44t-25 40v860q0 60 -122 80
q-48 6 -48 46q0 41 25 100zM3948 1081l52 45v174l200 200v-1350q0 -105 -201 -221q-100 -58 -185 -67q-8 -1 -15.5 -1.5t-15.5 -0.5q-66 0 -122 32q-68 38 -136 43h-7q-65 0 -138 -88q-1 10 -1.5 18.5t-0.5 16.5v10q1 10 2 19t3 16q15 47 69 103q55 57 135 73q25 5 45 5
q59 0 118 -35q128 -75 183 -75q15 0 24 6q43 25 43 106v909q-202 -161 -305 -161h-6q-129 0 -218 45q-271 139 -271 268q0 30 133 179q134 150 217 150q143 0 246 -148q22 -28 22 -61q0 -71 -108 -157l-62 83q-62 83 -98 83q-105 0 -128 -27q-22 -25 -22 -87q0 -22 177 -111
q176 -90 218 -90t153 96zM1850 500h-50v-191q90 89 90 150q0 41 -40 41z" />
    <glyph glyph-name="uni17D9" unicode="&#x17d9;" horiz-adv-x="1550" 
d="M775 0q-238 0 -356 175q-119 176 -119 525t119 525q118 175 356 175t356 -175q119 -176 119 -525t-119 -525q-118 -175 -356 -175zM775 1283q-179 0 -267 -145q-89 -146 -89 -438t89 -438q88 -145 267 -145t267 145q89 146 89 438t-89 438q-88 145 -267 145zM775 233
q-119 0 -178 117q-59 118 -59 350t59 350q59 117 178 117q120 0 178 -117q59 -118 59 -350t-59 -350q-58 -117 -178 -117zM775 1050q-59 0 -89 -87q-30 -88 -30 -263t30 -262q30 -88 89 -88t89 88q30 87 30 262t-30 263q-30 87 -89 87z" />
    <glyph glyph-name="uni17DA" unicode="&#x17da;" horiz-adv-x="3501" 
d="M2906 738q41 18 87 30q117 32 262 32q95 0 95 -75t-99 -75h-120q-86 0 -152 -33q20 -42 29 -76q7 -27 7 -53q0 -62 -47 -98q-56 -43 -108 -43q-11 0 -16 1q-60 8 -110 71q-39 50 -39 99q0 14 3 29q15 59 89 120q-7 11 -15.5 22.5t-16.5 23.5q-9 11 -17 22t-16 21
q-46 -42 -102 -87q-39 -32 -72 -59.5t-61 -50.5q21 -40 32 -71q16 -45 16 -82q0 -57 -42 -89q-58 -43 -110 -43q-12 0 -18 1q-61 9 -113 76q-23 31 -23 69q0 46 35 108q8 14 18.5 28.5t22.5 30.5q-18 25 -39.5 53t-46.5 60l-69 86q-25 -28 -52.5 -57.5t-59.5 -61.5
q-37 -36 -69.5 -68t-59.5 -60q46 -68 67 -119q23 -57 23 -97q0 -61 -46 -95q-71 -55 -137 -55q-9 0 -13 1q-71 6 -134 80q-31 37 -31 87t32 117q24 47 58 96l-99 108q-19 20 -37.5 40.5t-35.5 39.5q-68 -97 -160 -208q-223 -267 -418 -400q-197 -134 -363 -134
q-208 0 -311 187q-104 188 -104 563q0 374 119 562t356 188q239 0 357 -99t118 -297q0 -202 -86 -326q-87 -124 -260 -168q-21 -6 -38 -6q-51 0 -66 54q-4 12 -4 26q0 51 69 70q117 30 176 116t59 227q0 126 -81 189q-82 64 -244 64t-243 -150q-81 -148 -81 -443v-7
q0 -300 66 -450t199 -150q131 0 294 116q161 115 355 348q60 72 109.5 134.5t87.5 114.5q-54 77 -80 142q-25 60 -25 114q0 66 42 114q73 84 148 86h2q71 0 145 -83q37 -41 37 -106q0 -63 -38 -153q-21 -49 -59 -114q21 -25 45 -51t50 -54q23 -25 45 -49t41 -47
q25 28 52.5 56.5t58.5 59.5q81 77 138 135q-31 58 -54 125q-16 47 -16 86q0 67 49 104q68 51 127 51q11 0 16 -1q67 -7 124 -81q26 -34 26 -79q0 -55 -37 -126q-11 -21 -25 -43.5t-31 -47.5q17 -23 37.5 -48.5t43.5 -54.5q22 -28 42 -54t37 -51q23 23 49.5 46t55.5 48
q71 58 125 104q-24 49 -34 83q-9 32 -9 59q0 60 46 94q56 42 108 42q12 0 18 -1q60 -7 114 -75q24 -30 24 -69q0 -45 -35 -104q-19 -31 -48 -66l47 -60q11 -14 21.5 -28t20.5 -28zM1543 979q61 94 61 132q0 13 -7 20q-24 24 -47 24q-28 0 -54 -35q-7 -8 -7 -23
q0 -35 42 -100q5 -9 12 -18zM2161 1018q40 49 40 69q0 3 -2 7q-15 20 -33 20q-13 0 -30 -12q-5 -5 -5 -13q0 -21 30 -71zM2732 979q25 25 25 31q0 1 -1 1q-5 5 -11 5q-8 0 -19 -9q-2 -2 -2 -5q0 -7 8 -23zM2871 538q-16 -16 -16 -26q0 -4 1 -5q5 -8 12 -8q6 0 13 6q1 1 1 4
q0 5 -11 29zM2388 468q-21 -22 -21 -29q0 -1 1 -2q8 -8 16 -8t16 5q2 2 2 4q0 7 -14 30zM1821 439q-44 -56 -44 -81q0 -7 4 -11q19 -22 41 -22q18 0 37 15q6 5 6 13q0 25 -44 86z" />
    <glyph glyph-name="uni17DB" unicode="&#x17db;" horiz-adv-x="600" 
d="M590 800l-100 -100h-90v-550l-112 -112q-38 -38 -63 -38t-25 35q0 82 -95 174t-95 191q0 50 50 83l140 97v120h-190l100 100h90v60q0 61 -142 80q-48 6 -48 46q0 41 25 100l165 414h300q0 -120 -26 -207q-27 -85 -90 -123q16 60 16 96q0 34 -50 34h-133l-69 -173
q125 -22 189 -74q63 -49 63 -129v-124h190zM150 441l53 -62v105z" />
    <glyph glyph-name="uni17DC" unicode="&#x17dc;" horiz-adv-x="1350" 
d="M675 -10q-237 0 -356 77.5t-119 225.5q0 70 26 108t75 52.5t128 14.5q60 0 60 -60q0 -58 -60 -58q-41 0 -41 -58q0 -146 287 -146q142 0 215 57t73 157q0 78 -34 118t-94 52.5t-160 12.5q-239 0 -357 72.5t-118 226.5q0 177 120 272.5t355 95.5q475 0 475 -300
q0 -71 -25 -108q-25 -39 -74.5 -53.5t-128.5 -14.5q-60 0 -60 59q0 58 60 58q41 0 41 59q0 69 -73 107t-215 38q-141 0 -214 -57t-73 -156q0 -78 34 -118q33 -40 93.5 -53t159.5 -13q239 0 357 -72.5t118 -226.5q0 -177 -120 -273t-355 -96z" />
    <glyph glyph-name="uni17DD" unicode="&#x17dd;" horiz-adv-x="0" 
d="M-898 1470h-191q0 301 445 301t445 -301h-194q0 181 -252 181q-253 0 -253 -181z" />
    <glyph glyph-name="uni17E0" unicode="&#x17e0;" 
d="M200 300v900q0 100 175 200t225 100t159 -63q241 -136 241 -237v-900q0 -100 -175 -200t-225 -100q-49 0 -159 63q-241 136 -241 237zM400 1200v-850q0 -34 138 -114q139 -79 176 -79t61 15q25 13 25 128v850q0 35 -138 114q-139 79 -176 79t-61 -15q-25 -13 -25 -128z
" />
    <glyph glyph-name="uni17E1" unicode="&#x17e1;" 
d="M800 250v900q0 35 -138 114q-139 79 -176 79t-61 -15q-25 -13 -25 -128v-50h50q150 0 150 -150t-131 -281l-169 -169l-100 99v551q0 100 175 200t225 100t159 -63q241 -136 241 -237v-910q0 -105 -201 -221q-100 -58 -185 -67q-8 -1 -15.5 -1.5t-15.5 -0.5q-66 0 -122 32
q-68 38 -136 43h-7q-65 0 -138 -88q-1 10 -1.5 18.5t-0.5 16.5v10q1 10 2 19t3 16q15 47 69 103q55 57 135 73q25 5 45 5q59 0 118 -35q128 -75 183 -75q15 0 24 6q43 25 43 106zM450 1000h-50v-191q90 89 90 150q0 41 -40 41z" />
    <glyph glyph-name="uni17E2" unicode="&#x17e2;" horiz-adv-x="1500" 
d="M1100 300v1000h-60q-89 0 -208 -162l7 41q5 35 5 55q0 66 -44 66h-182q-18 -42 -18 -74q0 -27 15 -47q30 -41 213 -101q-40 -106 -130 -169q-112 24 -155 55t-43 174q0 141 50 252l50 110h240q70 0 70 -130q75 130 160 130h230v-1200q0 -40 -49.5 -82t-125 -81
t-156.5 -70t-147 -49t-94 -18q-69 0 -222 63q-112 46 -185 86t-118 86.5t-74 109.5q43 14 57 34.5t14 50.5v1253q0 63 -50 99q-49 38 -150 48l99 50q49 25 99 25q49 0 101 -26q101 -51 101 -199v-1240q0 -40 -27 -61q0 -13 46.5 -39.5t117 -57.5t145 -59.5t133.5 -47
t79 -18.5q26 0 61 1.5t68 13t55 41.5t22 87z" />
    <glyph glyph-name="uni17E3" unicode="&#x17e3;" horiz-adv-x="1600" 
d="M900 150l-200 -200v1200q0 35 -111 114q-110 79 -139 79q-27 0 -39 -14q-11 -16 -11 -129v-550h50q76 0 113 -37t37 -113q0 -150 -131 -281l-175 -175q-44 -44 -69 -44t-25 40v1160q0 100 153 200q152 100 197 100t139 -63q65 -42 107 -78q13 10 27 20.5t30 20.5
q152 100 197 100t139 -63q211 -136 211 -237v-1050l-200 -200v1200q0 35 -111 114q-110 79 -139 79q-27 0 -39 -14q-11 -16 -11 -129v-1050zM450 500h-50v-191q90 89 90 150q0 41 -40 41z" />
    <glyph glyph-name="uni17E4" unicode="&#x17e4;" 
d="M362 1135q161 137 300 201q138 65 138 164q0 120 -50 200t-50 167q0 83 56 157q55 75 188 120q-79 -109 -79 -198q2 -61 68 -163q67 -103 67 -283q0 -142 -222 -229q-223 -88 -300 -183q-78 -96 -78 -208v-720l119 214q292 -184 351 -184q10 0 13 6q2 6 2 9
q0 41 -135 132q-150 102 -150 313q0 174 65 263q65 87 195 87q140 0 140 -150q0 -151 -100 -182q0 132 -40 132q-60 0 -60 -150q0 -100 100 -188t100 -201q0 -114 -40 -187q-41 -74 -124 -74q-84 0 -329 167l-53 -83q-54 -84 -154 -84l-100 100v780q0 119 162 255z" />
    <glyph glyph-name="uni17E5" unicode="&#x17e5;" 
d="M598 1220q61 20 100 50q102 80 102 230q0 120 -50 200t-50 167q0 83 56 157q55 75 188 120q-79 -109 -79 -198q2 -61 68 -163q67 -103 67 -283q0 -101 -230 -301q-149 -128 -283 -175q-87 -112 -87 -224v-640l119 214q292 -184 351 -184q10 0 13 6q2 6 2 9q0 41 -135 132
q-150 102 -150 263q0 124 65 213q65 87 195 87q140 0 140 -150q0 -151 -100 -182q0 132 -40 132q-60 0 -60 -100q0 -50 100 -138t100 -201q0 -114 -40 -187q-41 -74 -124 -74q-84 0 -329 167l-53 -83q-54 -84 -154 -84l-100 100v700q0 70 108 203q-79 10 -119 61
q-39 53 -39 144q0 150 66 220q65 72 184 72q110 0 155 -62q45 -63 45 -188v-7q0 -7 -2 -23zM501 1250v2q0 48 -101 48q-124 0 -130 -55q-1 -3 -1 -8q0 -47 81 -47q69 0 127 6q23 33 24 54z" />
    <glyph glyph-name="uni17E6" unicode="&#x17e6;" 
d="M800 300v850q0 35 -138 114q-139 79 -176 79t-61 -15q-25 -13 -25 -78q0 -106 -100 -106t-100 106v420q0 40 -24 40q-23 0 -76 -30q100 220 180 220q120 0 120 -230v-256q155 86 200 86q50 0 159 -63q241 -136 241 -237v-900q0 -100 -175 -200t-225 -100q-49 0 -159 63
q-241 136 -241 237v400q0 50 101 125t170 75q66 0 97 -36q32 -37 32 -109q0 -51 -50 -103q-49 -52 -150 -102v-200q0 -34 138 -114q139 -79 176 -79t61 15q25 13 25 128zM400 761v-106q50 32 50 86q0 33 -19 33q-12 0 -31 -13z" />
    <glyph glyph-name="uni17E7" unicode="&#x17e7;" horiz-adv-x="1500" 
d="M543 1084l-143 154v-588q96 0 133 -37t37 -113q0 -169 -101 -281l-175 -175q-44 -44 -69 -44t-25 40v1160q180 300 205 301h1q26 0 111 -91l86 -92l89 91q88 91 113 91q24 0 110 -95q85 -94 85 -140v-45q-150 -250 -150 -420v-500q0 -50 80 -125t125 -75t45 200v1200
q0 175 75 275q74 99 225 125q-100 -100 -100 -400v-1200q0 -111 -115 -205q-116 -95 -210 -95q-95 0 -210 100t-115 200v450q0 147 128 380q22 40 22 71q0 29 -20 52q-19 21 -39 21q-24 0 -51 -29zM400 500v-191q60 69 60 130t-60 61z" />
    <glyph glyph-name="uni17E8" unicode="&#x17e8;" 
d="M1000 850v-690q0 -58 -51 -109t-149 -51q-117 0 -156 47l-118 140l-79 -93q-79 -94 -113 -94t-84 50t-50 110v1040q0 100 160 200q158 100 205 100q46 0 145 -63l89 -50q1 8 1 16.5v16.5q0 120 -50 200t-50 167q0 83 56 157q55 75 188 120q-79 -109 -79 -198
q2 -61 68 -163q67 -103 67 -283q0 -29 -23.5 -66.5t-57 -73t-66.5 -60t-51 -27.5q-3 -1 -12 -1q-55 0 -168 72q-124 76 -170 76q-12 0 -17 -4q-35 -23 -35 -79v-1088l200 239l200 -239v717q0 54 -40 54q-40 -1 -40 -157q0 -133 50 -183q-110 0 -165 46t-55 137q0 104 75 183
q75 80 150 80q76 0 150 -73q75 -73 75 -123z" />
    <glyph glyph-name="uni17E9" unicode="&#x17e9;" 
d="M715 950q9 1 18 1.5t18 0.5q82 0 154 -42q131 -75 131 -151q0 -19 -7 -34q-22 -57 -69 -57q-30 0 -70 22l-104 57q-85 49 -155 49q-66 0 -119 -42q-111 -87 -112 -304v-1q0 -122 162 -211q95 -53 149 -53q39 0 55 28q5 8 5 18q0 74 -268 270q105 72 168 72q24 0 41 -10
q193 -114 193 -246t-110 -224q-109 -93 -166 -93q-54 0 -242 107q-186 106 -187 343q0 76 63 203q65 128 273 239q1 0 1 1q-20 8 -43 18.5t-49 24.5q-145 81 -145 221q0 141 85 241q85 101 187 103q101 0 313 -173q73 368 114 421q40 50 96 52h1q104 0 104 -171
q-95 0 -152 -83q-56 -83 -66 -164l-9 -82q-11 -97 -85 -134q-18 -9 -40 -9q-71 0 -192 98q-77 64 -129 79q-18 5 -30 5q-30 0 -47 -23q-50 -68 -50 -96t158 -117l159 -90q1 -8 1 -24q0 -22 -3 -40z" />
    <glyph glyph-name="uni25CC" unicode="&#x25cc;" horiz-adv-x="1217" 
d="M662 1053q0 -56 -54 -56q-53 0 -53 56q0 53 53 53q54 0 54 -53zM489 1016q0 -53 -55 -53q-53 0 -53 53q0 55 53 55q55 0 55 -55zM836 1016q0 -53 -52 -53q-57 0 -57 53q0 55 57 55q52 0 52 -55zM342 918q0 -54 -55 -54q-54 0 -54 51q0 58 54 58q55 0 55 -55zM983 918
q0 -54 -51 -54q-55 0 -55 54q0 55 55 55q51 0 51 -55zM242 770q0 -55 -52 -55q-57 0 -57 55q0 53 55 53q54 0 54 -53zM1083 770q0 -55 -55 -55q-53 0 -53 55q0 53 55 53q53 0 53 -53zM207 596q0 -53 -53 -53q-56 0 -56 53t56 53q53 0 53 -53zM1118 596q0 -53 -51 -53
q-55 0 -55 53t55 53q51 0 51 -53zM242 422q0 -53 -54 -53q-55 0 -55 53q0 55 55 55q54 0 54 -55zM1083 422q0 -53 -55 -53q-53 0 -53 53q0 55 53 55q55 0 55 -55zM342 272q0 -53 -55 -53q-54 0 -54 53q0 56 54 56q55 0 55 -56zM983 272q0 -53 -51 -53q-55 0 -55 53
q0 56 55 56q51 0 51 -56zM489 178q0 -55 -55 -55q-53 0 -53 51q0 55 53 55q55 0 55 -51zM836 174q0 -51 -52 -51q-57 0 -57 51q0 55 57 55q52 0 52 -55zM662 141q0 -55 -54 -55q-53 0 -53 55q0 54 53 54q54 0 54 -54z" />
    <glyph glyph-name="uni1789.a" horiz-adv-x="1800" 
d="M1600 1500v-1350l-200 -200v1350h-120q-163 0 -280 -151v-999l-200 -200v1350h-100q-89 0 -208 -162l7 41q5 35 5 55q0 66 -44 66h-243l-49 -133q104 -22 169 -73q63 -51 63 -130v-314h50q150 0 150 -150t-131 -281l-175 -175q-44 -44 -69 -44t-25 40v860q0 60 -122 80
q-48 6 -48 46q0 41 25 100l145 374h300q70 0 70 -130q75 130 160 130h270v-200q146 200 310 200h290zM450 500h-50v-191q90 89 90 150q0 41 -40 41z" />
    <glyph glyph-name="uni17BF.b" horiz-adv-x="600" 
d="M400 1877v-2777q0 -100 -175 -200t-225 -100q-49 0 -159 63q-241 136 -241 237v100l113 113q37 37 62 37t25 -50v-150q0 -34 138 -114q139 -79 176 -79t61 15q25 13 25 128v2777q0 72 -125 95q-188 38 -331 39h-24q-128 0 -221 -30l36 80q54 121 126 187q70 67 161 79
q48 7 102 7q19 0 37.5 -1t37.5 -3q74 -7 177 -42q22 31 22 50q0 26 -42 63l94 99l24 -29q24 -31 24 -85q0 -36 -70 -115q115 -46 133 -102q37 46 37 69q0 26 -42 63l94 99l24 -30q24 -30 24 -83q0 -56 -74 -127l-102 -105q78 -36 78 -178zM-144 2138q7 1 24 1q118 0 395 -68
l15 16l-216 78q-108 34 -204 34h-20q-105 -3 -207 -128q97 59 213 67z" />
    <glyph glyph-name="uni17C0.b" horiz-adv-x="600" 
d="M400 924v-1824q0 -100 -175 -200t-225 -100q-49 0 -159 63q-241 136 -241 237v100l113 113q37 37 62 37t25 -50v-150q0 -34 138 -114q139 -79 176 -79t61 15q25 13 25 128v1760q0 61 -142 80q-48 6 -48 46q0 41 25 100l165 414h150q46 0 68 -30q22 -31 22 -92
q41 43 47 77v5q0 41 -105 200q-112 169 -112 257q0 83 56 157q55 75 188 120q-79 -109 -79 -198q2 -61 68 -163q67 -103 67 -233q0 -220 -84 -321q-71 -83 -130 -83q-13 0 -25 4q14 32 18 66v5q0 29 -38 29h-94l-69 -173q125 -22 189 -74q63 -49 63 -129z" />
    <glyph glyph-name="uni17B6.space" horiz-adv-x="600" 
 />
    <glyph glyph-name="uni1780_17B6" 
d="M790 1300h-492l-24 -50q66 -27 120 -75q29 -26 29 -54q0 -24 -21 -50q-47 -56 -108 -71q-30 53 -79 78q-43 22 -101 22h-14l200 400h530q70 0 70 -130q75 130 160 130h540v-1350l-200 -200v1350h-370q-89 0 -208 -162l7 41q5 35 5 55q0 66 -44 66zM400 800v-650
l-200 -200v850q0 100 175 200t225 100t159 -63q241 -136 241 -237v-650l-200 -200v800q0 35 -138 114q-139 79 -176 79t-61 -15q-25 -13 -25 -128z" />
    <glyph glyph-name="uni1780_17C5" 
d="M1400 1242v58h-370q-89 0 -208 -162l7 41q5 35 5 55q0 66 -44 66h-492l-24 -50q66 -27 120 -75q29 -26 29 -54q0 -24 -21 -50q-47 -56 -108 -71q-30 53 -79 78q-43 22 -101 22h-14l200 400h530q70 0 70 -130q75 130 160 130h427q-17 72 -75 160q-112 169 -112 257
q0 83 56 157q55 75 188 120q-79 -109 -79 -198q2 -61 68 -163q67 -103 67 -233q0 -27 -1.5 -52t-3.5 -48h5v-1350l-200 -200v1247q-5 -1 -13 -1q-14 0 -26 4q21 20 39 42zM400 800v-650l-200 -200v850q0 100 175 200t225 100t159 -63q241 -136 241 -237v-650l-200 -200v800
q0 35 -138 114q-139 79 -176 79t-61 -15q-25 -13 -25 -128z" />
    <glyph glyph-name="uni1781_17B6" 
d="M978 1263q21 -33 21 -63v-200q0 -90 -300 -290l-300 -200v-210q0 -115 25 -128q24 -15 61 -15t176 79q138 80 138 114v200l200 200v-450q0 -101 -241 -237q-109 -63 -159 -63t-225 100t-175 200v330q200 0 400 140t200 230v150q0 35 -138 114q-139 79 -176 79t-61 -15
q-25 -13 -25 -128h40q160 0 160 -105t-150 -200q-151 -95 -205 -95q-45 0 -45 80v320q0 100 175 200t225 100t159 -63q91 -51 151 -101q218 164 391 164h300v-1350l-200 -200v1350h-200q-111 0 -222 -37zM433 1090h-34v-85q68 38 68 57q0 28 -34 28z" />
    <glyph glyph-name="uni1781_17C5" 
d="M1400 1242v58h-200q-111 0 -222 -37q21 -33 21 -63v-200q0 -90 -300 -290l-300 -200v-210q0 -115 25 -128q24 -15 61 -15t176 79q138 80 138 114v200l200 200v-450q0 -101 -241 -237q-109 -63 -159 -63t-225 100t-175 200v330q200 0 400 140t200 230v150q0 35 -138 114
q-139 79 -176 79t-61 -15q-25 -13 -25 -128h40q160 0 160 -105t-150 -200q-151 -95 -205 -95q-45 0 -45 80v320q0 100 175 200t225 100t159 -63q91 -51 151 -101q218 164 391 164h187q-17 72 -75 160q-112 169 -112 257q0 83 56 157q55 75 188 120q-79 -109 -79 -198
q2 -61 68 -163q67 -103 67 -233q0 -27 -1.5 -52t-3.5 -48h5v-1350l-200 -200v1247q-5 -1 -13 -1q-14 0 -26 4q21 20 39 42zM433 1090h-34v-85q68 38 68 57q0 28 -34 28z" />
    <glyph glyph-name="uni1782_17B6" 
d="M790 1300h-492l-24 -50q66 -27 120 -75q29 -26 29 -54q0 -24 -21 -50q-47 -56 -108 -71q-30 53 -79 78q-43 22 -101 22h-14l200 400h530q70 0 70 -130q75 130 160 130h540v-1350l-200 -200v1350h-370q-89 0 -208 -162l7 41q5 35 5 55q0 66 -44 66zM281 38
q-32 -38 -56 -38q-25 0 -25 40v760q0 100 175 200t225 100t159 -63q241 -136 241 -237v-650l-200 -200v800q0 35 -138 114q-139 79 -176 79t-61 -15q-25 -13 -25 -128v-451q64 151 162 151q42 0 91 -35q47 -36 47 -100q0 -65 -100 -110q-18 45 -75 45q-28 0 -59 -37z" />
    <glyph glyph-name="uni1782_17C5" 
d="M1400 1242v58h-370q-89 0 -208 -162l7 41q5 35 5 55q0 66 -44 66h-492l-24 -50q66 -27 120 -75q29 -26 29 -54q0 -24 -21 -50q-47 -56 -108 -71q-30 53 -79 78q-43 22 -101 22h-14l200 400h530q70 0 70 -130q75 130 160 130h427q-17 72 -75 160q-112 169 -112 257
q0 83 56 157q55 75 188 120q-79 -109 -79 -198q2 -61 68 -163q67 -103 67 -233q0 -27 -1.5 -52t-3.5 -48h5v-1350l-200 -200v1247q-5 -1 -13 -1q-14 0 -26 4q21 20 39 42zM225 0q-25 0 -25 40v760q0 100 175 200t225 100t159 -63q241 -136 241 -237v-650l-200 -200v800
q0 35 -138 114q-139 79 -176 79t-61 -15q-25 -13 -25 -128v-451q64 151 162 151q42 0 91 -35q47 -36 47 -100q0 -65 -100 -110q-18 45 -75 45q-28 0 -59 -37l-185 -225q-32 -38 -56 -38z" />
    <glyph glyph-name="uni1783_17B6" horiz-adv-x="1800" 
d="M1600 964v-664q0 -99 -179 -200q-179 -100 -231 -100q-50 0 -163 63q-78 44 -132 84q-33 -25 -74 -47q-179 -100 -231 -100q-50 0 -163 63q-123 69 -185 128t-94 154q32 14 42 34.5t10 50.5v640q146 14 193 71q47 56 47 113q0 43 -27.5 64.5t-62.5 21.5q-50 0 -50 -45
q0 -44 60 -49v-1q0 -78 -120 -78h-9q-131 3 -131 133q0 101 60 150q61 50 140 50q121 0 185 -70q65 -71 65 -170q0 -111 -40 -200q-41 -91 -110 -160v-490q0 -39 -20 -61q0 -32 144 -112q151 -80 188 -80q38 0 62 15q26 14 26 128v560q0 61 -142 80q-48 6 -48 46
q0 41 25 100l165 414h300q0 -120 -26 -207q-27 -85 -90 -123q16 60 16 96q0 34 -50 34h-133l-69 -173q125 -22 189 -74q63 -49 63 -129v-606q35 -32 124 -81q151 -80 188 -80q38 0 62 15q26 14 26 128v600q0 60 -122 80q-48 6 -48 46q0 41 25 100l145 374h800v-1350
l-200 -200v1350h-583l-49 -133q104 -22 169 -73q63 -51 63 -130z" />
    <glyph glyph-name="uni1783_17C5" horiz-adv-x="1800" 
d="M2000 1242v58h-583l-49 -133q104 -22 169 -73q63 -51 63 -130v-664q0 -99 -179 -200q-179 -100 -231 -100q-50 0 -163 63q-78 44 -132 84q-33 -25 -74 -47q-179 -100 -231 -100q-50 0 -163 63q-123 69 -185 128t-94 154q32 14 42 34.5t10 50.5v640q146 14 193 71
q47 56 47 113q0 43 -27.5 64.5t-62.5 21.5q-50 0 -50 -45q0 -44 60 -49v-1q0 -78 -120 -78h-9q-131 3 -131 133q0 101 60 150q61 50 140 50q121 0 185 -70q65 -71 65 -170q0 -111 -40 -200q-41 -91 -110 -160v-490q0 -39 -20 -61q0 -32 144 -112q151 -80 188 -80q38 0 62 15
q26 14 26 128v560q0 61 -142 80q-48 6 -48 46q0 41 25 100l165 414h300q0 -120 -26 -207q-27 -85 -90 -123q16 60 16 96q0 34 -50 34h-133l-69 -173q125 -22 189 -74q63 -49 63 -129v-606q35 -32 124 -81q151 -80 188 -80q38 0 62 15q26 14 26 128v600q0 60 -122 80
q-48 6 -48 46q0 41 25 100l145 374h687q-17 72 -75 160q-112 169 -112 257q0 83 56 157q55 75 188 120q-79 -109 -79 -198q2 -61 68 -163q67 -103 67 -233q0 -27 -1.5 -52t-3.5 -48h5v-1350l-200 -200v1247q-5 -1 -13 -1q-14 0 -26 4q21 20 39 42z" />
    <glyph glyph-name="uni1784_17B6" 
d="M965 1259q-20 -23 -52 -46q-10 -7 -20 -13.5t-21 -11.5q128 -104 128 -188v-850l-75 -75q-75 -75 -100 -75q-26 0 -93 82l-206 245l-241 -286q-35 -41 -60 -41t-25 40v470l-127 98q-43 31 -43 82q0 101 48 153l95 105q46 52 107 52q59 0 120 -60v-631l200 239l200 -239
v691q0 75 -59 152q-10 -1 -20 -1.5t-21 -0.5h-200q-159 0 -200 -50q-100 30 -100 100v470q0 40 -24 40q-23 0 -76 -30q100 220 180 220q120 0 120 -230v-370h216q-16 28 -16 49q0 71 50 121t150 50q101 0 150 -60q28 -34 40 -68q170 108 310 108h300v-1350l-200 -200v1350
h-200q-115 0 -235 -41zM729 1300q62 1 75 13q5 5 5 12q0 12 -13 29q-39 51 -67 51q-21 0 -34 -25q-6 -7 -6 -16q0 -24 40 -64zM200 711l-40 -42l40 -31v73z" />
    <glyph glyph-name="uni1784_17C5" 
d="M1400 1242v58h-200q-115 0 -235 -41q-20 -23 -52 -46q-10 -7 -20 -13.5t-21 -11.5q128 -104 128 -188v-850l-75 -75q-75 -75 -100 -75q-26 0 -93 82l-206 245l-241 -286q-35 -41 -60 -41t-25 40v470l-127 98q-43 31 -43 82q0 101 48 153l95 105q46 52 107 52
q59 0 120 -60v-631l200 239l200 -239v691q0 75 -59 152q-10 -1 -20 -1.5t-21 -0.5h-200q-159 0 -200 -50q-100 30 -100 100v470q0 40 -24 40q-23 0 -76 -30q100 220 180 220q120 0 120 -230v-370h216q-16 28 -16 49q0 71 50 121t150 50q101 0 150 -60q28 -34 40 -68
q170 108 310 108h187q-17 72 -75 160q-112 169 -112 257q0 83 56 157q55 75 188 120q-79 -109 -79 -198q2 -61 68 -163q67 -103 67 -233q0 -27 -1.5 -52t-3.5 -48h5v-1350l-200 -200v1247q-5 -1 -13 -1q-14 0 -26 4q21 20 39 42zM729 1300q62 1 75 13q5 5 5 12q0 12 -13 29
q-39 51 -67 51q-21 0 -34 -25q-6 -7 -6 -16q0 -24 40 -64zM200 711l-40 -42l40 -31v73z" />
    <glyph glyph-name="uni1785_17B6" 
d="M790 1300h-573l-49 -133q104 -22 169 -73q63 -51 63 -130v-554q0 -39 -20 -61q0 -32 144 -112q151 -80 188 -80q38 0 62 15q26 14 26 128v300h-30q-95 0 -132.5 39.5t-37.5 110.5q0 101 131 232q118 118 164 118q105 0 105 -100v-700q0 -99 -179 -200
q-179 -100 -231 -100q-50 0 -163 63q-123 69 -185 128t-94 154q32 14 42 34.5t10 50.5v470q0 60 -122 80q-48 6 -48 46q0 41 25 100l145 374h630q70 0 70 -130q75 130 160 130h540v-1350l-200 -200v1350h-370q-89 0 -208 -162l7 41q5 35 5 55q0 66 -44 66zM770 751h30v141
q-70 -69 -70 -105t40 -36z" />
    <glyph glyph-name="uni1785_17C5" 
d="M1400 1242v58h-370q-89 0 -208 -162l7 41q5 35 5 55q0 66 -44 66h-573l-49 -133q104 -22 169 -73q63 -51 63 -130v-554q0 -39 -20 -61q0 -32 144 -112q151 -80 188 -80q38 0 62 15q26 14 26 128v300h-30q-95 0 -132.5 39.5t-37.5 110.5q0 101 131 232q118 118 164 118
q105 0 105 -100v-700q0 -99 -179 -200q-179 -100 -231 -100q-50 0 -163 63q-123 69 -185 128t-94 154q32 14 42 34.5t10 50.5v470q0 60 -122 80q-48 6 -48 46q0 41 25 100l145 374h630q70 0 70 -130q75 130 160 130h427q-17 72 -75 160q-112 169 -112 257q0 83 56 157
q55 75 188 120q-79 -109 -79 -198q2 -61 68 -163q67 -103 67 -233q0 -27 -1.5 -52t-3.5 -48h5v-1350l-200 -200v1247q-5 -1 -13 -1q-14 0 -26 4q21 20 39 42zM770 751h30v141q-70 -69 -70 -105t40 -36z" />
    <glyph glyph-name="uni1786_17B6" 
d="M790 1300h-573l-49 -133q104 -22 169 -73q63 -51 63 -130v-364q138 0 206 -62q69 -63 69 -188q0 -150 70 -150q55 0 55 100v300h-30q-48 0 -81 10q-33 11 -51 30q-38 40 -38 110q0 101 131 232q118 118 164 118q105 0 105 -100v-700q0 -151 -64 -225q-63 -75 -191 -75
q-107 0 -161 88q-54 87 -54 262q0 75 -32 113q-33 37 -98 37v-350l-112 -112q-38 -38 -63 -38t-25 35q0 82 -95 174t-95 191q0 50 50 83l140 97v320q0 60 -122 80q-48 6 -48 46q0 41 25 100l145 374h630q70 0 70 -130q75 130 160 130h540v-1350l-200 -200v1350h-370
q-89 0 -208 -162l7 41q5 35 5 55q0 66 -44 66zM770 751h30v141q-70 -69 -70 -105t40 -36zM150 441l53 -62v105z" />
    <glyph glyph-name="uni1786_17C5" 
d="M1400 1242v58h-370q-89 0 -208 -162l7 41q5 35 5 55q0 66 -44 66h-573l-49 -133q104 -22 169 -73q63 -51 63 -130v-364q138 0 206 -62q69 -63 69 -188q0 -150 70 -150q55 0 55 100v300h-30q-48 0 -81 10q-33 11 -51 30q-38 40 -38 110q0 101 131 232q118 118 164 118
q105 0 105 -100v-700q0 -151 -64 -225q-63 -75 -191 -75q-107 0 -161 88q-54 87 -54 262q0 75 -32 113q-33 37 -98 37v-350l-112 -112q-38 -38 -63 -38t-25 35q0 82 -95 174t-95 191q0 50 50 83l140 97v320q0 60 -122 80q-48 6 -48 46q0 41 25 100l145 374h630q70 0 70 -130
q75 130 160 130h427q-17 72 -75 160q-112 169 -112 257q0 83 56 157q55 75 188 120q-79 -109 -79 -198q2 -61 68 -163q67 -103 67 -233q0 -27 -1.5 -52t-3.5 -48h5v-1350l-200 -200v1247q-5 -1 -13 -1q-14 0 -26 4q21 20 39 42zM770 751h30v141q-70 -69 -70 -105t40 -36z
M150 441l53 -62v105z" />
    <glyph glyph-name="uni1787_17B6" 
d="M1019 1410q153 90 281 90h300v-1350l-200 -200v1350h-200q-139 0 -279 -58q-49 -46 -95 -46q-14 0 -25 4q14 32 18 66v5q0 29 -38 29h-564l-49 -133q104 -22 169 -73q63 -51 63 -130v-655l200 239l200 -239v591l200 200v-950l-75 -75q-75 -75 -100 -75q-26 0 -93 82
l-206 245l-241 -286q-35 -41 -60 -41t-25 40v860q0 60 -122 80q-48 6 -48 46q0 41 25 100l145 374h620q46 0 68 -30q22 -31 22 -92q30 22 41 52q3 11 3 21q0 18 -9 31q-24 39 -93 114q-112 121 -112 205q0 59 56 113q56 55 188 86q-79 -78 -79 -142q2 -46 68 -118
q67 -73 67 -167q0 -34 -5 -71q-2 -25 -6.5 -48t-9.5 -44z" />
    <glyph glyph-name="uni1787_17C5" 
d="M1019 1410q153 90 281 90h187q-17 72 -75 160q-112 169 -112 257q0 83 56 157q55 75 188 120q-79 -109 -79 -198q2 -61 68 -163q67 -103 67 -233q0 -27 -1.5 -52t-3.5 -48h5v-1350l-200 -200v1247q-5 -1 -13 -1q-14 0 -26 4q21 20 39 42v58h-200q-139 0 -279 -58
q-49 -46 -95 -46q-14 0 -25 4q14 32 18 66v5q0 29 -38 29h-564l-49 -133q104 -22 169 -73q63 -51 63 -130v-655l200 239l200 -239v591l200 200v-950l-75 -75q-75 -75 -100 -75q-26 0 -93 82l-206 245l-241 -286q-35 -41 -60 -41t-25 40v860q0 60 -122 80q-48 6 -48 46
q0 41 25 100l145 374h620q46 0 68 -30q22 -31 22 -92q30 22 41 52q3 11 3 21q0 18 -9 31q-24 39 -93 114q-112 121 -112 205q0 59 56 113q56 55 188 86q-79 -78 -79 -142q2 -46 68 -118q67 -73 67 -167q0 -34 -5 -71q-2 -25 -6.5 -48t-9.5 -44z" />
    <glyph glyph-name="uni1788_17B6" horiz-adv-x="2400" 
d="M2200 964v-664q0 -99 -179 -200q-179 -100 -231 -100q-50 0 -163 63q-78 44 -132 84q-33 -25 -74 -47q-179 -100 -231 -100q-50 0 -163 63q-123 69 -185 128t-94 154q32 14 42 34.5t10 50.5v870h-583l-49 -133q104 -22 169 -73q63 -51 63 -130v-314h50q150 0 150 -150
t-131 -281l-175 -175q-44 -44 -69 -44t-25 40v860q0 60 -122 80q-48 6 -48 46q0 41 25 100l145 374h800v-1090q0 -39 -20 -61q0 -32 144 -112q151 -80 188 -80q38 0 62 15q26 14 26 128v560q0 61 -142 80q-48 6 -48 46q0 41 25 100l165 414h300q0 -120 -26 -207
q-27 -85 -90 -123q16 60 16 96q0 34 -50 34h-133l-69 -173q125 -22 189 -74q63 -49 63 -129v-606q35 -32 124 -81q151 -80 188 -80q38 0 62 15q26 14 26 128v600q0 60 -122 80q-48 6 -48 46q0 41 25 100l145 374h800v-1350l-200 -200v1350h-583l-49 -133q104 -22 169 -73
q63 -51 63 -130zM450 500h-50v-191q90 89 90 150q0 41 -40 41z" />
    <glyph glyph-name="uni1788_17C5" horiz-adv-x="2400" 
d="M2600 1242v58h-583l-49 -133q104 -22 169 -73q63 -51 63 -130v-664q0 -99 -179 -200q-179 -100 -231 -100q-50 0 -163 63q-78 44 -132 84q-33 -25 -74 -47q-179 -100 -231 -100q-50 0 -163 63q-123 69 -185 128t-94 154q32 14 42 34.5t10 50.5v870h-583l-49 -133
q104 -22 169 -73q63 -51 63 -130v-314h50q150 0 150 -150t-131 -281l-175 -175q-44 -44 -69 -44t-25 40v860q0 60 -122 80q-48 6 -48 46q0 41 25 100l145 374h800v-1090q0 -39 -20 -61q0 -32 144 -112q151 -80 188 -80q38 0 62 15q26 14 26 128v560q0 61 -142 80
q-48 6 -48 46q0 41 25 100l165 414h300q0 -120 -26 -207q-27 -85 -90 -123q16 60 16 96q0 34 -50 34h-133l-69 -173q125 -22 189 -74q63 -49 63 -129v-606q35 -32 124 -81q151 -80 188 -80q38 0 62 15q26 14 26 128v600q0 60 -122 80q-48 6 -48 46q0 41 25 100l145 374h687
q-17 72 -75 160q-112 169 -112 257q0 83 56 157q55 75 188 120q-79 -109 -79 -198q2 -61 68 -163q67 -103 67 -233q0 -27 -1.5 -52t-3.5 -48h5v-1350l-200 -200v1247q-5 -1 -13 -1q-14 0 -26 4q21 20 39 42zM450 500h-50v-191q90 89 90 150q0 41 -40 41z" />
    <glyph glyph-name="uni1789_17B6" horiz-adv-x="1800" 
d="M1310 1500h290v-200q146 200 310 200h290v-1350l-200 -200v1350h-120q-163 0 -280 -151v-999l-200 -200v1350h-120q-163 0 -280 -151v-999l-200 -200v1350h-100q-89 0 -208 -162l7 41q5 35 5 55q0 66 -44 66h-243l-49 -133q104 -22 169 -73q63 -51 63 -130v-314h50
q150 0 150 -150t-131 -281l-175 -175q-44 -44 -69 -44t-25 40v860q0 60 -122 80q-48 6 -48 46q0 41 25 100l145 374h300q70 0 70 -130q75 130 160 130h270v-200q146 200 310 200zM450 500h-50v-191q90 89 90 150q0 41 -40 41zM271 -379l-80 -90q-11 14 -11 32q0 50 77 142
q107 125 283 125q177 0 438 -150t367 -150q105 0 105 45t-40 85q-40 38 -140 40l150 150q180 -60 180 -180t-63 -180q-64 -60 -191 -60q-333 0 -551 123q-278 157 -342 157q-102 0 -182 -89z" />
    <glyph glyph-name="uni1789_17C5" horiz-adv-x="1800" 
d="M2000 1242v58h-120q-163 0 -280 -151v-999l-200 -200v1350h-120q-163 0 -280 -151v-999l-200 -200v1350h-100q-89 0 -208 -162l7 41q5 35 5 55q0 66 -44 66h-243l-49 -133q104 -22 169 -73q63 -51 63 -130v-314h50q150 0 150 -150t-131 -281l-175 -175q-44 -44 -69 -44
t-25 40v860q0 60 -122 80q-48 6 -48 46q0 41 25 100l145 374h300q70 0 70 -130q75 130 160 130h270v-200q146 200 310 200h290v-200q146 200 310 200h177q-17 72 -75 160q-112 169 -112 257q0 83 56 157q55 75 188 120q-79 -109 -79 -198q2 -61 68 -163q67 -103 67 -233
q0 -27 -1.5 -52t-3.5 -48h5v-1350l-200 -200v1247q-5 -1 -13 -1q-14 0 -26 4q21 20 39 42zM450 500h-50v-191q90 89 90 150q0 41 -40 41zM271 -379l-80 -90q-11 14 -11 32q0 50 77 142q107 125 283 125q177 0 438 -150t367 -150q105 0 105 45t-40 85q-40 38 -140 40l150 150
q180 -60 180 -180t-63 -180q-64 -60 -191 -60q-333 0 -551 123q-278 157 -342 157q-102 0 -182 -89z" />
    <glyph glyph-name="uni178A_17B6" 
d="M919 1241q-48 -57 -120 -113q-142 -112 -302 -112q-67 0 -133 19q-234 63 -234 146q0 40 94 188q62 83 138 114q45 17 92 17q36 0 73 -9q90 -23 113 -65q8 -14 8 -31q0 -32 -28 -70q-46 -66 -140 -66q-38 0 -85 12q7 11 7 22q0 23 -36 32q-13 3 -25 3q-32 0 -52 -26
q-3 -4 -3 -8q0 -35 184 -81q83 -21 147 -21q100 0 161 49q61 48 61 114q0 44 -29 99q-70 131 -70 262q0 68 49 127q48 60 162 96q-68 -89 -68 -159q2 -39 59 -141q58 -103 58 -207q0 -18 -3 -36q167 104 303 104h300v-1350l-200 -200v1350h-200q-137 0 -281 -59zM200 40v860
h200v-591l200 239l200 -239v591l200 200v-950l-75 -75q-75 -75 -100 -75q-26 0 -93 82l-206 245l-241 -286q-35 -41 -60 -41t-25 40z" />
    <glyph glyph-name="uni178A_17C5" 
d="M1400 1242v58h-200q-137 0 -281 -59q-48 -57 -120 -113q-142 -112 -302 -112q-67 0 -133 19q-234 63 -234 146q0 40 94 188q62 83 138 114q45 17 92 17q36 0 73 -9q90 -23 113 -65q8 -14 8 -31q0 -32 -28 -70q-46 -66 -140 -66q-38 0 -85 12q7 11 7 22q0 23 -36 32
q-13 3 -25 3q-32 0 -52 -26q-3 -4 -3 -8q0 -35 184 -81q83 -21 147 -21q100 0 161 49q61 48 61 114q0 44 -29 99q-70 131 -70 262q0 68 49 127q48 60 162 96q-68 -89 -68 -159q2 -39 59 -141q58 -103 58 -207q0 -18 -3 -36q167 104 303 104h187q-17 72 -75 160
q-112 169 -112 257q0 83 56 157q55 75 188 120q-79 -109 -79 -198q2 -61 68 -163q67 -103 67 -233q0 -27 -1.5 -52t-3.5 -48h5v-1350l-200 -200v1247q-5 -1 -13 -1q-14 0 -26 4q21 20 39 42zM200 40v860h200v-591l200 239l200 -239v591l200 200v-950l-75 -75
q-75 -75 -100 -75q-26 0 -93 82l-206 245l-241 -286q-35 -41 -60 -41t-25 40z" />
    <glyph glyph-name="uni178B_17B6" 
d="M1144 1432q100 68 156 68h300v-1350l-200 -200v1350h-100q-148 0 -226 -23q-69 -81 -127 -81q-14 0 -26 4q14 32 18 66v5q0 29 -38 29h-84l-69 -173q125 -22 189 -74q63 -49 63 -129v-624q0 -99 -179 -200q-179 -100 -231 -100q-50 0 -163 63q-123 69 -185 128t-94 154
q32 14 42 34.5t10 50.5v640q146 14 193 71q47 56 47 113q0 43 -27.5 64.5t-62.5 21.5q-50 0 -50 -45q0 -44 60 -49v-1q0 -78 -120 -78h-9q-131 3 -131 133q0 101 60 150q61 50 140 50q121 0 185 -70q65 -71 65 -170q0 -111 -40 -200q-41 -91 -110 -160v-490q0 -39 -20 -61
q0 -32 144 -112q151 -80 188 -80q38 0 62 15q26 14 26 128v560q0 61 -142 80q-48 6 -48 46q0 41 25 100l165 414h140q46 0 68 -30q22 -31 22 -92q30 22 41 52q3 11 3 21q0 18 -9 31q-24 39 -93 114q-112 121 -112 205q0 59 56 113q56 55 188 86q-79 -78 -79 -142
q2 -46 68 -118q67 -73 67 -167q0 -34 -5 -71q-2 -19 -4.5 -36t-6.5 -34z" />
    <glyph glyph-name="uni178B_17C5" 
d="M1144 1432q100 68 156 68h187q-17 72 -75 160q-112 169 -112 257q0 83 56 157q55 75 188 120q-79 -109 -79 -198q2 -61 68 -163q67 -103 67 -233q0 -27 -1.5 -52t-3.5 -48h5v-1350l-200 -200v1247q-5 -1 -13 -1q-14 0 -26 4q21 20 39 42v58h-100q-148 0 -226 -23
q-69 -81 -127 -81q-14 0 -26 4q14 32 18 66v5q0 29 -38 29h-84l-69 -173q125 -22 189 -74q63 -49 63 -129v-624q0 -99 -179 -200q-179 -100 -231 -100q-50 0 -163 63q-123 69 -185 128t-94 154q32 14 42 34.5t10 50.5v640q146 14 193 71q47 56 47 113q0 43 -27.5 64.5
t-62.5 21.5q-50 0 -50 -45q0 -44 60 -49v-1q0 -78 -120 -78h-9q-131 3 -131 133q0 101 60 150q61 50 140 50q121 0 185 -70q65 -71 65 -170q0 -111 -40 -200q-41 -91 -110 -160v-490q0 -39 -20 -61q0 -32 144 -112q151 -80 188 -80q38 0 62 15q26 14 26 128v560
q0 61 -142 80q-48 6 -48 46q0 41 25 100l165 414h140q46 0 68 -30q22 -31 22 -92q30 22 41 52q3 11 3 21q0 18 -9 31q-24 39 -93 114q-112 121 -112 205q0 59 56 113q56 55 188 86q-79 -78 -79 -142q2 -46 68 -118q67 -73 67 -167q0 -34 -5 -71q-2 -19 -4.5 -36t-6.5 -34z
" />
    <glyph glyph-name="uni178C_17B6" 
d="M1000 1270v-270q0 -90 -300 -290l-300 -200v-190q168 -188 262 -188q25 0 44 13l94 57v348l200 200v-810q0 -105 -201 -221q-100 -58 -185 -67q-8 -1 -15.5 -1.5t-15.5 -0.5q-66 0 -122 32q-68 38 -136 43h-7q-65 0 -138 -88q-1 8 -1.5 16t-0.5 15q0 31 8 58q12 38 66 94
q55 57 135 73q25 5 45 5q59 0 118 -35q128 -75 183 -75q15 0 24 6q44 26 44 96v198l-42 -25q-109 -63 -159 -63t-225 100t-175 200v330q200 0 400 140t200 230v300h-60q-89 0 -208 -162l7 41q5 35 5 55q0 66 -44 66h-182q-18 -42 -18 -74q0 -27 15 -47q30 -41 213 -101
q-40 -106 -130 -169q-112 24 -155 55t-43 174q0 141 50 252l50 110h240q70 0 70 -130q75 130 160 130h230v-102q164 102 300 102h300v-1350l-200 -200v1350h-200q-99 0 -200 -30z" />
    <glyph glyph-name="uni178C_17C5" 
d="M1400 1242v58h-200q-99 0 -200 -30v-270q0 -90 -300 -290l-300 -200v-190q168 -188 262 -188q25 0 44 13l94 57v348l200 200v-810q0 -105 -201 -221q-100 -58 -185 -67q-8 -1 -15.5 -1.5t-15.5 -0.5q-66 0 -122 32q-68 38 -136 43h-7q-65 0 -138 -88q-1 8 -1.5 16
t-0.5 15q0 31 8 58q12 38 66 94q55 57 135 73q25 5 45 5q59 0 118 -35q128 -75 183 -75q15 0 24 6q44 26 44 96v198l-42 -25q-109 -63 -159 -63t-225 100t-175 200v330q200 0 400 140t200 230v300h-60q-89 0 -208 -162l7 41q5 35 5 55q0 66 -44 66h-182q-18 -42 -18 -74
q0 -27 15 -47q30 -41 213 -101q-40 -106 -130 -169q-112 24 -155 55t-43 174q0 141 50 252l50 110h240q70 0 70 -130q75 130 160 130h230v-102q164 102 300 102h187q-17 72 -75 160q-112 169 -112 257q0 83 56 157q55 75 188 120q-79 -109 -79 -198q2 -61 68 -163
q67 -103 67 -233q0 -27 -1.5 -52t-3.5 -48h5v-1350l-200 -200v1247q-5 -1 -13 -1q-14 0 -26 4q21 20 39 42z" />
    <glyph glyph-name="uni178D_17B6" horiz-adv-x="1800" 
d="M2000 -50v1350h-583l-69 -173q125 -22 189 -74q63 -49 63 -129v-624q0 -151 -64 -225q-63 -75 -191 -75q-107 0 -161 88q-54 87 -54 262q0 75 -32 113q-33 37 -98 37v-350l-112 -112q-38 -38 -63 -38t-25 35q0 82 -95 174t-95 191q0 50 50 83l140 97v720h-100
q-89 0 -208 -162l7 41q5 35 5 55q0 66 -44 66h-243l-49 -133q104 -22 169 -73q63 -51 63 -130v-314h40q75 0 113 -32q37 -33 37 -98q0 -121 -127 -270l-170 -200q-44 -50 -68 -50q-25 0 -25 40v860q0 60 -122 80q-48 6 -48 46q0 41 25 100l145 374h300q70 0 70 -130
q75 130 160 130h270v-900q138 0 206 -62q69 -63 69 -188q0 -150 70 -150q55 0 55 100v560q0 61 -142 80q-48 6 -48 46q0 41 25 100l165 414h800v-1350zM440 500h-40v-171q77 89 77 140q0 31 -37 31zM750 441l53 -62v105z" />
    <glyph glyph-name="uni178D_17C5" horiz-adv-x="1800" 
d="M2000 1242v58h-583l-69 -173q125 -22 189 -74q63 -49 63 -129v-624q0 -151 -64 -225q-63 -75 -191 -75q-107 0 -161 88q-54 87 -54 262q0 75 -32 113q-33 37 -98 37v-350l-112 -112q-38 -38 -63 -38t-25 35q0 82 -95 174t-95 191q0 50 50 83l140 97v720h-100
q-89 0 -208 -162l7 41q5 35 5 55q0 66 -44 66h-243l-49 -133q104 -22 169 -73q63 -51 63 -130v-314h40q75 0 113 -32q37 -33 37 -98q0 -121 -127 -270l-170 -200q-44 -50 -68 -50q-25 0 -25 40v860q0 60 -122 80q-48 6 -48 46q0 41 25 100l145 374h300q70 0 70 -130
q75 130 160 130h270v-900q138 0 206 -62q69 -63 69 -188q0 -150 70 -150q55 0 55 100v560q0 61 -142 80q-48 6 -48 46q0 41 25 100l165 414h687q-17 72 -75 160q-112 169 -112 257q0 83 56 157q55 75 188 120q-79 -109 -79 -198q2 -61 68 -163q67 -103 67 -233
q0 -27 -1.5 -52t-3.5 -48h5v-1350l-200 -200v1247q-5 -1 -13 -1q-14 0 -26 4q21 20 39 42zM440 500h-40v-171q77 89 77 140q0 31 -37 31zM750 441l53 -62v105z" />
    <glyph glyph-name="uni178E_17B6" horiz-adv-x="2400" 
d="M2200 1270v-1120l-200 -200v1350h-583l-49 -133q104 -22 169 -73q63 -51 63 -130v-814l-75 -75q-75 -75 -100 -75q-26 0 -93 82l-206 245l-241 -286q-35 -41 -60 -41t-25 40v1260h-583l-49 -133q104 -22 169 -73q63 -51 63 -130v-314h50q150 0 150 -150t-131 -281
l-175 -175q-44 -44 -69 -44t-25 40v860q0 60 -122 80q-48 6 -48 46q0 41 25 100l145 374h800v-1191l200 239l200 -239v591q0 60 -122 80q-48 6 -48 46q0 41 25 100l145 374h800v-102q164 102 300 102h300v-1350l-200 -200v1350h-200q-99 0 -200 -30zM450 500h-50v-191
q90 89 90 150q0 41 -40 41z" />
    <glyph glyph-name="uni178E_17C5" horiz-adv-x="2400" 
d="M2600 1242v58h-200q-99 0 -200 -30v-1120l-200 -200v1350h-583l-49 -133q104 -22 169 -73q63 -51 63 -130v-814l-75 -75q-75 -75 -100 -75q-26 0 -93 82l-206 245l-241 -286q-35 -41 -60 -41t-25 40v1260h-583l-49 -133q104 -22 169 -73q63 -51 63 -130v-314h50
q150 0 150 -150t-131 -281l-175 -175q-44 -44 -69 -44t-25 40v860q0 60 -122 80q-48 6 -48 46q0 41 25 100l145 374h800v-1191l200 239l200 -239v591q0 60 -122 80q-48 6 -48 46q0 41 25 100l145 374h800v-102q164 102 300 102h187q-17 72 -75 160q-112 169 -112 257
q0 83 56 157q55 75 188 120q-79 -109 -79 -198q2 -61 68 -163q67 -103 67 -233q0 -27 -1.5 -52t-3.5 -48h5v-1350l-200 -200v1247q-5 -1 -13 -1q-14 0 -26 4q21 20 39 42zM450 500h-50v-191q90 89 90 150q0 41 -40 41z" />
    <glyph glyph-name="uni178F_17B6" 
d="M790 1300h-492l-24 -50q66 -27 120 -75q29 -26 29 -54q0 -24 -21 -50q-47 -56 -108 -71q-30 53 -79 78q-43 22 -101 22h-14l200 400h530q70 0 70 -130q75 130 160 130h540v-1350l-200 -200v1350h-370q-89 0 -208 -162l7 41q5 35 5 55q0 66 -44 66zM225 0q-25 0 -25 40
v760q0 100 175 200t225 100t159 -63q241 -136 241 -237v-650l-200 -200v800q0 35 -138 114q-139 79 -176 79t-61 -15q-25 -13 -25 -128v-250h50q76 0 113 -25q37 -24 37 -74q0 -101 -131 -232l-175 -175q-44 -44 -69 -44zM450 450h-50v-141q90 89 90 115t-40 26z" />
    <glyph glyph-name="uni178F_17C5" 
d="M1400 1242v58h-370q-89 0 -208 -162l7 41q5 35 5 55q0 66 -44 66h-492l-24 -50q66 -27 120 -75q29 -26 29 -54q0 -24 -21 -50q-47 -56 -108 -71q-30 53 -79 78q-43 22 -101 22h-14l200 400h530q70 0 70 -130q75 130 160 130h427q-17 72 -75 160q-112 169 -112 257
q0 83 56 157q55 75 188 120q-79 -109 -79 -198q2 -61 68 -163q67 -103 67 -233q0 -27 -1.5 -52t-3.5 -48h5v-1350l-200 -200v1247q-5 -1 -13 -1q-14 0 -26 4q21 20 39 42zM200 40v760q0 100 175 200t225 100t159 -63q241 -136 241 -237v-650l-200 -200v800q0 35 -138 114
q-139 79 -176 79t-61 -15q-25 -13 -25 -128v-250h50q76 0 113 -25q37 -24 37 -74q0 -101 -131 -232l-175 -175q-44 -44 -69 -44t-25 40zM450 450h-50v-141q90 89 90 115t-40 26z" />
    <glyph glyph-name="uni1790_17B6" 
d="M1019 1410q153 90 281 90h300v-1350l-200 -200v1350h-200q-209 0 -279 -58q-49 -46 -95 -46q-14 0 -25 4q14 32 18 66v5q0 29 -38 29h-564l-49 -133q104 -22 169 -73q63 -51 63 -130v-554q0 -39 -20 -61q0 -32 144 -112q151 -80 188 -80q38 0 62 15q26 14 26 128v300h-30
q-95 0 -132.5 39.5t-37.5 110.5q0 101 131 232q118 118 164 118q105 0 105 -100v-700q0 -99 -179 -200q-179 -100 -231 -100q-50 0 -163 63q-123 69 -185 128t-94 154q32 14 42 34.5t10 50.5v470q0 60 -122 80q-48 6 -48 46q0 41 25 100l145 374h620q46 0 68 -30
q22 -31 22 -92q30 22 41 52q3 11 3 21q0 18 -9 31q-24 39 -93 114q-112 121 -112 205q0 59 56 113q56 55 188 86q-79 -78 -79 -142q2 -46 68 -118q67 -73 67 -167q0 -34 -5 -71q-2 -25 -6.5 -48t-9.5 -44zM770 751h30v141q-70 -69 -70 -105t40 -36z" />
    <glyph glyph-name="uni1790_17C5" 
d="M1019 1410q153 90 281 90h187q-17 72 -75 160q-112 169 -112 257q0 83 56 157q55 75 188 120q-79 -109 -79 -198q2 -61 68 -163q67 -103 67 -233q0 -27 -1.5 -52t-3.5 -48h5v-1350l-200 -200v1247q-5 -1 -13 -1q-14 0 -26 4q21 20 39 42v58h-200q-139 0 -279 -58
q-49 -46 -95 -46q-14 0 -25 4q14 32 18 66v5q0 29 -38 29h-564l-49 -133q104 -22 169 -73q63 -51 63 -130v-554q0 -39 -20 -61q0 -32 144 -112q151 -80 188 -80q38 0 62 15q26 14 26 128v300h-30q-95 0 -132.5 39.5t-37.5 110.5q0 101 131 232q118 118 164 118
q105 0 105 -100v-700q0 -99 -179 -200q-179 -100 -231 -100q-50 0 -163 63q-123 69 -185 128t-94 154q32 14 42 34.5t10 50.5v470q0 60 -122 80q-48 6 -48 46q0 41 25 100l145 374h620q46 0 68 -30q22 -31 22 -92q30 22 41 52q3 11 3 21q0 18 -9 31q-24 39 -93 114
q-112 121 -112 205q0 59 56 113q56 55 188 86q-79 -78 -79 -142q2 -46 68 -118q67 -73 67 -167q0 -34 -5 -71q-2 -25 -6.5 -48t-9.5 -44zM770 751h30v141q-70 -69 -70 -105t40 -36z" />
    <glyph glyph-name="uni1791_17B6" 
d="M991 1268l-44 -126q-49 -142 -171 -142q-120 0 -329 126l172 129q92 -55 177 -55q83 0 106 50q6 14 6 25q0 25 -38 25h-553l-66 -163l87 -83q86 -85 251 -128l274 -75q23 -6 43 -6q73 0 124 73q0 -153 -77 -216q-59 -49 -115 -49q-17 0 -32 4l-68 20l-207 57
q-208 59 -352 196l-49 46q0 125 43 224l127 300h730q0 -22 -1.5 -44t-3.5 -42q151 86 275 86h300v-1350l-200 -200v1350h-200q-101 0 -209 -32zM400 680v-330q0 -34 138 -114q139 -79 176 -79t61 15q25 13 25 128v314q7 -1 13 -1h12q54 0 98 23q51 26 77 75v-411
q0 -100 -175 -200t-225 -100q-49 0 -159 63q-241 136 -241 237v280l113 113q37 37 62 37t25 -50z" />
    <glyph glyph-name="uni1791_17C5" 
d="M1400 1242v58h-200q-101 0 -209 -32l-44 -126q-49 -142 -171 -142q-120 0 -329 126l172 129q92 -55 177 -55q83 0 106 50q6 14 6 25q0 25 -38 25h-553l-66 -163l87 -83q86 -85 251 -128l274 -75q23 -6 43 -6q73 0 124 73q0 -153 -77 -216q-59 -49 -115 -49q-17 0 -32 4
l-68 20l-207 57q-208 59 -352 196l-49 46q0 125 43 224l127 300h730q0 -22 -1.5 -44t-3.5 -42q151 86 275 86h187q-17 72 -75 160q-112 169 -112 257q0 83 56 157q55 75 188 120q-79 -109 -79 -198q2 -61 68 -163q67 -103 67 -233q0 -27 -1.5 -52t-3.5 -48h5v-1350
l-200 -200v1247q-5 -1 -13 -1q-14 0 -26 4q21 20 39 42zM400 680v-330q0 -34 138 -114q139 -79 176 -79t61 15q25 13 25 128v314q7 -1 13 -1h12q54 0 98 23q51 26 77 75v-411q0 -100 -175 -200t-225 -100q-49 0 -159 63q-241 136 -241 237v280l113 113q37 37 62 37t25 -50z
" />
    <glyph glyph-name="uni1792_17B6" 
d="M200 40v860q0 60 -122 80q-48 6 -48 46q0 41 25 100l145 374h630q70 0 70 -130q75 130 160 130h540v-1350l-200 -200v1350h-370q-89 0 -208 -162l7 41q5 35 5 55q0 66 -44 66h-573l-49 -133q104 -22 169 -73q63 -51 63 -130v-655l200 239l200 -239v291h-30
q-95 0 -132.5 39.5t-37.5 110.5q0 101 131 232q118 118 164 118q105 0 105 -100v-850l-75 -75q-75 -75 -100 -75q-26 0 -93 82l-206 245l-241 -286q-35 -41 -60 -41t-25 40zM770 751h30v141q-70 -69 -70 -105t40 -36z" />
    <glyph glyph-name="uni1792_17C5" 
d="M1400 1242v58h-370q-89 0 -208 -162l7 41q5 35 5 55q0 66 -44 66h-573l-49 -133q104 -22 169 -73q63 -51 63 -130v-655l200 239l200 -239v291h-30q-95 0 -132.5 39.5t-37.5 110.5q0 101 131 232q118 118 164 118q105 0 105 -100v-850l-75 -75q-75 -75 -100 -75
q-26 0 -93 82l-206 245l-241 -286q-35 -41 -60 -41t-25 40v860q0 60 -122 80q-48 6 -48 46q0 41 25 100l145 374h630q70 0 70 -130q75 130 160 130h427q-17 72 -75 160q-112 169 -112 257q0 83 56 157q55 75 188 120q-79 -109 -79 -198q2 -61 68 -163q67 -103 67 -233
q0 -27 -1.5 -52t-3.5 -48h5v-1350l-200 -200v1247q-5 -1 -13 -1q-14 0 -26 4q21 20 39 42zM770 751h30v141q-70 -69 -70 -105t40 -36z" />
    <glyph glyph-name="uni1793_17B6" 
d="M991 1268l-44 -126q-49 -142 -171 -142q-120 0 -329 126l172 129q92 -55 177 -55q83 0 106 50q6 14 6 25q0 25 -38 25h-553l-66 -163l87 -83q86 -85 251 -128l274 -75q23 -6 43 -6q73 0 124 73q0 -153 -77 -216q-59 -49 -115 -49q-17 0 -32 4l-68 20l-207 57
q-208 59 -352 196l-49 46q0 125 43 224l127 300h730q0 -22 -1.5 -44t-3.5 -42q151 86 275 86h300v-1350l-200 -200v1350h-200q-101 0 -209 -32zM200 40v540l113 113q37 37 62 37t25 -50v-371l200 239l200 -239v305q7 -1 13 -1h12q54 0 98 23q51 26 77 75v-561l-75 -75
q-75 -75 -100 -75q-26 0 -93 82l-206 245l-241 -286q-35 -41 -60 -41t-25 40z" />
    <glyph glyph-name="uni1793_17C5" 
d="M1400 1242v58h-200q-101 0 -209 -32l-44 -126q-49 -142 -171 -142q-120 0 -329 126l172 129q92 -55 177 -55q83 0 106 50q6 14 6 25q0 25 -38 25h-553l-66 -163l87 -83q86 -85 251 -128l274 -75q23 -6 43 -6q73 0 124 73q0 -153 -77 -216q-59 -49 -115 -49q-17 0 -32 4
l-68 20l-207 57q-208 59 -352 196l-49 46q0 125 43 224l127 300h730q0 -22 -1.5 -44t-3.5 -42q151 86 275 86h187q-17 72 -75 160q-112 169 -112 257q0 83 56 157q55 75 188 120q-79 -109 -79 -198q2 -61 68 -163q67 -103 67 -233q0 -27 -1.5 -52t-3.5 -48h5v-1350
l-200 -200v1247q-5 -1 -13 -1q-14 0 -26 4q21 20 39 42zM200 40v540l113 113q37 37 62 37t25 -50v-371l200 239l200 -239v305q7 -1 13 -1h12q54 0 98 23q51 26 77 75v-561l-75 -75q-75 -75 -100 -75q-26 0 -93 82l-206 245l-241 -286q-35 -41 -60 -41t-25 40z" />
    <glyph glyph-name="uni1794_17B6" 
d="M1000 100l-200 -200v188q-161 -88 -210 -88q-50 0 -163 63q-123 69 -185 128t-94 154q32 14 42 34.5t10 50.5v470q0 60 -122 80q-48 6 -48 46q0 41 25 100l145 374h630q70 0 70 -130q75 130 160 130h540v-1350l-200 -200v1350h-370q-89 0 -208 -162l7 41q5 35 5 55
q0 66 -44 66h-573l-49 -133q104 -22 169 -73q63 -51 63 -130v-554q0 -39 -20 -61q0 -32 144 -112q151 -80 188 -80q38 0 62 15q26 14 26 128v600l200 200v-1000z" />
    <glyph glyph-name="uni1794_17C5" 
d="M1000 100l-200 -200v188q-161 -88 -210 -88q-50 0 -163 63q-123 69 -185 128t-94 154q32 14 42 34.5t10 50.5v470q0 60 -122 80q-48 6 -48 46q0 41 25 100l145 374h630q70 0 70 -130q75 130 160 130h427q-17 72 -75 160q-112 169 -112 257q0 83 56 157q55 75 188 120
q-79 -109 -79 -198q2 -61 68 -163q67 -103 67 -233q0 -27 -1.5 -52t-3.5 -48h5v-1350l-200 -200v1247q-5 -1 -13 -1q-14 0 -26 4q21 20 39 42v58h-370q-89 0 -208 -162l7 41q5 35 5 55q0 66 -44 66h-573l-49 -133q104 -22 169 -73q63 -51 63 -130v-554q0 -39 -20 -61
q0 -32 144 -112q151 -80 188 -80q38 0 62 15q26 14 26 128v600l200 200v-1000z" />
    <glyph glyph-name="uni1795_17B6" 
d="M1019 1410q153 90 281 90h300v-1350l-200 -200v1350h-200q-139 0 -279 -58q-49 -46 -95 -46q-14 0 -25 4q14 32 18 66v5q0 29 -38 29h-564l-49 -133q104 -22 169 -73q63 -51 63 -130v-655l200 239l200 -239v291h-30q-95 0 -132.5 39.5t-37.5 110.5q0 101 131 232
q118 118 164 118q105 0 105 -100v-850l-75 -75q-75 -75 -100 -75q-26 0 -93 82l-206 245l-241 -286q-35 -41 -60 -41t-25 40v860q0 60 -122 80q-48 6 -48 46q0 41 25 100l145 374h620q46 0 68 -30q22 -31 22 -92q30 22 41 52q3 11 3 21q0 18 -9 31q-24 39 -93 114
q-112 121 -112 205q0 59 56 113q56 55 188 86q-79 -78 -79 -142q2 -46 68 -118q67 -73 67 -167q0 -34 -5 -71q-2 -25 -6.5 -48t-9.5 -44zM770 751h30v141q-70 -69 -70 -105t40 -36z" />
    <glyph glyph-name="uni1795_17C5" 
d="M1019 1410q153 90 281 90h187q-17 72 -75 160q-112 169 -112 257q0 83 56 157q55 75 188 120q-79 -109 -79 -198q2 -61 68 -163q67 -103 67 -233q0 -27 -1.5 -52t-3.5 -48h5v-1350l-200 -200v1247q-5 -1 -13 -1q-14 0 -26 4q21 20 39 42v58h-200q-139 0 -279 -58
q-49 -46 -95 -46q-14 0 -25 4q14 32 18 66v5q0 29 -38 29h-564l-49 -133q104 -22 169 -73q63 -51 63 -130v-655l200 239l200 -239v291h-30q-95 0 -132.5 39.5t-37.5 110.5q0 101 131 232q118 118 164 118q105 0 105 -100v-850l-75 -75q-75 -75 -100 -75q-26 0 -93 82
l-206 245l-241 -286q-35 -41 -60 -41t-25 40v860q0 60 -122 80q-48 6 -48 46q0 41 25 100l145 374h620q46 0 68 -30q22 -31 22 -92q30 22 41 52q3 11 3 21q0 18 -9 31q-24 39 -93 114q-112 121 -112 205q0 59 56 113q56 55 188 86q-79 -78 -79 -142q2 -46 68 -118
q67 -73 67 -167q0 -34 -5 -71q-2 -25 -6.5 -48t-9.5 -44zM770 751h30v141q-70 -69 -70 -105t40 -36z" />
    <glyph glyph-name="uni1796_17B6" 
d="M1600 1500v-1350l-200 -200v1350h-120q-163 0 -280 -151v-999l-200 -200v1350h-100q-89 0 -208 -162l7 41q5 35 5 55q0 66 -44 66h-243l-49 -133q104 -22 169 -73q63 -51 63 -130v-314h50q150 0 150 -150t-131 -281l-175 -175q-44 -44 -69 -44t-25 40v860q0 60 -122 80
q-48 6 -48 46q0 41 25 100l145 374h300q70 0 70 -130q75 130 160 130h270v-200q146 200 310 200h290zM450 500h-50v-191q90 89 90 150q0 41 -40 41z" />
    <glyph glyph-name="uni1796_17C5" 
d="M1595 1500h5v-1350l-200 -200v1247q-5 -1 -13 -1q-14 0 -26 4q21 20 39 42v58h-120q-163 0 -280 -151v-999l-200 -200v1350h-100q-89 0 -208 -162l7 41q5 35 5 55q0 66 -44 66h-243l-49 -133q104 -22 169 -73q63 -51 63 -130v-314h50q150 0 150 -150t-131 -281l-175 -175
q-44 -44 -69 -44t-25 40v860q0 60 -122 80q-48 6 -48 46q0 41 25 100l145 374h300q70 0 70 -130q75 130 160 130h270v-200q146 200 310 200h177q-17 72 -75 160q-112 169 -112 257q0 83 56 157q55 75 188 120q-79 -109 -79 -198q2 -61 68 -163q67 -103 67 -233
q0 -27 -1.5 -52t-3.5 -48zM450 500h-50v-191q90 89 90 150q0 41 -40 41z" />
    <glyph glyph-name="uni1797_17B6" 
d="M790 1300h-492l-24 -50q66 -27 120 -75q29 -26 29 -54q0 -24 -21 -50q-47 -56 -108 -71q-30 53 -79 78q-43 22 -101 22h-14l200 400h530q70 0 70 -130q75 130 160 130h540v-1350l-200 -200v1350h-370q-89 0 -208 -162l7 41q5 35 5 55q0 66 -44 66zM462 0q-60 0 -160 58
q-102 59 -102 200q0 142 100 182q0 -152 100 -209q59 -33 92 -33q16 0 27 8q31 24 31 74q0 75 -44 140t-131 114q-88 52 -131 130q-44 80 -44 186q0 50 175 150t225 100t159 -63q241 -136 241 -237v-650l-200 -200v800q0 35 -138 114q-139 79 -176 79t-61 -15
q-25 -13 -25 -78q0 -100 63 -136q93 -52 140 -139q47 -86 47 -205v-90q0 -109 -65 -195q-64 -85 -123 -85z" />
    <glyph glyph-name="uni1797_17C5" 
d="M1400 1242v58h-370q-89 0 -208 -162l7 41q5 35 5 55q0 66 -44 66h-492l-24 -50q66 -27 120 -75q29 -26 29 -54q0 -24 -21 -50q-47 -56 -108 -71q-30 53 -79 78q-43 22 -101 22h-14l200 400h530q70 0 70 -130q75 130 160 130h427q-17 72 -75 160q-112 169 -112 257
q0 83 56 157q55 75 188 120q-79 -109 -79 -198q2 -61 68 -163q67 -103 67 -233q0 -27 -1.5 -52t-3.5 -48h5v-1350l-200 -200v1247q-5 -1 -13 -1q-14 0 -26 4q21 20 39 42zM302 58q-102 59 -102 200q0 142 100 182q0 -152 100 -209q59 -33 92 -33q16 0 27 8q31 24 31 74
q0 75 -44 140t-131 114q-88 52 -131 130q-44 80 -44 186q0 50 175 150t225 100t159 -63q241 -136 241 -237v-650l-200 -200v800q0 35 -138 114q-139 79 -176 79t-61 -15q-25 -13 -25 -78q0 -100 63 -136q93 -52 140 -139q47 -86 47 -205v-90q0 -109 -65 -195
q-64 -85 -123 -85q-60 0 -160 58z" />
    <glyph glyph-name="uni1798_17B6" 
d="M200 430v430q0 61 -142 80q-48 6 -48 46q0 41 25 100l165 414h300q0 -120 -26 -207q-27 -85 -90 -123q16 60 16 96q0 34 -50 34h-133l-69 -173q125 -22 189 -74q63 -49 63 -129v-251l102 127q54 -105 125 -137q63 -28 173 -31v268q0 60 -122 80q-48 6 -48 46q0 41 25 100
l145 374h800v-1350l-200 -200v1350h-583l-49 -133q104 -22 169 -73q63 -51 63 -130v-664q0 -99 -179 -200q-179 -100 -231 -100q-50 0 -163 63q-123 69 -185 128t-94 154q32 14 42 34.5t10 50.5zM400 604v-194q0 -39 -20 -61q0 -32 144 -112q151 -80 188 -80q38 0 62 15
q26 14 26 128v312q-110 -73 -195 -73h-9q-82 3 -196 65z" />
    <glyph glyph-name="uni1798_17C5" 
d="M1400 1242v58h-583l-49 -133q104 -22 169 -73q63 -51 63 -130v-664q0 -99 -179 -200q-179 -100 -231 -100q-50 0 -163 63q-123 69 -185 128t-94 154q32 14 42 34.5t10 50.5v430q0 61 -142 80q-48 6 -48 46q0 41 25 100l165 414h300q0 -120 -26 -207q-27 -85 -90 -123
q16 60 16 96q0 34 -50 34h-133l-69 -173q125 -22 189 -74q63 -49 63 -129v-251l102 127q54 -105 125 -137q63 -28 173 -31v268q0 60 -122 80q-48 6 -48 46q0 41 25 100l145 374h687q-17 72 -75 160q-112 169 -112 257q0 83 56 157q55 75 188 120q-79 -109 -79 -198
q2 -61 68 -163q67 -103 67 -233q0 -27 -1.5 -52t-3.5 -48h5v-1350l-200 -200v1247q-5 -1 -13 -1q-14 0 -26 4q21 20 39 42zM400 604v-194q0 -39 -20 -61q0 -32 144 -112q151 -80 188 -80q38 0 62 15q26 14 26 128v312q-110 -73 -195 -73h-9q-82 3 -196 65z" />
    <glyph glyph-name="uni1799_17B6" horiz-adv-x="1800" 
d="M895 147q-33 -25 -74 -47q-179 -100 -231 -100q-50 0 -163 63q-123 69 -185 128t-94 154q32 14 42 34.5t10 50.5v470q-89 19 -130 100q-40 79 -40 180q0 119 65 220q64 100 205 100q100 0 150 -50t50 -150q0 -101 -130 -138q-40 -12 -72 -12q-64 0 -78 56q80 65 80 99
q0 35 -50 35q-55 0 -82 -42q-28 -40 -28 -124q0 -47 57 -68q32 -13 96 -13q50 0 107 7v-690q0 -39 -20 -61q0 -32 144 -112q151 -80 188 -80q38 0 62 15q26 14 26 128v560q0 61 -142 80q-48 6 -48 46q0 41 25 100l165 414h300q0 -120 -26 -207q-27 -85 -90 -123q16 60 16 96
q0 34 -50 34h-133l-69 -173q125 -22 189 -74q63 -49 63 -129v-606q35 -32 124 -81q151 -80 188 -80q38 0 62 15q26 14 26 128v560q0 61 -142 80q-48 6 -48 46q0 41 25 100l165 414h800v-1350l-200 -200v1350h-583l-69 -173q125 -22 189 -74q63 -49 63 -129v-624
q0 -99 -179 -200q-179 -100 -231 -100q-50 0 -163 63q-78 44 -132 84z" />
    <glyph glyph-name="uni1799_17C5" horiz-adv-x="1800" 
d="M2000 1242v58h-583l-69 -173q125 -22 189 -74q63 -49 63 -129v-624q0 -99 -179 -200q-179 -100 -231 -100q-50 0 -163 63q-78 44 -132 84q-33 -25 -74 -47q-179 -100 -231 -100q-50 0 -163 63q-123 69 -185 128t-94 154q32 14 42 34.5t10 50.5v470q-89 19 -130 100
q-40 79 -40 180q0 119 65 220q64 100 205 100q100 0 150 -50t50 -150q0 -101 -130 -138q-40 -12 -72 -12q-64 0 -78 56q80 65 80 99q0 35 -50 35q-55 0 -82 -42q-28 -40 -28 -124q0 -47 57 -68q32 -13 96 -13q50 0 107 7v-690q0 -39 -20 -61q0 -32 144 -112q151 -80 188 -80
q38 0 62 15q26 14 26 128v560q0 61 -142 80q-48 6 -48 46q0 41 25 100l165 414h300q0 -120 -26 -207q-27 -85 -90 -123q16 60 16 96q0 34 -50 34h-133l-69 -173q125 -22 189 -74q63 -49 63 -129v-606q35 -32 124 -81q151 -80 188 -80q38 0 62 15q26 14 26 128v560
q0 61 -142 80q-48 6 -48 46q0 41 25 100l165 414h687q-17 72 -75 160q-112 169 -112 257q0 83 56 157q55 75 188 120q-79 -109 -79 -198q2 -61 68 -163q67 -103 67 -233q0 -27 -1.5 -52t-3.5 -48h5v-1350l-200 -200v1247q-5 -1 -13 -1q-14 0 -26 4q21 20 39 42z" />
    <glyph glyph-name="uni179A_17B6" horiz-adv-x="600" 
d="M60 483l140 97v320q0 60 -122 80q-48 6 -48 46q0 41 25 100l145 374h230q70 0 70 -130q75 130 160 130h340v-1350l-200 -200v1350h-170q-89 0 -208 -162l7 41q5 35 5 55q0 66 -44 66h-173l-49 -133q104 -22 169 -73q63 -51 63 -130v-814l-112 -112q-38 -38 -63 -38
t-25 35q0 82 -95 174t-95 191q0 50 50 83zM150 441l53 -62v105z" />
    <glyph glyph-name="uni179A_17C5" horiz-adv-x="600" 
d="M800 1242v58h-170q-89 0 -208 -162l7 41q5 35 5 55q0 66 -44 66h-173l-49 -133q104 -22 169 -73q63 -51 63 -130v-814l-112 -112q-38 -38 -63 -38t-25 35q0 82 -95 174t-95 191q0 50 50 83l140 97v320q0 60 -122 80q-48 6 -48 46q0 41 25 100l145 374h230q70 0 70 -130
q75 130 160 130h227q-17 72 -75 160q-112 169 -112 257q0 83 56 157q55 75 188 120q-79 -109 -79 -198q2 -61 68 -163q67 -103 67 -233q0 -27 -1.5 -52t-3.5 -48h5v-1350l-200 -200v1247q-5 -1 -13 -1q-14 0 -26 4q21 20 39 42zM150 441l53 -62v105z" />
    <glyph glyph-name="uni179B_17B6" horiz-adv-x="1800" 
d="M1600 924v-624q0 -99 -179 -200q-179 -100 -231 -100q-50 0 -163 63q-123 69 -185 128t-94 154q32 14 42 34.5t10 50.5v870h-583l-49 -133q104 -22 169 -73q63 -51 63 -130v-314h50q150 0 150 -150t-131 -281l-175 -175q-44 -44 -69 -44t-25 40v860q0 60 -122 80
q-48 6 -48 46q0 41 25 100l145 374h800v-1090q0 -39 -20 -61q0 -32 144 -112q151 -80 188 -80q38 0 62 15q26 14 26 128v560q0 61 -142 80q-48 6 -48 46q0 41 25 100l165 414h800v-1350l-200 -200v1350h-583l-69 -173q125 -22 189 -74q63 -49 63 -129zM450 500h-50v-191
q90 89 90 150q0 41 -40 41z" />
    <glyph glyph-name="uni179B_17C5" horiz-adv-x="1800" 
d="M2000 1242v58h-583l-69 -173q125 -22 189 -74q63 -49 63 -129v-624q0 -99 -179 -200q-179 -100 -231 -100q-50 0 -163 63q-123 69 -185 128t-94 154q32 14 42 34.5t10 50.5v870h-583l-49 -133q104 -22 169 -73q63 -51 63 -130v-314h50q150 0 150 -150t-131 -281
l-175 -175q-44 -44 -69 -44t-25 40v860q0 60 -122 80q-48 6 -48 46q0 41 25 100l145 374h800v-1090q0 -39 -20 -61q0 -32 144 -112q151 -80 188 -80q38 0 62 15q26 14 26 128v560q0 61 -142 80q-48 6 -48 46q0 41 25 100l165 414h687q-17 72 -75 160q-112 169 -112 257
q0 83 56 157q55 75 188 120q-79 -109 -79 -198q2 -61 68 -163q67 -103 67 -233q0 -27 -1.5 -52t-3.5 -48h5v-1350l-200 -200v1247q-5 -1 -13 -1q-14 0 -26 4q21 20 39 42zM450 500h-50v-191q90 89 90 150q0 41 -40 41z" />
    <glyph glyph-name="uni179C_17B6" horiz-adv-x="600" 
d="M557 1446q104 54 203 54h240v-1350l-200 -200v1350h-200q-60 0 -121 -29q-66 -75 -123 -75q-14 0 -25 4q14 32 18 66v5q0 29 -38 29h-94l-69 -173q125 -22 189 -74q63 -49 63 -129v-774l-112 -112q-38 -38 -63 -38t-25 35q0 82 -95 174t-95 191q0 50 50 83l140 97v280
q0 61 -142 80q-48 6 -48 46q0 41 25 100l165 414h150q46 0 68 -30q22 -31 22 -92q30 22 41 52q3 11 3 21q0 18 -9 31q-24 39 -93 114q-112 121 -112 205q0 59 56 113q56 55 188 86q-79 -78 -79 -142q2 -46 68 -118q67 -73 67 -167q0 -34 -5 -71q-1 -14 -3.5 -28t-4.5 -28z
M150 441l53 -62v105z" />
    <glyph glyph-name="uni179C_17C5" horiz-adv-x="600" 
d="M557 1446q104 54 203 54h127q-17 72 -75 160q-112 169 -112 257q0 83 56 157q55 75 188 120q-79 -109 -79 -198q2 -61 68 -163q67 -103 67 -233q0 -27 -1.5 -52t-3.5 -48h5v-1350l-200 -200v1247q-5 -1 -13 -1q-14 0 -26 4q21 20 39 42v58h-200q-60 0 -121 -29
q-66 -75 -123 -75q-14 0 -25 4q14 32 18 66v5q0 29 -38 29h-94l-69 -173q125 -22 189 -74q63 -49 63 -129v-774l-112 -112q-38 -38 -63 -38t-25 35q0 82 -95 174t-95 191q0 50 50 83l140 97v280q0 61 -142 80q-48 6 -48 46q0 41 25 100l165 414h150q46 0 68 -30
q22 -31 22 -92q30 22 41 52q3 11 3 21q0 18 -9 31q-24 39 -93 114q-112 121 -112 205q0 59 56 113q56 55 188 86q-79 -78 -79 -142q2 -46 68 -118q67 -73 67 -167q0 -34 -5 -71q-1 -14 -3.5 -28t-4.5 -28zM150 441l53 -62v105z" />
    <glyph glyph-name="uni179F_17B6" horiz-adv-x="1800" 
d="M341 979q-39 55 -70 83q-44 38 -160 38l200 400h670q0 -120 -26 -207q-27 -86 -110 -142q22 82 26 115v5q0 29 -38 29h-524l-24 -50q92 -40 149 -100q19 -19 34 -41t28 -45q75 36 105 36q50 0 159 -63q241 -136 241 -237v-390q0 -39 -20 -61q0 -32 144 -112
q151 -80 188 -80q38 0 62 15q26 14 26 128v560q0 61 -142 80q-48 6 -48 46q0 41 25 100l165 414h799v-1350l-200 -200v1350h-582l-69 -173q125 -22 189 -74q63 -49 63 -129v-624q0 -99 -179 -200q-179 -100 -231 -100q-50 0 -163 63q-123 69 -185 128t-94 154q32 14 42 34.5
t10 50.5v320q0 35 -138 114q-139 79 -176 79t-61 -15q-25 -13 -25 -128v-250h50q76 0 113 -25q37 -24 37 -74q0 -101 -131 -232l-175 -175q-44 -44 -69 -44t-25 40v760q0 89 140 179zM451 450h-50v-141q90 89 90 115t-40 26z" />
    <glyph glyph-name="uni179F_17C5" horiz-adv-x="1800" 
d="M2000 1242v58h-582l-69 -173q125 -22 189 -74q63 -49 63 -129v-624q0 -99 -179 -200q-179 -100 -231 -100q-50 0 -163 63q-123 69 -185 128t-94 154q32 14 42 34.5t10 50.5v320q0 35 -138 114q-139 79 -176 79t-61 -15q-25 -13 -25 -128v-250h50q76 0 113 -25
q37 -24 37 -74q0 -101 -131 -232l-175 -175q-44 -44 -69 -44t-25 40v760q0 89 140 179q-39 55 -70 83q-44 38 -160 38l200 400h670q0 -120 -26 -207q-27 -86 -110 -142q22 82 26 115v5q0 29 -38 29h-524l-24 -50q92 -40 149 -100q19 -19 34 -41t28 -45q75 36 105 36
q50 0 159 -63q241 -136 241 -237v-390q0 -39 -20 -61q0 -32 144 -112q151 -80 188 -80q38 0 62 15q26 14 26 128v560q0 61 -142 80q-48 6 -48 46q0 41 25 100l165 414h686q-17 72 -75 160q-112 169 -112 257q0 83 56 157q55 75 188 120q-79 -109 -79 -198q2 -61 68 -163
q67 -103 67 -233q0 -27 -1.5 -52t-3.5 -48h5v-1350l-200 -200v1247q-5 -1 -13 -1q-14 0 -26 4q21 20 39 42zM451 450h-50v-141q90 89 90 115t-40 26z" />
    <glyph glyph-name="uni17A0_17B6" horiz-adv-x="1800" 
d="M1600 1149v-999l-200 -200v1350h-583l-49 -133q104 -22 169 -73q63 -51 63 -130v-664q0 -99 -179 -200q-179 -100 -231 -100q-50 0 -163 63q-123 69 -185 128t-94 154q32 14 42 34.5t10 50.5v430q0 61 -142 80q-48 6 -48 46q0 41 25 100l165 414h300q0 -120 -26 -207
q-27 -85 -90 -123q16 60 16 96q0 34 -50 34h-133l-69 -173q125 -22 189 -74q63 -49 63 -129v-514q0 -39 -20 -61q0 -32 144 -112q151 -80 188 -80q38 0 62 15q26 14 26 128v600q0 60 -122 80q-48 6 -48 46q0 41 25 100l145 374h800v-200q146 200 310 200h290v-1350
l-200 -200v1350h-120q-163 0 -280 -151z" />
    <glyph glyph-name="uni17A0_17C5" horiz-adv-x="1800" 
d="M2000 1242v58h-120q-163 0 -280 -151v-999l-200 -200v1350h-583l-49 -133q104 -22 169 -73q63 -51 63 -130v-664q0 -99 -179 -200q-179 -100 -231 -100q-50 0 -163 63q-123 69 -185 128t-94 154q32 14 42 34.5t10 50.5v430q0 61 -142 80q-48 6 -48 46q0 41 25 100
l165 414h300q0 -120 -26 -207q-27 -85 -90 -123q16 60 16 96q0 34 -50 34h-133l-69 -173q125 -22 189 -74q63 -49 63 -129v-514q0 -39 -20 -61q0 -32 144 -112q151 -80 188 -80q38 0 62 15q26 14 26 128v600q0 60 -122 80q-48 6 -48 46q0 41 25 100l145 374h800v-200
q146 200 310 200h177q-17 72 -75 160q-112 169 -112 257q0 83 56 157q55 75 188 120q-79 -109 -79 -198q2 -61 68 -163q67 -103 67 -233q0 -27 -1.5 -52t-3.5 -48h5v-1350l-200 -200v1247q-5 -1 -13 -1q-14 0 -26 4q21 20 39 42z" />
    <glyph glyph-name="uni17A1_17B6" horiz-adv-x="1800" 
d="M179 930l-49 46q0 125 43 224l127 300h730q0 -121 -33 -216l-50 -142q-49 -142 -171 -142q-120 0 -329 126l172 129q92 -55 177 -55q83 0 106 50q6 14 6 25q0 25 -38 25h-553l-66 -163l87 -83q86 -85 251 -128l274 -75q23 -6 43 -6q73 0 124 73q0 -153 -77 -216
q-59 -49 -115 -49q-17 0 -32 4l-68 20l-207 57q-208 59 -352 196zM1600 924v-1574l-75 -75q-75 -75 -100 -75q-26 0 -93 82l-206 245l-241 -286q-35 -41 -60 -41t-25 40v240l-127 98q-43 31 -43 72t48 93l95 105q46 52 107 52q59 0 120 -60v-331l200 239l200 -239v1351
q0 61 -142 80q-48 6 -48 46q0 41 25 100l165 414h800v-1350l-200 -200v1350h-583l-69 -173q125 -22 189 -74q63 -49 63 -129zM400 680v-330q0 -34 138 -114q139 -79 176 -79t61 15q25 13 25 128v314q7 -1 13 -1h12q54 0 98 23q51 26 77 75v-411q0 -100 -175 -200t-225 -100
q-49 0 -159 63q-241 136 -241 237v280l113 113q37 37 62 37t25 -50zM800 -309l-40 -42l40 -31v73z" />
    <glyph glyph-name="uni17A1_17C5" horiz-adv-x="1800" 
d="M2000 1242v58h-583l-69 -173q125 -22 189 -74q63 -49 63 -129v-1574l-75 -75q-75 -75 -100 -75q-26 0 -93 82l-206 245l-241 -286q-35 -41 -60 -41t-25 40v240l-127 98q-43 31 -43 72t48 93l95 105q46 52 107 52q59 0 120 -60v-331l200 239l200 -239v1351q0 61 -142 80
q-48 6 -48 46q0 41 25 100l165 414h687q-17 72 -75 160q-112 169 -112 257q0 83 56 157q55 75 188 120q-79 -109 -79 -198q2 -61 68 -163q67 -103 67 -233q0 -27 -1.5 -52t-3.5 -48h5v-1350l-200 -200v1247q-5 -1 -13 -1q-14 0 -26 4q21 20 39 42zM179 930l-49 46
q0 125 43 224l127 300h730q0 -121 -33 -216l-50 -142q-49 -142 -171 -142q-120 0 -329 126l172 129q92 -55 177 -55q83 0 106 50q6 14 6 25q0 25 -38 25h-553l-66 -163l87 -83q86 -85 251 -128l274 -75q23 -6 43 -6q73 0 124 73q0 -153 -77 -216q-59 -49 -115 -49
q-17 0 -32 4l-68 20l-207 57q-208 59 -352 196zM400 680v-330q0 -34 138 -114q139 -79 176 -79t61 15q25 13 25 128v314q7 -1 13 -1h12q54 0 98 23q51 26 77 75v-411q0 -100 -175 -200t-225 -100q-49 0 -159 63q-241 136 -241 237v280l113 113q37 37 62 37t25 -50zM800 -309
l-40 -42l40 -31v73z" />
    <glyph glyph-name="uni17A2_17B6" 
d="M400 674v-524l-112 -112q-38 -38 -63 -38t-25 35q0 82 -95 174t-95 191q0 50 50 83l140 97v280q0 61 -142 80q-48 6 -48 46q0 41 25 100l165 414h300q0 -120 -26 -207q-27 -85 -90 -123q16 60 16 96q0 34 -50 34h-133l-69 -173q125 -22 189 -74q63 -49 63 -129v-181
l102 127q54 -105 125 -137q63 -28 173 -31v158q0 61 -142 80q-48 6 -48 46q0 41 25 100l165 414h800v-1350l-200 -200v1350h-583l-69 -173q125 -22 189 -74q63 -49 63 -129v-774l-112 -112q-38 -38 -63 -38t-25 35q0 82 -95 174t-95 191q0 50 50 83l140 97v102
q-110 -73 -195 -73h-9q-82 3 -196 65zM150 441l53 -62v105zM750 441l53 -62v105z" />
    <glyph glyph-name="uni17A2_17C5" 
d="M1400 1242v58h-583l-69 -173q125 -22 189 -74q63 -49 63 -129v-774l-112 -112q-38 -38 -63 -38t-25 35q0 82 -95 174t-95 191q0 50 50 83l140 97v102q-110 -73 -195 -73h-9q-82 3 -196 65v-524l-112 -112q-38 -38 -63 -38t-25 35q0 82 -95 174t-95 191q0 50 50 83l140 97
v280q0 61 -142 80q-48 6 -48 46q0 41 25 100l165 414h300q0 -120 -26 -207q-27 -85 -90 -123q16 60 16 96q0 34 -50 34h-133l-69 -173q125 -22 189 -74q63 -49 63 -129v-181l102 127q54 -105 125 -137q63 -28 173 -31v158q0 61 -142 80q-48 6 -48 46q0 41 25 100l165 414
h687q-17 72 -75 160q-112 169 -112 257q0 83 56 157q55 75 188 120q-79 -109 -79 -198q2 -61 68 -163q67 -103 67 -233q0 -27 -1.5 -52t-3.5 -48h5v-1350l-200 -200v1247q-5 -1 -13 -1q-14 0 -26 4q21 20 39 42zM150 441l53 -62v105zM750 441l53 -62v105z" />
    <glyph glyph-name="uni17D2_1783_17B6" 
d="M400 924v-1504q0 -28 -34.5 -58.5t-87.5 -59.5t-110 -52t-103 -37t-66 -14q-49 0 -157 45q-37 16 -69 30.5t-58 28.5q-16 -8 -33.5 -16.5t-37.5 -16.5q-174 -71 -222 -71q-49 0 -157 45q-117 48 -178 90q-58 41 -90 108q31 10 40.5 24t9.5 35v169q141 11 186 50t45 53
t-26.5 29t-60.5 15q-48 0 -48 -24q0 -32 58 -35v-1q0 -40 -113 -40h-11q-126 2 -126 79q0 36 58 70q58 35 134 35q116 0 178.5 -31.5t62.5 -87.5t-39 -119q-37 -63 -106 -113v-63q0 -28 -19 -43q0 -23 139 -78q145 -56 180 -56q39 0 60 10q25 10 25 90v112q0 43 -137 57
q-46 4 -46 32t24 70l130 220h288q0 -56 -4 -84t-21 -47t-57 -51q2 10 2 13q0 29 -64 29h-128l-37 -51q122 -17 181 -52q61 -34 61 -91v-144q32 -22 119 -57q145 -56 181 -56q37 0 60 10q24 11 24 90v1450q0 61 -142 80q-48 6 -48 46q0 41 25 100l165 414h800v-1350
l-200 -200v1350h-583l-69 -173q125 -22 189 -74q63 -49 63 -129z" />
    <glyph glyph-name="uni17D2_1788_17B6" 
d="M400 924v-1424q0 -172 -145 -236q-143 -64 -183 -64q-34 0 -118 41q-29 14 -54 27t-45 26q-21 -14 -53 -30q-132 -64 -172 -64q-36 0 -120 41q-89 43 -136 81q-45 37 -70 98q24 9 31.5 22t7.5 32v299h-419l-20 -53q75 -13 124 -46q47 -33 47 -83v-72h36q111 0 111 -96
q0 -99 -187 -223l-108 85v265q0 39 -90 51q-37 4 -37 30q0 25 20 63l93 206h577v-439q0 -24 -14 -38q0 -21 106 -72q111 -51 139 -51q29 0 46 10q19 9 19 81v134q0 38 -105 51q-36 5 -36 29q0 26 20 64l98 231h223q0 -76 -20 -131q-18 -48 -33 -48q-3 0 -4 1q-18 8 -18 30
q0 21 -37 21h-97l-29 -78q91 -15 139 -47q47 -32 47 -82v-163q23 -20 91 -52q110 -51 137 -51q38 0 38 150v1410q0 61 -142 80q-48 6 -48 46q0 41 25 100l165 414h800v-1350l-200 -200v1350h-583l-69 -173q125 -22 189 -74q63 -49 63 -129zM-889 -577h-36v-90q66 32 66 64
q0 26 -30 26z" />
    <glyph glyph-name="uni17D2_178D_17B6" 
d="M400 924v-1474q0 -100 -59 -175t-177 -75q-98 0 -148 54q-49 52 -49 98t-29 69q-32 23 -90 23v-152l-93 -92h-104q-19 32 -75 67q-87 56 -87 116q0 31 46 50l129 59v286h-92q-82 0 -192 -99l7 25q5 22 5 33q0 41 -41 41h-242l-27 -51q100 -14 156 -44q58 -31 58 -79v-69
h37q68 0 103 -20t35 -59q0 -72 -117 -164l-119 -92h-28l-95 62v303q0 37 -111 49l-1 126l93 159h295q64 0 64 -79q69 79 147 79h249v-395q128 0 189 -37q63 -39 63 -95q0 -50 50 -50t50 78v1460q0 61 -142 80q-48 6 -48 46q0 41 25 100l165 414h800v-1350l-200 -200v1350
h-583l-69 -173q125 -22 189 -74q63 -49 63 -129zM-667 -556h-37v-104q71 54 71 85q0 19 -34 19zM-382 -592l48 -38v64z" />
    <glyph glyph-name="uni17D2_1794_17B6" 
d="M400 924v-1597l-153 -127h-127l-194 227l-195 -227h-25l-106 102v448q0 50 101 125t170 75q66 0 97 -36q32 -37 32 -109q0 -51 -50 -103q-49 -52 -150 -102v-191l200 239l200 -239v1451q0 61 -142 80q-48 6 -48 46q0 41 25 100l165 414h800v-1350l-200 -200v1350h-583
l-69 -173q125 -22 189 -74q63 -49 63 -129zM-200 -189v-106q50 32 50 86q0 33 -19 33q-12 0 -31 -13z" />
    <glyph glyph-name="uni17D2_1799_17B6" 
d="M400 924v-1424q0 -100 -175 -200t-225 -100q-49 0 -159 63q-241 136 -241 237v250q0 50 101 125t170 75q66 0 97 -36q32 -37 32 -109q0 -51 -50 -103q-49 -52 -150 -102v-50q0 -34 138 -114q139 -79 176 -79t61 15q25 13 25 128v1360q0 61 -142 80q-48 6 -48 46
q0 41 25 100l165 414h800v-1350l-200 -200v1350h-583l-69 -173q125 -22 189 -74q63 -49 63 -129zM-200 -189v-106q50 32 50 86q0 33 -19 33q-12 0 -31 -13z" />
    <glyph glyph-name="uni17D2_179F_17B6" 
d="M200 211v649q0 61 -142 80q-48 6 -48 46q0 41 25 100l165 414h800v-1350l-200 -200v1350h-583l-69 -173q125 -22 189 -74q63 -49 63 -129v-798q11 -1 22.5 -1.5t23.5 -0.5q57 0 129 12q-92 -79 -175 -112v-524q0 -100 -175 -200t-225 -100q-49 0 -159 63
q-241 136 -241 237v60q-30 -14 -55 -14q-31 0 -56 19q-49 34 -49 85q0 50 90 150t150 100q59 0 120 -60v-290q0 -34 138 -114q139 -79 176 -79t61 15q25 13 25 128v505q-38 5 -80.5 15t-89.5 26l112 213q14 -13 29 -25t29 -23zM-400 -345v46q-42 -30 -42 -46q0 -2 2 -6
q4 -7 12 -7q12 0 28 13z" />
    <glyph glyph-name="uni17D2_1783_17C5" 
d="M800 1242v58h-583l-69 -173q125 -22 189 -74q63 -49 63 -129v-1504q0 -28 -34.5 -58.5t-87.5 -59.5t-110 -52t-103 -37t-66 -14q-49 0 -157 45q-37 16 -69 30.5t-58 28.5q-16 -8 -33.5 -16.5t-37.5 -16.5q-174 -71 -222 -71q-49 0 -157 45q-117 48 -178 90
q-58 41 -90 108q31 10 40.5 24t9.5 35v169q141 11 186 50t45 53t-26.5 29t-60.5 15q-48 0 -48 -24q0 -32 58 -35v-1q0 -40 -113 -40h-11q-126 2 -126 79q0 36 58 70q58 35 134 35q116 0 178.5 -31.5t62.5 -87.5t-39 -119q-37 -63 -106 -113v-63q0 -28 -19 -43q0 -23 139 -78
q145 -56 180 -56q39 0 60 10q25 10 25 90v112q0 43 -137 57q-46 4 -46 32t24 70l130 220h288q0 -56 -4 -84t-21 -47t-57 -51q2 10 2 13q0 29 -64 29h-128l-37 -51q122 -17 181 -52q61 -34 61 -91v-144q32 -22 119 -57q145 -56 181 -56q37 0 60 10q24 11 24 90v1450
q0 61 -142 80q-48 6 -48 46q0 41 25 100l165 414h687q-17 72 -75 160q-112 169 -112 257q0 83 56 157q55 75 188 120q-79 -109 -79 -198q2 -61 68 -163q67 -103 67 -233q0 -27 -1.5 -52t-3.5 -48h5v-1350l-200 -200v1247q-5 -1 -13 -1q-14 0 -26 4q21 20 39 42z" />
    <glyph glyph-name="uni17D2_1788_17C5" 
d="M800 1242v58h-583l-69 -173q125 -22 189 -74q63 -49 63 -129v-1424q0 -172 -145 -236q-143 -64 -183 -64q-34 0 -118 41q-29 14 -54 27t-45 26q-21 -14 -53 -30q-132 -64 -172 -64q-36 0 -120 41q-89 43 -136 81q-45 37 -70 98q24 9 31.5 22t7.5 32v299h-419l-20 -53
q75 -13 124 -46q47 -33 47 -83v-72h36q111 0 111 -96q0 -99 -187 -223l-108 85v265q0 39 -90 51q-37 4 -37 30q0 25 20 63l93 206h577v-439q0 -24 -14 -38q0 -21 106 -72q111 -51 139 -51q29 0 46 10q19 9 19 81v134q0 38 -105 51q-36 5 -36 29q0 26 20 64l98 231h223
q0 -76 -20 -131q-18 -48 -33 -48q-3 0 -4 1q-18 8 -18 30q0 21 -37 21h-97l-29 -78q91 -15 139 -47q47 -32 47 -82v-163q23 -20 91 -52q110 -51 137 -51q38 0 38 150v1410q0 61 -142 80q-48 6 -48 46q0 41 25 100l165 414h687q-17 72 -75 160q-112 169 -112 257q0 83 56 157
q55 75 188 120q-79 -109 -79 -198q2 -61 68 -163q67 -103 67 -233q0 -27 -1.5 -52t-3.5 -48h5v-1350l-200 -200v1247q-5 -1 -13 -1q-14 0 -26 4q21 20 39 42zM-889 -577h-36v-90q66 32 66 64q0 26 -30 26z" />
    <glyph glyph-name="uni17D2_178D_17C5" 
d="M800 1242v58h-583l-69 -173q125 -22 189 -74q63 -49 63 -129v-1474q0 -100 -59 -175t-177 -75q-98 0 -148 54q-49 52 -49 98t-29 69q-32 23 -90 23v-152l-93 -92h-104q-19 32 -75 67q-87 56 -87 116q0 31 46 50l129 59v286h-92q-82 0 -192 -99l7 25q5 22 5 33
q0 41 -41 41h-242l-27 -51q100 -14 156 -44q58 -31 58 -79v-69h37q68 0 103 -20t35 -59q0 -72 -117 -164l-119 -92h-28l-95 62v303q0 37 -111 49l-1 126l93 159h295q64 0 64 -79q69 79 147 79h249v-395q128 0 189 -37q63 -39 63 -95q0 -50 50 -50t50 78v1460q0 61 -142 80
q-48 6 -48 46q0 41 25 100l165 414h687q-17 72 -75 160q-112 169 -112 257q0 83 56 157q55 75 188 120q-79 -109 -79 -198q2 -61 68 -163q67 -103 67 -233q0 -27 -1.5 -52t-3.5 -48h5v-1350l-200 -200v1247q-5 -1 -13 -1q-14 0 -26 4q21 20 39 42zM-667 -556h-37v-104
q71 54 71 85q0 19 -34 19zM-382 -592l48 -38v64z" />
    <glyph glyph-name="uni17D2_1794_17C5" 
d="M800 1242v58h-583l-69 -173q125 -22 189 -74q63 -49 63 -129v-1597l-153 -127h-127l-194 227l-195 -227h-25l-106 102v448q0 50 101 125t170 75q66 0 97 -36q32 -37 32 -109q0 -51 -50 -103q-49 -52 -150 -102v-191l200 239l200 -239v1451q0 61 -142 80q-48 6 -48 46
q0 41 25 100l165 414h687q-17 72 -75 160q-112 169 -112 257q0 83 56 157q55 75 188 120q-79 -109 -79 -198q2 -61 68 -163q67 -103 67 -233q0 -27 -1.5 -52t-3.5 -48h5v-1350l-200 -200v1247q-5 -1 -13 -1q-14 0 -26 4q21 20 39 42zM-200 -189v-106q50 32 50 86
q0 33 -19 33q-12 0 -31 -13z" />
    <glyph glyph-name="uni17D2_1799_17C5" 
d="M800 1242v58h-583l-69 -173q125 -22 189 -74q63 -49 63 -129v-1424q0 -100 -175 -200t-225 -100q-49 0 -159 63q-241 136 -241 237v250q0 50 101 125t170 75q66 0 97 -36q32 -37 32 -109q0 -51 -50 -103q-49 -52 -150 -102v-50q0 -34 138 -114q139 -79 176 -79t61 15
q25 13 25 128v1360q0 61 -142 80q-48 6 -48 46q0 41 25 100l165 414h687q-17 72 -75 160q-112 169 -112 257q0 83 56 157q55 75 188 120q-79 -109 -79 -198q2 -61 68 -163q67 -103 67 -233q0 -27 -1.5 -52t-3.5 -48h5v-1350l-200 -200v1247q-5 -1 -13 -1q-14 0 -26 4
q21 20 39 42zM-200 -189v-106q50 32 50 86q0 33 -19 33q-12 0 -31 -13z" />
    <glyph glyph-name="uni17D2_179F_17C5" 
d="M800 1242v58h-583l-69 -173q125 -22 189 -74q63 -49 63 -129v-798q11 -1 22.5 -1.5t23.5 -0.5q57 0 129 12q-92 -79 -175 -112v-524q0 -100 -175 -200t-225 -100q-49 0 -159 63q-241 136 -241 237v60q-30 -14 -55 -14q-31 0 -56 19q-49 34 -49 85q0 50 90 150t150 100
q59 0 120 -60v-290q0 -34 138 -114q139 -79 176 -79t61 15q25 13 25 128v505q-38 5 -80.5 15t-89.5 26l112 213q14 -13 29 -25t29 -23v649q0 61 -142 80q-48 6 -48 46q0 41 25 100l165 414h687q-17 72 -75 160q-112 169 -112 257q0 83 56 157q55 75 188 120
q-79 -109 -79 -198q2 -61 68 -163q67 -103 67 -233q0 -27 -1.5 -52t-3.5 -48h5v-1350l-200 -200v1247q-5 -1 -13 -1q-14 0 -26 4q21 20 39 42zM-400 -345v46q-42 -30 -42 -46q0 -2 2 -6q4 -7 12 -7q12 0 28 13z" />
    <glyph glyph-name="uni17D21783" horiz-adv-x="600" 
d="M400 924v-1384q0 -24 -34.5 -50t-87.5 -50.5t-110 -44.5t-103 -32t-66 -12q-49 0 -157 39q-37 13 -69 25.5t-58 24.5q-16 -7 -33.5 -14t-37.5 -14q-171 -61 -222 -61q-49 0 -157 39q-115 39 -178 77q-58 34 -90 92q31 9 40.5 21t9.5 30v144q140 9 186 43q45 33 45 45
t-26.5 25t-60.5 13q-48 0 -48 -21q0 -27 58 -30v-1q0 -34 -117 -34h-7q-126 2 -126 68q0 30 58 60q58 29 134 29q117 0 178 -27q63 -25 63 -74q0 -48 -39 -102q-36 -52 -106 -97v-53q0 -24 -19 -37q0 -21 139 -67q144 -48 180 -48q38 0 60 9q25 7 25 77v96q0 36 -137 48
q-46 4 -46 28q0 25 24 59l130 188h288q0 -48 -4 -71.5t-21 -40t-57 -43.5q2 8 2 11q0 25 -64 25h-128l-37 -44q123 -14 181 -44q61 -30 61 -78v-123q36 -21 119 -49q144 -48 181 -48q36 0 60 9q24 8 24 77v1328q0 61 -142 80q-48 6 -48 46q0 41 25 100l165 414h300
q0 -120 -26 -207q-27 -85 -90 -123q16 60 16 96q0 34 -50 34h-133l-69 -173q125 -22 189 -74q63 -49 63 -129z" />
    <glyph glyph-name="uni17D21788" horiz-adv-x="600" 
d="M400 924v-1316q0 -148 -145 -203q-143 -55 -183 -55q-35 0 -118 36q-58 24 -99 45q-11 -7 -24.5 -13t-28.5 -13q-132 -55 -172 -55q-37 0 -120 36q-89 36 -136 69q-46 32 -70 84q24 8 31.5 19t7.5 27v257h-419l-20 -46q77 -12 124 -39q47 -29 47 -71v-62h36
q111 0 111 -82q0 -84 -187 -192l-108 73v227q0 34 -90 44q-37 4 -37 26q0 20 20 54l93 176h577v-376q0 -21 -14 -32q0 -19 106 -62q112 -44 139 -44q28 0 46 9q19 7 19 69v115q0 34 -105 44q-36 3 -36 25t20 54l98 198h223q0 -64 -20 -112q-18 -41 -33 -41q-3 0 -4 1
q-18 6 -18 26q0 18 -37 18h-97l-29 -67q94 -14 139 -41q47 -27 47 -70v-140q26 -19 91 -44q111 -44 137 -44q38 0 38 129v1295q0 61 -142 80q-48 6 -48 46q0 41 25 100l165 414h300q0 -120 -26 -207q-27 -85 -90 -123q16 60 16 96q0 34 -50 34h-133l-69 -173
q125 -22 189 -74q63 -49 63 -129zM-889 -458h-36v-78q66 29 66 55q0 23 -30 23z" />
    <glyph glyph-name="uni17D2178D" horiz-adv-x="600" 
d="M400 924v-1360q0 -86 -59 -150.5t-177 -64.5q-98 0 -148 47q-49 45 -49 84t-29 59q-32 20 -90 20v-131l-93 -79h-104q-21 30 -75 58q-87 47 -87 100q0 26 46 42l129 51v246h-92q-83 0 -192 -85l7 21q5 18 5 29q0 35 -41 35h-242l-27 -44q96 -10 156 -38q58 -27 58 -68
v-59h37q67 0 103 -17q35 -17 35 -51q0 -61 -117 -141l-119 -79h-28l-95 54v260q0 32 -111 42l-1 108l93 136h295q64 0 64 -67q68 67 147 67h249v-339q128 0 189 -31q63 -34 63 -82q0 -43 50 -43t50 67v1339q0 61 -142 80q-48 6 -48 46q0 41 25 100l165 414h300
q0 -120 -26 -207q-27 -85 -90 -123q16 60 16 96q0 34 -50 34h-133l-69 -173q125 -22 189 -74q63 -49 63 -129zM-667 -441h-37v-89q71 47 71 73q0 16 -34 16zM-382 -472l48 -33v55z" />
    <glyph glyph-name="uni17D21794" horiz-adv-x="600" 
d="M400 924v-1472l-153 -102h-127l-194 182l-195 -182h-25l-106 82v358q0 40 101 100t170 60q66 0 97 -28q32 -29 32 -88q0 -41 -50 -82q-48 -41 -150 -82v-152l200 191l200 -191v1342q0 61 -142 80q-48 6 -48 46q0 41 25 100l165 414h300q0 -120 -26 -207q-27 -85 -90 -123
q16 60 16 96q0 34 -50 34h-133l-69 -173q125 -22 189 -74q63 -49 63 -129zM-200 -161v-85q50 26 50 69q0 26 -19 26q-12 0 -31 -10z" />
    <glyph glyph-name="uni17D21799" horiz-adv-x="600" 
d="M200 -410v1270q0 61 -142 80q-48 6 -48 46q0 41 25 100l165 414h300q0 -120 -26 -207q-27 -85 -90 -123q16 60 16 96q0 34 -50 34h-133l-69 -173q125 -22 189 -74q63 -49 63 -129v-1334q0 -81 -175 -160q-177 -80 -225 -80q-49 0 -159 51q-241 109 -241 189v200
q0 40 101 100t170 60q66 0 97 -28q32 -29 32 -88q0 -41 -50 -82q-48 -41 -150 -82v-40q0 -26 138 -91q140 -63 176 -63q37 0 61 12q25 10 25 102zM-200 -161v-85q50 26 50 69q0 26 -19 26q-12 0 -31 -10z" />
    <glyph glyph-name="uni17D2179A" horiz-adv-x="600" 
d="M200 -350v1210q0 61 -142 80q-48 6 -48 46q0 41 25 100l165 414h300q0 -120 -26 -207q-27 -85 -90 -123q16 60 16 96q0 34 -50 34h-133l-69 -173q125 -22 189 -74q63 -49 63 -129v-1224q0 -34 138 -114q139 -79 176 -79t61 15q25 13 25 128v150l113 113q37 37 62 37
t25 -50v-250q0 -100 -175 -200t-225 -100q-49 0 -159 63q-241 136 -241 237z" />
    <glyph glyph-name="uni17D2179F" horiz-adv-x="600" 
d="M400 24v-416q0 -87 -175 -172q-177 -86 -225 -86q-49 0 -159 54q-241 118 -241 204v51q-27 -13 -55 -13q-30 0 -56 17q-49 30 -49 73q0 44 90 129q89 85 150 85q59 0 120 -51v-249q0 -29 138 -97q141 -68 176 -68q38 0 61 13q25 12 25 110v397q-38 5 -80.5 15t-89.5 26
l112 213q14 -13 29 -25t29 -23v649q0 61 -142 80q-48 6 -48 46q0 41 25 100l165 414h300q0 -120 -26 -207q-27 -85 -90 -123q16 60 16 96q0 34 -50 34h-133l-69 -173q125 -22 189 -74q63 -49 63 -129v-798q11 -1 22.5 -1.5t23.5 -0.5q57 0 129 12q-92 -79 -175 -112z
M-400 -260v40q-42 -25 -42 -40q0 -3 2 -5q5 -5 12 -5q12 0 28 10z" />
    <glyph glyph-name="uni17D2179A.b" horiz-adv-x="600" 
d="M400 924v-1832q0 -27 138 -95q140 -66 176 -66q38 0 61 13q25 10 25 106v125l113 95q38 30 62 30q25 0 25 -41v-209q0 -84 -175 -166q-175 -84 -225 -84q-48 0 -159 53q-241 114 -241 197v1810q0 61 -142 80q-48 6 -48 46q0 41 25 100l165 414h300q0 -120 -26 -207
q-27 -85 -90 -123q16 60 16 96q0 34 -50 34h-133l-69 -173q125 -22 189 -74q63 -49 63 -129z" />
    <glyph glyph-name="nyo_17B6khmer.a" horiz-adv-x="1800" 
d="M1310 1500h290v-200q146 200 310 200h290v-1350l-200 -200v1350h-120q-163 0 -280 -151v-999l-200 -200v1350h-120q-163 0 -280 -151v-999l-200 -200v1350h-100q-89 0 -208 -162l7 41q5 35 5 55q0 66 -44 66h-243l-49 -133q104 -22 169 -73q63 -51 63 -130v-314h50
q150 0 150 -150t-131 -281l-175 -175q-44 -44 -69 -44t-25 40v860q0 60 -122 80q-48 6 -48 46q0 41 25 100l145 374h300q70 0 70 -130q75 130 160 130h270v-200q146 200 310 200zM450 500h-50v-191q90 89 90 150q0 41 -40 41z" />
    <glyph glyph-name="nyo_17C5khmer.a" horiz-adv-x="1800" 
d="M2000 1242v58h-120q-163 0 -280 -151v-999l-200 -200v1350h-120q-163 0 -280 -151v-999l-200 -200v1350h-100q-89 0 -208 -162l7 41q5 35 5 55q0 66 -44 66h-243l-49 -133q104 -22 169 -73q63 -51 63 -130v-314h50q150 0 150 -150t-131 -281l-175 -175q-44 -44 -69 -44
t-25 40v860q0 60 -122 80q-48 6 -48 46q0 41 25 100l145 374h300q70 0 70 -130q75 130 160 130h270v-200q146 200 310 200h290v-200q146 200 310 200h177q-17 72 -75 160q-112 169 -112 257q0 83 56 157q55 75 188 120q-79 -109 -79 -198q2 -61 68 -163q67 -103 67 -233
q0 -27 -1.5 -52t-3.5 -48h5v-1350l-200 -200v1247q-5 -1 -13 -1q-14 0 -26 4q21 20 39 42zM450 500h-50v-191q90 89 90 150q0 41 -40 41z" />
    <glyph glyph-name="uni17B7_17CD" horiz-adv-x="0" 
d="M-337 1822l-58 1l-17 1q-9 -35 -31 -62l-97 -157l-99 33q-148 49 -265 52h-14q-105 0 -182 -42l29 110q44 165 101 252q57 89 129 106q41 9 81 9q27 0 60 -5q48 -7 114 -41q9 17 20.5 37t25.5 42q56 83 115 98q12 4 28 4q46 0 96 -41q82 -67 105 -173q18 1 64 223
q24 109 65 165q44 56 103 56h59l-59 -167q-90 0 -114 -104l-25 -104q-48 -209 -96 -209q-59 88 -158 168q-64 52 -106 52q-24 0 -41 -21q-17 -26 -17 -47q0 -9 3 -18q48 -33 75 -69q94 -65 147 -65zM-984 1771q79 81 170 91q5 1 18 1q96 0 316 -93l12 21l-172 107
q-87 45 -164 45h-15q-84 -5 -165 -172z" />
    <glyph glyph-name="uni17D2_1780" horiz-adv-x="0" 
d="M-800 -274v-247l-200 -129v376q0 74 175 150q177 74 225 74t159 -47q241 -103 241 -177v-247l-200 -129v338q0 26 -138 86q-141 59 -176 59q-36 0 -61 -11q-25 -10 -25 -96z" />
    <glyph glyph-name="uni17D2_1781" horiz-adv-x="0" 
d="M-955 -362q-45 0 -45 42v114q0 53 175 105q176 51 225 51q48 0 159 -32q241 -70 241 -171q0 -25 -300 -133l-300 -107q0 -42 25 -49q26 -8 61 -8q34 0 176 32q138 35 138 52v26l200 104v-157q0 -53 -241 -123q-108 -34 -159 -34q-48 0 -225 53q-175 52 -175 104v68
q202 0 400 73q200 74 200 99q0 39 -138 73q-137 34 -176 34q-35 0 -61 -8q-25 -7 -25 -67q100 0 100 -24q0 -12 -29 -31.5t-71.5 -39t-85 -33t-69.5 -13.5z" />
    <glyph glyph-name="uni17D2_1782" horiz-adv-x="0" 
d="M-900 -650l-100 86v290q0 74 175 150q177 74 225 74t159 -47q241 -103 241 -177v-247l-200 -129v338q0 26 -138 86q-141 59 -176 59q-36 0 -61 -11q-25 -10 -25 -96v-205q65 129 162 129q43 0 91 -30q47 -30 47 -85q0 -56 -100 -95q-18 39 -75 39t-125 -51z" />
    <glyph glyph-name="uni17D2_1784" horiz-adv-x="0" 
d="M-606 -202h-5q-135 0 -172 -49l-39 -51q-57 -75 -57 -107q0 -12 7 -18q29 -23 122 -23q78 0 163 100l86 100q171 200 271 200t130 -100q-57 0 -249 -222l-94 -104q-157 -174 -307 -174q-49 0 -150 96q-100 96 -100 223q0 126 50 184q50 57 130 57q129 0 214 -112z" />
    <glyph glyph-name="uni17D2_1785" horiz-adv-x="0" 
d="M-282 -413l8 -3l91 -28q62 -20 62 -60q0 -18 -14 -44q-31 -58 -85 -58q-17 0 -37 6q-49 16 -90.5 31t-73.5 30q-46 -32 -90 -53q-117 -58 -212 -58q-93 0 -185 53t-92 197q0 90 150 220l150 130q50 0 50 -40t-50 -120q-100 -157 -100 -189v-1q0 -55 37 -76q15 -9 50 -9
q48 0 127 16q25 5 52 12l-2 2q-42 73 -43 164v3q0 90 57 163q59 75 140 75q182 0 182 -137q0 -128 -82 -226zM-379 -377q50 52 50 87v1q0 39 -52 39q-74 0 -74 -55q0 -36 76 -72z" />
    <glyph glyph-name="uni17D2_1786" horiz-adv-x="0" 
d="M-1005 -650q-16 42 -90 72q-95 41 -95 105q0 32 50 55l140 62v133q0 38 -122 52q-48 5 -48 30q0 27 25 65l113 26q105 -13 169 -47q63 -33 63 -85v-161q139 0 206 -40q69 -40 69 -96q0 -39 70 -39q55 0 55 39v136h-30q-49 0 -81 7q-35 8 -51 20q-38 26 -38 71
q0 33 36.5 67.5t88 63t99.5 46.5t71 18q105 0 105 -65v-364q0 -72 -64 -121q-62 -49 -191 -49q-107 0 -161 58q-54 56 -54 112q0 21 -32 47q-33 24 -98 24v-188l-77 -53zM-430 -244h30v59q-70 -12 -70 -35q0 -24 40 -24zM-1050 -446l53 -40v68z" />
    <glyph glyph-name="uni17D2_1787" horiz-adv-x="0" 
d="M-200 -174v-93q100 -28 100 -110q-48 21 -100 37v-181q0 -46 -51 -87q-51 -42 -149 -42q-116 0 -156 38l-118 112l-79 -74q-79 -76 -113 -76t-84 41t-50 88v311l200 160v-464l200 191l200 -191v204q-250 25 -250 125q0 135 225 135q126 0 175 -40q50 -39 50 -84z
M-400 -238v61q0 27 -40 27q-40 -1 -40 -37q0 -33 80 -51z" />
    <glyph glyph-name="uni17D2_1789" horiz-adv-x="0" 
d="M-1036 -499q-12 18 -12 47q0 14 1 21q4 43 33 106q56 125 194 125q123 0 268 -150q147 -150 227 -150q54 0 54 45t-33 85q-34 38 -117 40l125 150q150 -60 150 -180q0 -119 -53 -180q-52 -60 -125 -60q-252 0 -389 140t-196 140q-61 0 -127 -179z" />
    <glyph glyph-name="uni17D2_178A" horiz-adv-x="0" 
d="M-1000 -598v324q0 74 175 150q177 74 225 74t159 -47q241 -103 241 -177v-247l-200 -129v338q0 26 -138 86q-141 59 -176 59q-36 0 -61 -11q-25 -10 -25 -96v-84q29 12 55 12q31 0 56 -16q49 -30 49 -73t-90 -129q-91 -86 -150 -86t-120 52zM-800 -440v-39q42 26 42 40
q0 3 -2 5q-5 5 -11 5q-10 0 -29 -11z" />
    <glyph glyph-name="uni17D2_178B" horiz-adv-x="0" 
d="M-270 -150h120q50 0 50 -75t-50 -95q0 70 -50 70l-72 1q-7 -177 -48 -276q-50 -125 -100 -125h-50q-77 0 -116 44l-88 101l-79 -72q-79 -73 -113 -73t-84 47t-50 103v200q0 50 50 100t100 50h479q1 23 1 48v52q100 0 100 -100zM-376 -250h-424v-242l200 193l130 -151
q49 0 75 80q13 39 19 120z" />
    <glyph glyph-name="uni17D2_178C" horiz-adv-x="0" 
d="M-400 -227v91h-60q-90 0 -208 -70l7 18q5 15 5 24q0 28 -44 28h-182q-18 -18 -18 -31q0 -12 15 -21q31 -19 213 -44q-41 -47 -130 -73q-108 10 -155 23q-43 13 -43 76q0 61 50 108l50 48h240q70 0 70 -56q76 56 160 56h230v-177q0 -39 -600 -168v-34q159 -61 253 -61
q31 0 53 6l94 24v69l200 86v-246q0 -19 -201 -69q-101 -26 -185 -30h-30q-38 0 -66 4l-116 42l148 40q125 -27 179 -27q18 0 28 3q44 11 44 41v39l-42 -12q-109 -27 -159 -27q-20 0 -66.5 6t-103 16t-109 24t-87 30t-34.5 33v95q198 0 400 38q200 39 200 78z" />
    <glyph glyph-name="uni17D2_178E" horiz-adv-x="0" 
d="M-2200 -317v146l100 121h750v-479l200 138l200 -138v168q0 35 -122 47q-48 3 -48 26q0 24 25 58l145 180h750v-570l-51 -30h-149v486h-533l-29 -42q86 -14 149 -42q63 -30 63 -76v-260l-129 -66h-153l-192 132l-192 -132h-134v486h-533l-29 -42q86 -14 149 -42
q63 -30 63 -76v-48h50q150 0 150 -86t-125 -139l-126 -53h-46l-103 59v230q0 31 -100 44zM-1850 -458h-50v-71q90 29 90 47q0 24 -40 24z" />
    <glyph glyph-name="uni17D2_178F" horiz-adv-x="0" 
d="M-1000 -598v324q0 74 175 150q177 74 225 74t159 -47q241 -103 241 -177v-247l-200 -129v338q0 26 -138 86q-141 59 -176 59q-36 0 -61 -11q-25 -10 -25 -96v-84q29 12 55 12q31 0 56 -16q49 -30 49 -73t-90 -129q-91 -86 -150 -86t-120 52zM-800 -440v-39q42 26 42 40
q0 3 -2 5q-5 5 -11 5q-10 0 -29 -11z" />
    <glyph glyph-name="uni17D2_1790" horiz-adv-x="0" 
d="M-590 -514q-86 -117 -212 -124h-13q-72 0 -126 48q-58 54 -58 177v4q0 126 91 214q91 86 201 94q5 1 13 1q105 0 242 -128l101 -98q202 -205 261 -205h2q-22 -102 -123 -108h-7q-98 0 -277 182l-92 94q-91 95 -210 96h-4q-87 0 -91 -82v-7q0 -80 92 -122q81 -37 179 -37
h15.5t15.5 1z" />
    <glyph glyph-name="uni17D2_1791" horiz-adv-x="0" 
d="M-573 -50q72 0 123 -20q50 -21 50 -80q0 -60 -199 -130q-200 -71 -200 -135q2 -40 57 -66q14 -6 33 -6q58 0 167 59q142 78 142 138l200 160v-360l-200 -160v224l-120 -92q-121 -92 -206 -92t-180 54q-94 54 -94 135q0 137 214 165q213 29 213 206z" />
    <glyph glyph-name="uni17D2_1792" horiz-adv-x="0" 
d="M-225 -160q25 -29 25 -61q0 -313 -103 -343q-30 -9 -58 -9q-70 0 -128 55q-102 -132 -238 -132q-137 0 -205 71q-68 70 -68 158q0 89 128 104q195 23 334 89q145 69 238 178l100 -85zM-470 -324l28 -33q57 -66 93 -66q5 0 11 2q38 11 38 114v83q-81 -60 -170 -100z
M-532 -392l11 48q-129 -50 -283 -66q72 -95 158 -95h2q87 1 112 113z" />
    <glyph glyph-name="uni17D2_1793" horiz-adv-x="0" 
d="M-100 -194h-100v-95h35q65 0 65 -124q0 -126 -64 -181l-65 -56l-171 76l1 138q-124 -11 -173 -43q-74 -47 -128 -47q-150 0 -225 60q-75 59 -75 177q0 96 88 142q88 47 262 47h600zM-400 -309v115h-250q-150 0 -150 -95q0 -114 100 -114q114 0 217 57q44 24 83 37z
M-174 -431h-26v-48z" />
    <glyph glyph-name="uni17D2_1795" horiz-adv-x="0" 
d="M-200 -174v-347q0 -46 -51 -87q-51 -42 -149 -42q-116 0 -156 38l-118 112l-79 -74q-79 -76 -113 -76t-84 41t-50 88v311l200 160v-464l200 191l200 -191v207q-101 0 -150 31q-50 30 -50 91q0 67 44 102q44 33 131 33q126 0 175 -39q50 -41 50 -85zM-400 -221v44
q0 27 -25 27q-50 0 -50 -37q0 -34 75 -34z" />
    <glyph glyph-name="uni17D2_1796" horiz-adv-x="0" 
d="M-441 -50h241v-521l-93 -79h-107v496h-48q-83 0 -192 -85l7 21q5 18 5 29q0 35 -41 35h-222l-27 -44q96 -10 156 -38q62 -26 62 -67v-59h33q69 0 103 -18q35 -17 35 -50q0 -63 -117 -141l-119 -79h-28l-107 54v259q0 32 -100 42v108l93 137h275q64 0 64 -68q70 68 127 68
zM-667 -440h-33v-90q67 46 67 73q0 17 -34 17z" />
    <glyph glyph-name="uni17D2_1797" horiz-adv-x="0" 
d="M-738 -650q-61 0 -160 34q-102 33 -102 114q0 65 100 87q0 -70 100 -103q57 -18 91 -18q16 0 28 5q31 13 31 42q0 26 -44 62q-42 36 -131 65q-88 30 -131 75q-44 46 -44 95q0 28 175 86q177 56 225 56q50 0 159 -36q241 -78 241 -135v-257l-200 -172v401q0 19 -138 65
q-139 45 -176 45q-35 0 -61 -8q-25 -9 -25 -45q0 -46 63 -67q94 -30 140 -79q47 -50 47 -117v-34q0 -62 -65 -112q-64 -49 -123 -49z" />
    <glyph glyph-name="uni17D2_1798" horiz-adv-x="0" 
d="M-500 -300h100v100l50 50q50 50 100 50t50 -50v-150h100v-150q0 -82 -63 -141l-65 -59l-172 100v100h-100q-100 0 -164 -100t-111 -100q-49 0 -107 73t-138 115q-80 41 -80 78q200 134 302 134q-82 -66 -82 -93q0 -18 30.5 -50.5t66.5 -59.5t54 -27q27 0 88 90
q62 90 141 90zM-173 -450h-27v-20z" />
    <glyph glyph-name="uni17D2_179B" horiz-adv-x="0" 
d="M-157 -400q-59 -141 -173 -221q-34 -23 -84 -26h-6q-86 0 -241 182l-80 94q-79 95 -183 96h-4q-74 0 -78 -82v-8q0 -79 80 -121q70 -37 155 -37h13.5t13.5 1q-74 -116 -184 -124h-11q-63 0 -110 48q-51 54 -51 181q0 125 80 214q79 86 174 94h11q91 0 211 -127l88 -98
q40 -46 73 -81.5t60 -61.5q81 8 114 46q39 47 39 120q0 74 -45 150l195 101q0 -199 -57 -340z" />
    <glyph glyph-name="uni17D2_179C" horiz-adv-x="0" 
d="M-752 -255q55 -16 110 -16q43 0 79 10q88 21 163 118l200 93q0 -260 -144 -430t-294 -170t-256 62q-106 61 -106 127q0 64 74 149q55 64 127 64q23 0 47 -7zM-899 -374q-5 -5 -5 -11q0 -24 86 -56q105 -40 209 -40q101 0 178 59q63 47 63 117q0 15 -3 31
q-54 -53 -163 -94q-60 -22 -125 -22q-51 0 -99 13q-60 16 -97 16q-34 0 -44 -13z" />
    <glyph glyph-name="uni17D2_17A0" horiz-adv-x="0" 
d="M-1042 -50q58 0 104 -24q47 -26 47 -79v-236q0 -27 -17 -41q0 -22 79 -61q126 -53 157 -53q32 0 51 9q22 10 22 86v67q0 40 -102 53q-40 4 -40 30q0 27 21 67l96 182h525v-499l-125 -101h-41v468h-345l-16 -22q90 -17 141 -49q53 -35 53 -87v-109q0 -66 -149 -134
q-150 -67 -193 -67q-44 0 -136 43q-58 31 -113 72q-52 41 -77 103q26 9 34 22.5t8 33.5v180q0 35 -42 50v49q0 47 58 47z" />
    <glyph glyph-name="uni17D2_17A2" horiz-adv-x="0" 
d="M-981 -650q-15 18 -32 28q-87 59 -87 123q0 34 46 53l127 63v180q0 39 -129 52q-44 3 -44 30q0 24 23 64l5 7h193q46 -10 77 -29q57 -31 57 -83v-116l93 81q49 -67 113 -88q60 -19 158 -20v102q0 39 -129 52q-44 3 -44 30q0 24 23 64l4 7h194q44 -10 76 -29
q57 -31 57 -83v-369q-65 -119 -236 -119q-15 18 -32 28q-86 59 -86 123q0 34 45 53l128 63v66q-102 -47 -177 -47h-9q-79 2 -178 41v-197q-55 -130 -236 -130zM-972 -472l48 -41v68zM-427 -472l48 -41v68z" />
    <glyph glyph-name="uni17B7.a" horiz-adv-x="0" 
d="M-999 1975l36 113q54 168 126 261q71 93 161 110q53 9 102 9q19 0 37.5 -1.5t37.5 -3.5q89 -12 215 -76q127 -69 147 -149q5 -22 5 -39q0 -57 -45 -107l-60 -81l-517 7h-17q-135 0 -228 -43zM-855 2102q99 84 213 94q7 1 21 1q121 0 398 -96l15 22l-216 110
q-111 47 -206 47h-18q-105 -5 -207 -178z" />
    <glyph glyph-name="uni17B8.a" horiz-adv-x="0" 
d="M-149 2109l-74 -89l-531 -10h-13q-136 0 -232 -39l36 102q54 152 126 236q70 83 161 100q53 8 100 8q35 0 77 -5q88 -11 215 -69q127 -61 147 -134q37 58 37 87q0 33 -42 79l94 125l24 -37q24 -37 24 -106t-149 -248zM-855 2086q97 74 213 85q7 1 21 1q121 0 398 -87
l15 20l-216 99q-110 43 -208 43h-16q-106 -5 -207 -161z" />
    <glyph glyph-name="uni17B9.a" horiz-adv-x="0" 
d="M-134 2156q3 -10 3 -22q0 -44 -46 -81l-60 -53l-532 -3q-134 0 -230 -33l36 86q53 126 126 197q71 71 161 83q48 7 101 7q19 0 38 -1t38 -3h9q4 38 33 76q33 44 91.5 67.5t120.5 23.5q59 0 119 -23q59 -24 92.5 -68t33.5 -91t-32.5 -90.5t-90.5 -66.5q-5 -4 -11 -5z
M-192 2359q-65 41 -112 52q-16 3 -30 3q-25 0 -43 -12q-15 -12 -15 -27q0 -10 8 -23q20 -32 85 -72q65 -39 112 -50q15 -4 30 -4q27 0 43 13q15 12 15 26q0 10 -8 24q-21 31 -85 70zM-855 2060q98 64 213 71q7 1 22 1q123 0 397 -73l15 17l-216 83q-109 36 -205 36h-19
q-105 -3 -207 -135z" />
    <glyph glyph-name="uni17BA.a" horiz-adv-x="0" 
d="M-270 2263q115 -49 133 -105q37 47 37 71q0 28 -42 65l94 102l24 -30q24 -31 24 -87t-149 -202l-74 -73l-531 -9h-16q-133 0 -229 -32l36 84q54 124 126 193q70 68 161 82q53 6 103 6q37 0 74 -3q37 -4 81 -15t96 -28q22 32 22 51q0 26 -42 65l94 102l24 -30
q24 -31 24 -87q0 -38 -70 -120zM-855 2057q99 63 213 70q7 1 21 1q117 0 398 -71l15 16l-216 81q-111 35 -205 35h-19q-105 -3 -207 -132z" />
    <glyph glyph-name="uni17C6.a" horiz-adv-x="0" 
d="M-601 2500q70 0 134 -37q66 -37 103.5 -105.5t37.5 -143.5q0 -74 -37 -141q-36 -67 -101 -105t-137 -38q-70 0 -137 38q-65 38 -101 105t-36 141q0 76 37 144t102.5 105t134.5 37zM-541 2279q-73 64 -125 81q-18 5 -32 5q-29 0 -49 -20q-17 -19 -17 -41q0 -17 9 -37
q21 -46 95 -111q71 -63 125 -80q18 -6 33 -6q29 0 48 21q17 17 17 41q0 18 -9 37q-20 44 -95 110z" />
    <glyph glyph-name="uni17CE.a" horiz-adv-x="0" 
d="M-344 2285l120 -117h-275v-86l-200 -152v238h-165l-110 117h275v63l200 152v-215h155z" />
    <glyph glyph-name="uni17D0.a" horiz-adv-x="0" 
d="M-377 1936q-42 -6 -86 -6q-56 0 -122 11q-215 39 -215 90q0 25 87 116q56 51 127 71q42 11 84 11q33 0 67 -6q82 -13 104 -40q7 -8 7 -20q0 -20 -25 -42q-32 -29 -83 -36q-20 -4 -51 -4q-32 0 -73 6q6 8 6 14q0 14 -33 20q-6 1 -11.5 1.5t-10.5 0.5q-31 0 -48 -17
q-3 -1 -3 -5q0 -22 169 -50q72 -13 136 -13h15t14 1q72 5 118 30q47 24 54 58q2 8 2 13q0 27 -27 60q-64 82 -64 162q0 42 45 79q42 36 148 59q-62 -56 -62 -98q2 -24 54 -87q53 -65 53 -128q0 -47 -46 -93q-48 -48 -138 -95q-91 -49 -192 -63z" />
    <glyph glyph-name="uni17BB.b" horiz-adv-x="0" 
d="M-400 -796l200 146v-402l-200 -148v404z" />
    <glyph glyph-name="uni17BC.b" horiz-adv-x="0" 
d="M-529 -1200q-52 0 -101 34q-50 35 -50 68v172q-27 -10 -56 -10q-30 0 -55 13q-49 24 -49 58t90 101q89 67 150 67q59 0 120 -40v-375q78 13 110 37q30 24 30 78q0 34 -30 68q-30 35 -30 97q0 37 50 72q50 33 148 60q-68 -60 -68 -97q0 -44 65 -85t65 -115
q0 -47 -159 -125t-230 -78zM-680 -862v31q-42 -19 -42 -31q0 -2 2 -4q5 -5 12 -5q12 0 28 9z" />
    <glyph glyph-name="uni17BD.b" horiz-adv-x="0" 
d="M-624 -1200q-17 0 -45 16t-49.5 40t-21.5 46v172q-27 -10 -56 -10q-30 0 -55 13q-49 24 -49 58t90 101q89 67 150 67q39 0 100 -40v-321l99 79l167 -112q22 13 22 57t-55 84t-55 118q0 37 50 72q50 33 148 60q-68 -60 -68 -97q0 -44 65 -85t65 -122t-81 -138
q-80 -58 -124 -58q-43 0 -105 44l-63 43l-85 -65q-28 -22 -44 -22zM-740 -862v31q-42 -19 -42 -31q0 -2 2 -4q5 -5 12 -5q12 0 28 9z" />
    <glyph glyph-name="uni17BB.n" horiz-adv-x="0" 
d="M-1000 -250l200 200v-450l-200 -200v450z" />
    <glyph glyph-name="uni17BC.n" horiz-adv-x="0" 
d="M-1139 -660q-51 0 -101 41t-50 81v170q-28 -12 -55 -12q-31 0 -56 16q-49 28 -49 69t90 122t150 81q59 0 120 -49v-414q80 17 110 45q30 29 30 94q0 41 -30 81q-30 41 -30 117q0 45 50 86q50 39 148 72q-68 -73 -68 -117q0 -53 65 -101q65 -50 65 -138q0 -57 -159 -150
q-158 -94 -230 -94zM-1290 -291v38q-42 -24 -42 -37q0 -3 2 -5q5 -6 12 -6q12 0 28 10z" />
    <glyph glyph-name="uni17BD.n" horiz-adv-x="0" 
d="M-1264 -660q-17 0 -45 19.5t-49.5 48t-21.5 54.5v170q-28 -12 -55 -12q-31 0 -56 16q-49 28 -49 69t90 122t150 81q39 0 100 -49v-349l99 95l167 -135q22 16 22 69t-55 101q-55 49 -55 142q0 45 50 86q50 39 148 72q-68 -73 -68 -117q0 -53 65 -101q65 -50 65 -146
q0 -98 -81 -167t-124 -69q-44 0 -105 52l-63 52l-85 -78q-29 -26 -44 -26zM-1380 -291v38q-42 -24 -42 -37q0 -3 2 -5q5 -6 12 -6q12 0 28 10z" />
    <glyph glyph-name="uni17BB.n2" horiz-adv-x="0" 
d="M-1000 -796l200 146v-402l-200 -148v404z" />
    <glyph glyph-name="uni17BC.n2" horiz-adv-x="0" 
d="M-1139 -1200q-52 0 -101 34q-50 35 -50 68v172q-27 -10 -56 -10q-30 0 -55 13q-49 24 -49 58t90 101q89 67 150 67q59 0 120 -40v-375q78 13 110 37q30 24 30 78q0 34 -30 68q-30 35 -30 97q0 37 50 72q50 33 148 60q-68 -60 -68 -97q0 -44 65 -85t65 -115
q0 -47 -159 -125t-230 -78zM-1290 -862v31q-42 -19 -42 -31q0 -2 2 -4q5 -5 12 -5q12 0 28 9z" />
    <glyph glyph-name="uni17BD.n2" horiz-adv-x="0" 
d="M-1254 -1200q-17 0 -45 16t-49.5 40t-21.5 46v172q-27 -10 -56 -10q-30 0 -55 13q-49 24 -49 58t90 101q89 67 150 67q39 0 100 -40v-321l99 79l167 -112q22 13 22 57t-55 84t-55 118q0 37 50 72q50 33 148 60q-68 -60 -68 -97q0 -44 65 -85t65 -122t-81 -138
q-80 -58 -124 -58q-43 0 -105 44l-63 43l-85 -65q-28 -22 -44 -22zM-1370 -862v31q-42 -19 -42 -31q0 -2 2 -4q5 -5 12 -5q12 0 28 9z" />
    <glyph glyph-name="uni17B7.r" horiz-adv-x="0" 
d="M-800 1745l36 113q54 168 126 261q71 93 161 110q53 9 102 9q19 0 37.5 -1.5t37.5 -3.5q89 -12 215 -76q127 -69 147 -149q5 -22 5 -39q0 -57 -45 -107l-121 -162l-125 34q-188 51 -331 54h-17q-135 0 -228 -43zM-656 1872q99 84 213 94q7 1 21 1q121 0 398 -96l15 22
l-216 110q-111 47 -206 47h-18q-105 -5 -207 -178z" />
    <glyph glyph-name="uni17B8.r" horiz-adv-x="0" 
d="M50 1898l-149 -198l-125 34q-188 51 -331 54h-17q-135 0 -228 -43l36 113q54 168 126 261q71 93 161 110q51 9 102 9q19 0 37.5 -1.5t37.5 -3.5q89 -12 215 -76q127 -69 147 -149q37 64 37 96q0 36 -42 88l94 138l24 -41q24 -42 24 -117t-149 -274zM-656 1872
q99 84 213 94q7 1 21 1q121 0 398 -96l15 22l-216 110q-111 47 -206 47h-18q-105 -5 -207 -178z" />
    <glyph glyph-name="uni17B9.r" horiz-adv-x="0" 
d="M65 1998q3 -15 3 -29q0 -58 -46 -107l-121 -162l-125 34q-188 51 -331 54h-17q-135 0 -228 -43l36 113q54 168 126 261q71 93 161 110q51 9 102 9q19 0 37.5 -1.5t37.5 -3.5q3 -1 9 -1q4 51 33 101q33 58 91.5 89t120.5 31t120 -31q59 -31 92 -89t33 -121
q0 -62 -32.5 -119t-90.5 -88q-3 -3 -11 -7zM7 2267q-64 54 -112 68q-18 5 -30 5q-24 0 -43 -17q-15 -16 -15 -35q0 -13 8 -31q19 -40 85 -94q67 -53 112 -67q18 -5 30 -5q24 0 43 17q15 15 15 35q0 13 -8 31q-20 40 -85 93zM-656 1872q99 84 213 94q7 1 21 1q121 0 398 -96
l15 22l-216 110q-111 47 -206 47h-18q-105 -5 -207 -178z" />
    <glyph glyph-name="uni17BA.r" horiz-adv-x="0" 
d="M-71 2150q115 -66 133 -142q37 64 37 96q0 36 -42 88l94 138l24 -41q24 -42 24 -117t-149 -274l-149 -198l-125 34q-188 51 -331 54h-17q-135 0 -228 -43l36 113q54 168 126 261q71 93 161 110q51 9 102 9q19 0 37.5 -1.5t37.5 -3.5q75 -11 177 -58q22 44 22 69
q0 36 -42 88l94 138l24 -41q24 -42 24 -117q0 -53 -70 -162zM-656 1872q99 84 213 94q7 1 21 1q121 0 398 -96l15 22l-216 110q-111 47 -206 47h-18q-105 -5 -207 -178z" />
    <glyph glyph-name="uni17C6.r" horiz-adv-x="0" 
d="M-345 2198q70 0 134 -39q66 -39 103.5 -111t37.5 -151q0 -78 -37 -148q-36 -71 -101 -110.5t-137 -39.5t-137 40q-65 39 -101 110t-36 148q0 80 37 151q37 72 102.5 111t134.5 39zM-285 1966q-75 69 -125 85q-16 6 -32 6q-30 0 -49 -22q-17 -19 -17 -43q0 -18 9 -39
q20 -47 95 -116t125 -85q17 -6 32 -6q30 0 49 22q17 19 17 43q0 18 -9 39q-20 47 -95 116z" />
    <glyph glyph-name="uni17C9.r" horiz-adv-x="0" 
d="M-445 2350v-550l-200 -200v550zM-45 2350v-550l-200 -200v550z" />
    <glyph glyph-name="uni17CD.r" horiz-adv-x="0" 
d="M-302 1700l-64 -101l-89 1q-159 0 -252 57t-93 123v1q0 66 123 220q83 99 176 119q17 4 41 4q74 0 151 -49q126 -82 160 -208q26 2 98 267q36 134 100 199q64 67 157 67h91l-91 -200q-137 0 -175 -125l-37 -125q-73 -250 -148 -250q-89 104 -242 200q-101 62 -163 62
q-39 0 -63 -25q-27 -30 -27 -55q0 -32 41 -59q201 -123 306 -123z" />
    <glyph glyph-name="coeng_1789khmer.a" horiz-adv-x="0" 
d="M-1319 -512l-129 39v168q0 23 -109 30q-43 3 -43 18q0 14 23 37l129 140h268q62 0 62 -48q68 48 143 48h240v-75q131 75 277 75h258v-375l-100 -42q-34 -14 -56 -14t-22 15v341h-107q-144 0 -250 -56v-244l-99 -42q-36 -14 -57 -14q-22 0 -22 15v341h-89q-79 0 -186 -60
l7 15q5 12 5 20q0 25 -40 25h-217l-43 -49q96 -9 150 -28q56 -20 56 -49v-24h45q134 0 134 -56q0 -55 -117 -105zM-1225 -361h-45v-71q81 33 81 56q0 15 -36 15zM-1385 -608l-71 -33q-10 4 -10 12q0 19 69 53q93 46 252 46q156 0 391 -56t327 -56q94 0 94 17t-36 32t-125 15
l134 56q160 -22 160 -68q0 -44 -56 -67q-58 -23 -170 -23q-295 0 -491 47q-247 58 -305 58q-92 0 -163 -33z" />
    <glyph glyph-name="iMark_17CDkhmer.r" horiz-adv-x="0" 
d="M-37 1822l-58 1l-17 1q-9 -35 -31 -62l-97 -157l-99 33q-148 49 -265 52h-14q-105 0 -182 -42l29 110q44 165 101 252q57 89 129 106q41 9 81 9q27 0 60 -5q48 -7 114 -41q9 17 20.5 37t25.5 42q56 83 115 98q12 4 28 4q46 0 96 -41q82 -67 105 -173q18 1 64 223
q24 109 65 165q44 56 103 56h59l-59 -167q-90 0 -114 -104l-25 -104q-48 -209 -96 -209q-59 88 -158 168q-64 52 -106 52q-24 0 -41 -21q-17 -26 -17 -47q0 -9 3 -18q48 -33 75 -69q94 -65 147 -65zM-684 1771q79 81 170 91q5 1 18 1q96 0 316 -93l12 21l-172 107
q-87 45 -164 45h-15q-84 -5 -165 -172z" />
    <glyph glyph-name="coeng_178Akhmer.n" horiz-adv-x="0" 
d="M-1598 -598v324q0 74 175 150q177 74 225 74t159 -47q241 -103 241 -177v-247l-200 -129v338q0 26 -138 86q-141 59 -176 59q-36 0 -61 -11q-25 -10 -25 -96v-84q29 12 55 12q31 0 56 -16q49 -30 49 -73t-90 -129q-91 -86 -150 -86t-120 52zM-1398 -440v-39q42 26 42 40
q0 3 -2 5q-5 5 -11 5q-10 0 -29 -11z" />
    <glyph glyph-name="coeng_178Bkhmer.n" horiz-adv-x="0" 
d="M-828 -150h120q50 0 50 -75t-50 -95q0 70 -50 70l-72 1q-7 -177 -48 -276q-50 -125 -100 -125h-50q-77 0 -116 44l-88 101l-79 -72q-79 -73 -113 -73t-84 47t-50 103v200q0 50 50 100t100 50h479q1 23 1 48v52q100 0 100 -100zM-934 -250h-424v-242l200 193l130 -151
q49 0 75 80q13 39 19 120z" />
    <glyph glyph-name="coeng_178Ckhmer.n" horiz-adv-x="0" 
d="M-1008 -227v91h-60q-90 0 -208 -70l7 18q5 15 5 24q0 28 -44 28h-182q-18 -18 -18 -31q0 -12 15 -21q31 -19 213 -44q-41 -47 -130 -73q-108 10 -155 23q-43 13 -43 76q0 61 50 108l50 48h240q70 0 70 -56q76 56 160 56h230v-177q0 -39 -600 -168v-34q159 -61 253 -61
q31 0 53 6l94 24v69l200 86v-246q0 -19 -201 -69q-101 -26 -185 -30h-30q-38 0 -66 4l-116 42l148 40q125 -27 179 -27q18 0 28 3q44 11 44 41v39l-42 -12q-109 -27 -159 -27q-20 0 -66.5 6t-103 16t-109 24t-87 30t-34.5 33v95q198 0 400 38q200 39 200 78z" />
    <glyph glyph-name="coeng_17A0khmer.n" horiz-adv-x="0" 
d="M-1660 -50q58 0 104 -24q47 -26 47 -79v-236q0 -27 -17 -41q0 -22 79 -61q126 -53 157 -53q32 0 51 9q22 10 22 86v67q0 40 -102 53q-40 4 -40 30q0 27 21 67l96 182h525v-499l-125 -101h-41v468h-345l-16 -22q90 -17 141 -49q53 -35 53 -87v-109q0 -66 -149 -134
q-150 -67 -193 -67q-44 0 -136 43q-58 31 -113 72q-52 41 -77 103q26 9 34 22.5t8 33.5v180q0 35 -42 50v49q0 47 58 47z" />
    <glyph glyph-name="coeng_178Akhmer.r" horiz-adv-x="0" 
d="M-798 -598v324q0 74 175 150q177 74 225 74t159 -47q241 -103 241 -177v-247l-200 -129v338q0 26 -138 86q-141 59 -176 59q-36 0 -61 -11q-25 -10 -25 -96v-84q29 12 55 12q31 0 56 -16q49 -30 49 -73t-90 -129q-91 -86 -150 -86t-120 52zM-598 -440v-39q42 26 42 40
q0 3 -2 5q-5 5 -11 5q-10 0 -29 -11z" />
    <glyph glyph-name="coeng_1797khmer.r" horiz-adv-x="0" 
d="M-535 -650q-61 0 -160 34q-102 33 -102 114q0 65 100 87q0 -70 100 -103q57 -18 91 -18q16 0 28 5q31 13 31 42q0 26 -44 62q-42 36 -131 65q-88 30 -131 75q-44 46 -44 95q0 28 175 86q177 56 225 56q50 0 159 -36q241 -78 241 -135v-257l-200 -172v401q0 19 -138 65
q-139 45 -176 45q-35 0 -61 -8q-25 -9 -25 -45q0 -46 63 -67q94 -30 140 -79q47 -50 47 -117v-34q0 -62 -65 -112q-64 -49 -123 -49z" />
    <glyph glyph-name="coeng_1798khmer.r" horiz-adv-x="0" 
d="M-400 -300h100v100l50 50q50 50 100 50t50 -50v-150h100v-150q0 -82 -63 -141l-65 -59l-172 100v100h-100q-100 0 -164 -100t-111 -100q-49 0 -107 73t-138 115q-80 41 -80 78q200 134 302 134q-82 -66 -82 -93q0 -18 30.5 -50.5t66.5 -59.5t54 -27q27 0 88 90
q62 90 141 90zM-73 -450h-27v-20z" />
    <glyph glyph-name="coeng_1798khmer.b" horiz-adv-x="0" 
d="M-500 -850h100v100l50 50q50 50 100 50t50 -50v-150h100v-150q0 -82 -63 -141l-65 -59l-172 100v100h-100q-100 0 -164 -100t-111 -100q-49 0 -107 73t-138 115q-80 41 -80 78q200 134 302 134q-82 -66 -82 -93q0 -18 30.5 -50.5t66.5 -59.5t54 -27q27 0 88 90
q62 90 141 90zM-173 -1000h-27v-20z" />
    <glyph glyph-name="coeng_17A0khmer.b" horiz-adv-x="0" 
d="M-1042 -715q59 0 104 -19q47 -21 47 -64v-191q0 -22 -17 -33q0 -18 79 -49q123 -43 157 -43q33 0 51 7q22 7 22 69v55q0 32 -102 42q-40 4 -40 25q0 23 21 54l96 147h525v-403l-125 -82h-41v378h-345l-16 -17q90 -14 141 -40q53 -29 53 -70v-89q0 -54 -149 -108
q-151 -54 -193 -54t-136 35q-31 13 -59 27.5t-54 30.5q-51 32 -77 83q26 7 34 18t8 27v146q0 28 -42 40v40q0 38 58 38z" />
    </font>
</defs>
</svg>
